<svg xmlns="http://www.w3.org/2000/svg" xmlns:xlink="http://www.w3.org/1999/xlink" viewBox="0 0 190.33 77.51"><defs><style>.cls-1{fill:none;}.cls-2,.cls-4,.cls-7{fill:#fff;}.cls-3{fill:#1e120d;}.cls-4{stroke:#fff;stroke-linecap:round;stroke-linejoin:round;stroke-width:3px;}.cls-5{fill:#f4c300;}.cls-6{fill:#df0109;}.cls-7,.cls-8{fill-rule:evenodd;}.cls-9{fill:#255369;}.cls-10{clip-path:url(#clip-path);}.cls-11{fill:#f2c800;}.cls-12{fill:#f3c900;}.cls-13{fill:#f3ca00;}.cls-14{fill:#f4cb00;}.cls-15{fill:#f4cc00;}.cls-16{fill:#f5cd00;}.cls-17{fill:#f5ce00;}.cls-18{fill:#f5cf00;}.cls-19{fill:#f6d000;}.cls-20{fill:#f6d100;}.cls-21{fill:#f7d200;}.cls-22{fill:#f7d300;}.cls-23{fill:#f8d400;}.cls-24{fill:#f8d500;}.cls-25{fill:#f9d600;}.cls-26{fill:#f9d700;}.cls-27{fill:#f9d800;}.cls-28{fill:#fad900;}.cls-29{fill:#fbda00;}.cls-30{fill:#fbdb00;}.cls-31{fill:#fbdc00;}.cls-32{fill:#fcdc00;}.cls-33{fill:#fcdd00;}.cls-34{fill:#fcde00;}.cls-35{fill:#fddf00;}.cls-36{fill:#fde000;}.cls-37{fill:#fde100;}.cls-38{fill:#fee100;}.cls-39{fill:#d88f00;}.cls-40{fill:#d99000;}.cls-41{fill:#d99200;}.cls-42{fill:#da9300;}.cls-43{fill:#db9500;}.cls-44{fill:#db9600;}.cls-45{fill:#dc9800;}.cls-46{fill:#d90;}.cls-47{fill:#dd9b00;}.cls-48{fill:#de9c00;}.cls-49{fill:#df9d00;}.cls-50{fill:#df9f00;}.cls-51{fill:#e0a000;}.cls-52{fill:#e0a100;}.cls-53{fill:#e1a300;}.cls-54{fill:#e2a400;}.cls-55{fill:#e2a500;}.cls-56{fill:#e3a700;}.cls-57{fill:#e4a800;}.cls-58{fill:#e4a900;}.cls-59{fill:#e5ab00;}.cls-60{fill:#e5ac00;}.cls-61{fill:#e6ad00;}.cls-62{fill:#e7af00;}.cls-63{fill:#e7b000;}.cls-64{fill:#e8b100;}.cls-65{fill:#e8b200;}.cls-66{fill:#e9b400;}.cls-67{fill:#e9b500;}.cls-68{fill:#eab600;}.cls-69{fill:#eab700;}.cls-70{fill:#ebb800;}.cls-71{fill:#ecba00;}.cls-72{fill:#ecbb00;}.cls-73{fill:#edbc00;}.cls-74{fill:#edbd00;}.cls-75{fill:#eebe00;}.cls-76{fill:#eebf00;}.cls-77{fill:#efc100;}.cls-78{fill:#efc200;}.cls-79{fill:#f0c300;}.cls-80{fill:#f0c400;}.cls-81{fill:#f1c500;}.cls-82{fill:#f1c600;}.cls-83{fill:#f2c700;}.cls-84{fill:#fee200;}.cls-85{fill:#fee300;}.cls-86{fill:#ffe300;}.cls-87{fill:#ffe400;}.cls-88{clip-path:url(#clip-path-2);}.cls-89{clip-path:url(#clip-path-3);}</style><clipPath id="clip-path"><path class="cls-1" d="M114.8,32.9l-1.88,2a2.09,2.09,0,0,0-.38,0,1.55,1.55,0,0,0-1,.31,5.32,5.32,0,0,1,.47,2.22q0,4.91-4.62,9.59a10.89,10.89,0,0,1-8.19,3.55,6.53,6.53,0,0,1-4.86-1.72A2.26,2.26,0,0,0,92.86,51q0,1.89,3.59,1.81h1.63a6.84,6.84,0,0,1,4.52,1.48,5.38,5.38,0,0,1,1.77,4.3,5,5,0,0,1-2,4.45,9,9,0,0,1-5,1.08,13,13,0,0,1-6.28-1.87q-3.76-2.1-3.88-4.87l2.7-.4q.3,1.77,2.89,2.85a10.54,10.54,0,0,0,4.21.93q2.25,0,2.26-1.37T97.59,57.7q-.24,0-2.7,0-5.91,0-5.89-5a5.2,5.2,0,0,1,1.33-3.28,7.72,7.72,0,0,1,2.88-2.16,5.76,5.76,0,0,1-.33-2.08,12.74,12.74,0,0,1,4-9,12.14,12.14,0,0,1,8.94-4,7.44,7.44,0,0,1,3.59.78,5.23,5.23,0,0,1,2.91-.74A3.82,3.82,0,0,1,114.8,32.9ZM107,37.24q0-1.94-1.86-1.95t-4.49,4Q98.31,43,98.29,45.14c0,1.08.57,1.63,1.72,1.64q2.18,0,4.66-3.67Q107,39.63,107,37.24Z"/></clipPath><clipPath id="clip-path-2"><path class="cls-1" d="M133.93,33,132,35a2,2,0,0,0-.38,0,1.53,1.53,0,0,0-1,.3,5.36,5.36,0,0,1,.47,2.22,13,13,0,0,1-3.91,9.11,11.88,11.88,0,0,1-8.9,4q-6.33,0-6.3-5.4a12.75,12.75,0,0,1,4-9,12.16,12.16,0,0,1,8.93-4,7.5,7.5,0,0,1,3.59.78,5.25,5.25,0,0,1,2.91-.74A3.84,3.84,0,0,1,133.93,33Zm-7.81,4.34a1.68,1.68,0,0,0-1.85-1.95q-2,0-4.49,4-2.34,3.72-2.35,5.87,0,1.62,1.68,1.64,2.22,0,4.69-3.71Q126.1,39.75,126.12,37.36Z"/></clipPath><clipPath id="clip-path-3"><path class="cls-1" d="M147.66,21.51l-10,21.62a5.9,5.9,0,0,0-.55,2.07c0,.72.4,1.08,1.22,1.09a7.8,7.8,0,0,0,.93-.24c.39-.11.59-.08.61.11a3.85,3.85,0,0,1-.39,2,4.2,4.2,0,0,1-1.6,1.75,4.66,4.66,0,0,1-2.74.92q-4.22,0-4.23-4.21,0-1.7,2-6.08l8.94-19Z"/></clipPath></defs><title>logo-progolMed-color</title><g id="Capa_2" data-name="Capa 2"><g id="iconos_index" data-name="iconos index"><path class="cls-2" d="M119.11,73.08h-2.58l1.05-7a6.2,6.2,0,0,1-1,.71c-.39.21-.58.32-.94.5l-1.22-1.49a45.84,45.84,0,0,0,5.27-3.38l1,.62Z"/><path class="cls-2" d="M119.11,74.13h-2.58a1.05,1.05,0,0,1-1-1.21l.72-4.79-.14.07a1.05,1.05,0,0,1-1.28-.28l-1.22-1.49a1.05,1.05,0,0,1,.3-1.58A45,45,0,0,0,119,61.55a1.05,1.05,0,0,1,1.2,0l1,.62a1.05,1.05,0,0,1,.47,1l-1.51,10.07A1.05,1.05,0,0,1,119.11,74.13ZM117.75,72h.46l1.22-8.17c-.55.39-1.11.77-1.7,1.15a1.06,1.06,0,0,1,.38.13,1,1,0,0,1,.52,1.07Z"/><path class="cls-2" d="M127.84,61.91l-6.38,12-1.7-.32,6.38-12Z"/><path class="cls-2" d="M121.46,75l-.2,0-1.7-.32a1.05,1.05,0,0,1-.73-1.52l6.38-12a1,1,0,0,1,1.12-.54l1.7.32a1.05,1.05,0,0,1,.73,1.52l-6.38,12A1.05,1.05,0,0,1,121.46,75Z"/><path class="cls-2" d="M133.91,73.08h-7.22l-.16-1.36a27.73,27.73,0,0,0,3.07-2.6c1.51-1.45,1.93-2.1,1.93-3a1.29,1.29,0,0,0-1.43-1.27,3.64,3.64,0,0,0-2,.73l-.34-2.08a5.51,5.51,0,0,1,3.15-1,3,3,0,0,1,3.37,3.21,4.81,4.81,0,0,1-1.61,3.2c-.44.45-1,.92-1.53,1.43l-.78.65h4.09Z"/><path class="cls-2" d="M133.91,74.13h-7.22a1.05,1.05,0,0,1-1-.93l-.16-1.36a1,1,0,0,1,.4-1,26.57,26.57,0,0,0,3-2.51c1.5-1.44,1.62-1.82,1.62-2.21,0-.18-.21-.22-.38-.22a2.57,2.57,0,0,0-1.39.56,1.05,1.05,0,0,1-1.61-.71l-.34-2.08a1.05,1.05,0,0,1,.44-1,6.55,6.55,0,0,1,3.74-1.22,4.07,4.07,0,0,1,4.42,4.26,5.81,5.81,0,0,1-1.92,3.95l-.28.28h1.33a1,1,0,0,1,1,1.33l-.58,2.08A1,1,0,0,1,133.91,74.13ZM127.83,72h2.35a1,1,0,0,1-.81-1.27C128.91,71.18,128.45,71.55,127.83,72Zm2.26-8.18a2.35,2.35,0,0,1,2.48,2.32,3.61,3.61,0,0,1-1,2.42l.4-.39a3.89,3.89,0,0,0,1.31-2.47c0-1.79-1.26-2.16-2.33-2.16a4.19,4.19,0,0,0-1.82.43A3.44,3.44,0,0,1,130.09,63.85Z"/><path class="cls-2" d="M144.76,65.35a3.83,3.83,0,0,0-2.09-.86,1.07,1.07,0,0,0-1.22.89c0,.47.2.75,1.3,1.56a7.06,7.06,0,0,1,1.51,1.33,2.93,2.93,0,0,1,.6,1.67,3,3,0,0,1-1.61,2.81,4.69,4.69,0,0,1-2.53.57,7.73,7.73,0,0,1-2.87-.68,3.64,3.64,0,0,1-.78-.45l.67-2.49a3.92,3.92,0,0,0,2.61,1.3,1.1,1.1,0,0,0,1.22-1c0-.39-.2-.67-.7-1.06a17.27,17.27,0,0,1-1.72-1.43,2.67,2.67,0,0,1-.84-2.09,3.17,3.17,0,0,1,1.41-2.57,4.6,4.6,0,0,1,2.3-.63,6,6,0,0,1,3.21.8Z"/><path class="cls-2" d="M140.72,74.37a8.72,8.72,0,0,1-3.33-.79,4.48,4.48,0,0,1-.93-.54,1,1,0,0,1-.4-1.13l.67-2.49A1,1,0,0,1,138.5,69a2.91,2.91,0,0,0,1.85,1h.11l-.24-.21a18,18,0,0,1-1.82-1.52,3.72,3.72,0,0,1-1.15-2.83,4.19,4.19,0,0,1,1.88-3.44,5.59,5.59,0,0,1,2.88-.81,7.06,7.06,0,0,1,3.7.91,1,1,0,0,1,.54,1.13l-.47,2.37a1,1,0,0,1-1.65.64,2.84,2.84,0,0,0-1.47-.65c.14.12.36.3.71.55a7.94,7.94,0,0,1,1.71,1.53,4,4,0,0,1,.83,2.32,4.05,4.05,0,0,1-2.14,3.72A5.72,5.72,0,0,1,140.72,74.37Zm-2.43-2.68a6.8,6.8,0,0,0,2.43.58,3.64,3.64,0,0,0,2-.43,2,2,0,0,0,1.08-1.9,1.89,1.89,0,0,0-.39-1,6.06,6.06,0,0,0-1.28-1.11c-1-.72-1.81-1.33-1.73-2.48a1.92,1.92,0,0,1,.67-1.33,2.29,2.29,0,0,1,1.67-.54,4.26,4.26,0,0,1,1.27.28l0-.14a4.85,4.85,0,0,0-2-.34,3.58,3.58,0,0,0-1.73.46,2.12,2.12,0,0,0-.94,1.69,1.65,1.65,0,0,0,.54,1.35,16.3,16.3,0,0,0,1.62,1.34A2.36,2.36,0,0,1,142.61,70a2.14,2.14,0,0,1-2.27,2.09,4.25,4.25,0,0,1-2-.56Z"/><path class="cls-2" d="M151.9,71.91a4.83,4.83,0,0,1-3.5,1.41A2.94,2.94,0,0,1,146,72.19a3.51,3.51,0,0,1-.63-2.24,5.41,5.41,0,0,1,1.28-3.26,4.11,4.11,0,0,1,3-1.36c1.7,0,2.66.75,2.66,2.06s-1.49,2.56-4.28,3.16a1.15,1.15,0,0,0,1.1,1,3.53,3.53,0,0,0,2.35-1.09Zm-1.61-4.29a.59.59,0,0,0-.63-.65c-.79,0-1.48.94-1.67,2.34C149.39,69,150.25,68.34,150.29,67.62Z"/><path class="cls-2" d="M148.39,74.37a4,4,0,0,1-3.22-1.57,4.49,4.49,0,0,1-.83-2.86,6.46,6.46,0,0,1,1.55-4,5.16,5.16,0,0,1,3.75-1.71c2.74,0,3.71,1.61,3.71,3.11a3.2,3.2,0,0,1-1.1,2.41,1.06,1.06,0,0,1,.23.41l.42,1.41a1.05,1.05,0,0,1-.32,1.1A5.82,5.82,0,0,1,148.39,74.37Zm-.78-7.15-.15.16a4.39,4.39,0,0,0-1,2.57,2.5,2.5,0,0,0,.42,1.61,1.78,1.78,0,0,0,1,.64,2.32,2.32,0,0,1-.85-1.49,1,1,0,0,1,.17-.76,1,1,0,0,1-.21-.78A5,5,0,0,1,147.61,67.22Zm2.68.4h0Z"/><path class="cls-2" d="M155,65.37a1.58,1.58,0,0,1,.49,1.19c0,.31,0,.36,0,.6a3,3,0,0,1,2.55-1.79,1.72,1.72,0,0,1,1.48.57,1.56,1.56,0,0,1,.29,1.15,3.67,3.67,0,0,1,1-1.12,2.87,2.87,0,0,1,1.66-.6,1.73,1.73,0,0,1,2,1.62,4.08,4.08,0,0,1,0,.88l-.78,5.21h-2.48l.65-4.32a3.62,3.62,0,0,0,0-.5c0-.45-.16-.65-.57-.65s-.88.36-1.46,1.35l-.62,4.12h-2.48l.65-4.32c0-.18,0-.34,0-.5,0-.45-.16-.65-.55-.65S156,68,155.39,69l-.62,4.12h-2.48L153,68.6c0-.26.08-.57.11-.94a5.88,5.88,0,0,0,0-1,2.09,2.09,0,0,0-.2-.78Z"/><path class="cls-2" d="M163.65,74.13h-2.48a1.05,1.05,0,0,1-.8-.36,1.07,1.07,0,0,1-.18-.29,1,1,0,0,1-1,.66h-2.48a1.05,1.05,0,0,1-1-.68,1.05,1.05,0,0,1-1,.68h-2.48a1.05,1.05,0,0,1-1-1.2l.67-4.48c0-.27.08-.55.11-.88a5.44,5.44,0,0,0,0-.9,1.23,1.23,0,0,0-.11-.37,1.05,1.05,0,0,1,.72-1.43l2.13-.52a1.06,1.06,0,0,1,1,.26,2.63,2.63,0,0,1,.31.35,3.65,3.65,0,0,1,1.92-.64,2.82,2.82,0,0,1,2.22.8h0a3.87,3.87,0,0,1,2.26-.79,2.77,2.77,0,0,1,3,2.61,5.13,5.13,0,0,1-.06,1.11l-.78,5.2A1.05,1.05,0,0,1,163.65,74.13ZM162.38,72h.36l.64-4.32a3.11,3.11,0,0,0,0-.66c0-.2,0-.63-.93-.63a1.68,1.68,0,0,0-.72.2,1.56,1.56,0,0,1,1.14,1.64,4.74,4.74,0,0,1-.06.68ZM158,72h.36l.48-3.23a1,1,0,0,1,.14-.38l.3-.48a1.05,1.05,0,0,1-.44-.89c0-.37,0-.42-.07-.48a.7.7,0,0,0-.59-.16,1.6,1.6,0,0,0-.76.21,1.54,1.54,0,0,1,1.11,1.63c0,.17,0,.33,0,.51l0,.15Zm-4.45,0h.36l.48-3.23a1.05,1.05,0,0,1,.13-.38c.1-.17.2-.34.31-.5a1.05,1.05,0,0,1-.33-.84c0-.21,0-.25,0-.5l-.32.08h0a6.42,6.42,0,0,1-.05,1.07c0,.42-.07.76-.13,1Z"/><path class="cls-2" d="M172.07,69.91l-.07.58c-.11.89.08,1.17.78,1.12l-.45,1.52a5.07,5.07,0,0,1-1.31.11,1.36,1.36,0,0,1-1.46-1.43,2.64,2.64,0,0,1-2.4,1.49c-1.54,0-2.45-1.31-2.29-3.3a4.77,4.77,0,0,1,4.77-4.69,9.88,9.88,0,0,1,3,.5ZM170,67.4l-.24,0a1.93,1.93,0,0,0-1.4.32,3.24,3.24,0,0,0-.94,2.08c-.08.84.21,1.33.79,1.36s.83-.28,1.4-1.1Z"/><path class="cls-2" d="M167.15,74.37a3.12,3.12,0,0,1-2.36-1,4.45,4.45,0,0,1-1-3.43,5.81,5.81,0,0,1,5.82-5.65,11,11,0,0,1,3.36.55,1.05,1.05,0,0,1,.72,1.16L173,70.62h0a1.1,1.1,0,0,1,.74,1.29l-.45,1.52a1,1,0,0,1-.82.73,6.18,6.18,0,0,1-1.55.13,2.73,2.73,0,0,1-1.68-.62A3.3,3.3,0,0,1,167.15,74.37Zm.22-7.23a3.92,3.92,0,0,0-1.46,3,2.48,2.48,0,0,0,.42,1.84,1.24,1.24,0,0,0,1.52.18,1.8,1.8,0,0,1-1-.59,2.43,2.43,0,0,1-.48-1.89A4.47,4.47,0,0,1,167.38,67.15Zm2.8,3.84a1.05,1.05,0,0,1,.42.84c0,.22,0,.36.47.38h.32l0,0a2.15,2.15,0,0,1-.4-1.82l.06-.57v0l.48-3.15a8.48,8.48,0,0,0-1.15-.19,1,1,0,0,1,.66,1.13l-.39,2.62a1.05,1.05,0,0,1-.17.44ZM173,71Zm-4.34-2a2.88,2.88,0,0,0-.24.85l.14-.18Z"/><path class="cls-2" d="M175.9,65.37a1.64,1.64,0,0,1,.49,1.19V67a4.59,4.59,0,0,1,1-1.11,2.75,2.75,0,0,1,1.64-.57A1.74,1.74,0,0,1,181,67.3c0,.23,0,.52-.1.86l-.75,4.92h-2.48l.65-4.24c0-.26.06-.47.06-.6a.55.55,0,0,0-.62-.63c-.55.06-.94.42-1.52,1.43l-.6,4h-2.48l.66-4.48c0-.26.08-.57.11-.94a5.88,5.88,0,0,0,0-1,2.1,2.1,0,0,0-.2-.78Z"/><path class="cls-2" d="M180.13,74.13h-2.48a1.05,1.05,0,0,1-1-.78,1,1,0,0,1-1,.78h-2.48a1.05,1.05,0,0,1-1-1.2l.66-4.48c.05-.27.08-.55.11-.88a5.47,5.47,0,0,0,0-.9,1.23,1.23,0,0,0-.11-.38,1,1,0,0,1,.72-1.42l2.13-.52a1.05,1.05,0,0,1,1,.28,2.66,2.66,0,0,1,.3.35,3.51,3.51,0,0,1,4.38.25,2.83,2.83,0,0,1,.71,2.15c0,.25-.05.57-.11.93l-.75,4.93A1,1,0,0,1,180.13,74.13ZM178.87,72h.36l.61-4c0-.3.07-.58.09-.78a.74.74,0,0,0-.15-.57,1.39,1.39,0,0,0-1.51,0,1.54,1.54,0,0,1,.62.35,1.69,1.69,0,0,1,.52,1.32,5.25,5.25,0,0,1-.05.54l0,.15Zm-4.52,0h.36l.47-3.15a1,1,0,0,1,.13-.37c.14-.23.27-.45.41-.65a1,1,0,0,1-.39-.82v-.46l-.32.08h0a6.42,6.42,0,0,1-.05,1.07,10.51,10.51,0,0,1-.13,1.05Zm3.52-3.38h0Zm-.56-.41h0Z"/><path class="cls-2" d="M188.57,69.91l-.07.58c-.11.89.08,1.17.78,1.12l-.45,1.52a5.07,5.07,0,0,1-1.31.11,1.36,1.36,0,0,1-1.46-1.43,2.64,2.64,0,0,1-2.4,1.49c-1.54,0-2.45-1.31-2.29-3.3a4.77,4.77,0,0,1,4.77-4.69,9.89,9.89,0,0,1,3.05.5Zm-2.09-2.52-.24,0a1.93,1.93,0,0,0-1.4.32,3.24,3.24,0,0,0-.94,2.08c-.08.84.21,1.33.79,1.36s.83-.28,1.4-1.1Z"/><path class="cls-2" d="M183.66,74.37a3.12,3.12,0,0,1-2.36-1,4.45,4.45,0,0,1-1-3.43,5.81,5.81,0,0,1,5.82-5.65,11,11,0,0,1,3.37.55,1.05,1.05,0,0,1,.72,1.16l-.68,4.62h0a1.06,1.06,0,0,1,.51.34,1.07,1.07,0,0,1,.24,1l-.45,1.52a1,1,0,0,1-.82.73,6.09,6.09,0,0,1-1.55.13,2.73,2.73,0,0,1-1.68-.62A3.31,3.31,0,0,1,183.66,74.37Zm.22-7.23a4,4,0,0,0-1.47,3,2.48,2.48,0,0,0,.42,1.84,1.24,1.24,0,0,0,1.52.18,1.8,1.8,0,0,1-1-.59,2.43,2.43,0,0,1-.48-1.89A4.45,4.45,0,0,1,183.88,67.15Zm2.8,3.84a1.05,1.05,0,0,1,.42.84c0,.22,0,.36.46.38h.33l0,0a2.15,2.15,0,0,1-.4-1.81l.07-.57v0L188,66.6a8.48,8.48,0,0,0-1.15-.19,1.05,1.05,0,0,1,.66,1.13l-.39,2.62a1.05,1.05,0,0,1-.17.44Zm2.85,0h0Zm-4.34-2a2.83,2.83,0,0,0-.24.85l.14-.18Z"/><path class="cls-3" d="M119.11,73.08h-2.58l1.05-7a6.2,6.2,0,0,1-1,.71c-.39.21-.58.32-.94.5l-1.22-1.49a45.84,45.84,0,0,0,5.27-3.38l1,.62Z"/><path class="cls-3" d="M127.84,61.91l-6.38,12-1.7-.32,6.38-12Z"/><path class="cls-3" d="M133.91,73.08h-7.22l-.16-1.36a27.73,27.73,0,0,0,3.07-2.6c1.51-1.45,1.93-2.1,1.93-3a1.29,1.29,0,0,0-1.43-1.27,3.64,3.64,0,0,0-2,.73l-.34-2.08a5.51,5.51,0,0,1,3.15-1,3,3,0,0,1,3.37,3.21,4.81,4.81,0,0,1-1.61,3.2c-.44.45-1,.92-1.53,1.43l-.78.65h4.09Z"/><path class="cls-3" d="M144.76,65.35a3.83,3.83,0,0,0-2.09-.86,1.07,1.07,0,0,0-1.22.89c0,.47.2.75,1.3,1.56a7.06,7.06,0,0,1,1.51,1.33,2.93,2.93,0,0,1,.6,1.67,3,3,0,0,1-1.61,2.81,4.69,4.69,0,0,1-2.53.57,7.73,7.73,0,0,1-2.87-.68,3.64,3.64,0,0,1-.78-.45l.67-2.49a3.92,3.92,0,0,0,2.61,1.3,1.1,1.1,0,0,0,1.22-1c0-.39-.2-.67-.7-1.06a17.27,17.27,0,0,1-1.72-1.43,2.67,2.67,0,0,1-.84-2.09,3.17,3.17,0,0,1,1.41-2.57,4.6,4.6,0,0,1,2.3-.63,6,6,0,0,1,3.21.8Z"/><path class="cls-3" d="M151.9,71.91a4.83,4.83,0,0,1-3.5,1.41A2.94,2.94,0,0,1,146,72.19a3.51,3.51,0,0,1-.63-2.24,5.41,5.41,0,0,1,1.28-3.26,4.11,4.11,0,0,1,3-1.36c1.7,0,2.66.75,2.66,2.06s-1.49,2.56-4.28,3.16a1.15,1.15,0,0,0,1.1,1,3.53,3.53,0,0,0,2.35-1.09Zm-1.61-4.29a.59.59,0,0,0-.63-.65c-.79,0-1.48.94-1.67,2.34C149.39,69,150.25,68.34,150.29,67.62Z"/><path class="cls-3" d="M155,65.37a1.58,1.58,0,0,1,.49,1.19c0,.31,0,.36,0,.6a3,3,0,0,1,2.55-1.79,1.72,1.72,0,0,1,1.48.57,1.56,1.56,0,0,1,.29,1.15,3.67,3.67,0,0,1,1-1.12,2.87,2.87,0,0,1,1.66-.6,1.73,1.73,0,0,1,2,1.62,4.08,4.08,0,0,1,0,.88l-.78,5.21h-2.48l.65-4.32a3.62,3.62,0,0,0,0-.5c0-.45-.16-.65-.57-.65s-.88.36-1.46,1.35l-.62,4.12h-2.48l.65-4.32c0-.18,0-.34,0-.5,0-.45-.16-.65-.55-.65S156,68,155.39,69l-.62,4.12h-2.48L153,68.6c0-.26.08-.57.11-.94a5.88,5.88,0,0,0,0-1,2.09,2.09,0,0,0-.2-.78Z"/><path class="cls-3" d="M172.07,69.91l-.07.58c-.11.89.08,1.17.78,1.12l-.45,1.52a5.07,5.07,0,0,1-1.31.11,1.36,1.36,0,0,1-1.46-1.43,2.64,2.64,0,0,1-2.4,1.49c-1.54,0-2.45-1.31-2.29-3.3a4.77,4.77,0,0,1,4.77-4.69,9.88,9.88,0,0,1,3,.5ZM170,67.4l-.24,0a1.93,1.93,0,0,0-1.4.32,3.24,3.24,0,0,0-.94,2.08c-.08.84.21,1.33.79,1.36s.83-.28,1.4-1.1Z"/><path class="cls-3" d="M175.9,65.37a1.64,1.64,0,0,1,.49,1.19V67a4.59,4.59,0,0,1,1-1.11,2.75,2.75,0,0,1,1.64-.57A1.74,1.74,0,0,1,181,67.3c0,.23,0,.52-.1.86l-.75,4.92h-2.48l.65-4.24c0-.26.06-.47.06-.6a.55.55,0,0,0-.62-.63c-.55.06-.94.42-1.52,1.43l-.6,4h-2.48l.66-4.48c0-.26.08-.57.11-.94a5.88,5.88,0,0,0,0-1,2.1,2.1,0,0,0-.2-.78Z"/><path class="cls-3" d="M188.57,69.91l-.07.58c-.11.89.08,1.17.78,1.12l-.45,1.52a5.07,5.07,0,0,1-1.31.11,1.36,1.36,0,0,1-1.46-1.43,2.64,2.64,0,0,1-2.4,1.49c-1.54,0-2.45-1.31-2.29-3.3a4.77,4.77,0,0,1,4.77-4.69,9.89,9.89,0,0,1,3.05.5Zm-2.09-2.52-.24,0a1.93,1.93,0,0,0-1.4.32,3.24,3.24,0,0,0-.94,2.08c-.08.84.21,1.33.79,1.36s.83-.28,1.4-1.1Z"/><path class="cls-4" d="M59.2,44.77l-3.43,0a6.33,6.33,0,0,1,.65-2.65,4.26,4.26,0,0,1,2.27-1.75,14.15,14.15,0,0,1,5-.66h.19l1,0,.48,0,.07-10.95h-.75a17.68,17.68,0,0,0-4.46.43,8.36,8.36,0,0,0-3.43,2.07,10.07,10.07,0,0,0-1.71,2l0-4.2-15-.09,0,8.06,3.1,0,0,7.53-3.1,0-.05,8.06,19.25.12Z"/><path class="cls-4" d="M142.61,34.14q2.88-2.34,5.83-4.85s-1.85,1.16-5,3.09l4.33-9.32a12.92,12.92,0,0,0,3.2-8.43A13.14,13.14,0,0,0,137.83,1.5h-.07a13.15,13.15,0,0,0-13.18,13,12.92,12.92,0,0,0,3.81,9.26,13.23,13.23,0,0,0,2.45,1.92c-2.23,1.77-4.9,4.09-6.63,5.55a13.4,13.4,0,0,0-9.18,4.3,16.54,16.54,0,0,0-2.39,3.07,11.44,11.44,0,0,0,.07-1.17,6.21,6.21,0,0,0-.17-1.49L113,36l3-3.21-.66-.53a56.4,56.4,0,0,0,8.56-9.33S119,26.4,111.5,31.14a6.22,6.22,0,0,0-2.38.59,9,9,0,0,0-3.56-.66A12.82,12.82,0,0,0,97,34.4a12.66,12.66,0,0,0-2.32-2.24c-3.07-2.29-7.11-3.46-12-3.49h-.17c-4.79,0-8.67,1.17-11.53,3.48a11,11,0,0,0-4.44,8.79A11.16,11.16,0,0,0,70.89,50a13.6,13.6,0,0,0,2.52,1.62C58,58,43.67,60.76,38.4,52.33a12,12,0,0,1-2.64-5.44A12.37,12.37,0,0,0,37.15,41a13.39,13.39,0,0,0-.57-4,26.75,26.75,0,0,1,1.07-2.62,8,8,0,0,0-2.16.17A11.4,11.4,0,0,0,33.45,32a13,13,0,0,0-9-3.45h-.1a16.94,16.94,0,0,0-7.17,1.62V28.92L1.76,28.83l-.05,8.06,2.74,0-.11,18-2.79,0,0,8.06L20,63,20,55l-3,0,0-3.49A14.25,14.25,0,0,0,23.82,53H24a18.33,18.33,0,0,0,2.37-.16c.22,8.44,3.39,18.29,16,21.76,0,0,18.14,6.73,53-9.7a11.31,11.31,0,0,0,1.75.15h.13a9.77,9.77,0,0,0,5.42-1.25A5.48,5.48,0,0,0,105,60c4.4-2.42,9-5.2,13.89-8.38a13,13,0,0,0,8.81-4.3,16.3,16.3,0,0,0,2.45-3.27,8.83,8.83,0,0,0-.53,2.57,4.71,4.71,0,0,0,5.2,5.21h.07a5.64,5.64,0,0,0,3.26-1.09,5.22,5.22,0,0,0,2-2.21,4.69,4.69,0,0,0,.46-2.51,1.18,1.18,0,0,0-.52-.85,1.61,1.61,0,0,0-1.37-.1l-.71.2-.15,0a.45.45,0,0,1,0-.05,4.78,4.78,0,0,1,.46-1.66ZM18.13,37.25a3.36,3.36,0,0,1,2.56-1.06v-.45h0l0,.45c3,0,3.37,2.61,3.36,4.56s-.39,4.63-3.55,4.63h0A3.08,3.08,0,0,1,18,44.25a5,5,0,0,1-1-3.41A5.16,5.16,0,0,1,18.13,37.25Zm106.51-.66a1.14,1.14,0,0,1,.18.76h0c0,1.38-.73,3.16-2.15,5.28s-2.81,3.27-3.85,3.26c-.64,0-.69-.16-.69-.63,0-.84.39-2.46,2.2-5.34l.25-.39q1.85-1.54,3.57-3.12A.81.81,0,0,1,124.64,36.59Zm-20,4.08a19.81,19.81,0,0,1-1.11,1.88c-1.42,2.11-2.74,3.23-3.81,3.23h0c-.44,0-.58-.11-.61-.14a.77.77,0,0,1-.11-.49,4,4,0,0,1,.08-.71C101,43.2,102.84,41.95,104.65,40.66ZM95,59.55a10.2,10.2,0,0,1-2.15-.67,6.8,6.8,0,0,1-1.15-.6,10.8,10.8,0,0,0,2.88.37l2.19,0ZM83,35.76l0,.45a3,3,0,0,1,2.53,1.21,6.13,6.13,0,0,1,.9,3.63c0,5-2.74,5-3.69,5h0a2.9,2.9,0,0,1-2.54-1.18,6.62,6.62,0,0,1-.86-3.82,5.68,5.68,0,0,1,1-3.67A3.21,3.21,0,0,1,83,36.22v-.45ZM103,53.5a6.66,6.66,0,0,0-1.31-.85c3.1-1.84,6.2-3.8,9.21-5.85a5.37,5.37,0,0,0,2,3.4c-2.87,1.58-5.78,3.15-8.69,4.69A6.08,6.08,0,0,0,103,53.5Zm28.72-17.45.42.09,3-3.21-2.91,6.2-.48.29a13.55,13.55,0,0,0,.16-1.9A6.28,6.28,0,0,0,131.68,36.05Zm16.9-28.6,0,0ZM148,6.6c-.16-.19-.32-.38-.49-.57C147.63,6.22,147.79,6.41,148,6.6ZM137.76,1.7h.07a13,13,0,0,1,9.43,4.11,13.15,13.15,0,0,0-20.6,2.12A13,13,0,0,1,137.76,1.7Zm-12,8,.09-.23Zm.42-.9c.1-.19.19-.37.3-.55C126.37,8.41,126.28,8.6,126.18,8.78Zm11.4,18.84L135.1,32.9l-.83-.67a4.82,4.82,0,0,0-3.08-1,6.86,6.86,0,0,0-2.21.32c.8-.9,1.57-1.81,2.29-2.72s1.16-1.51,1.62-2.13A13.27,13.27,0,0,0,137.58,27.62Zm-53.87,26a23.64,23.64,0,0,0,4-.4c0,.06,0,.12,0,.19C76.2,59.76,64.2,65.53,56,67.37,56,67.37,68.84,61.85,83.71,53.62Zm3.45,7a9.25,9.25,0,0,0,2,1.79C79.67,66.77,71.39,69.85,66.5,70,66.5,70,75.52,66.48,87.16,60.59Z"/><path class="cls-3" d="M28.21,39.19S18.68,68.12,42.34,74.65c0,0,36.78,13.65,106.11-45.36,0,0-63.93,40.12-81.94,40.73,0,0,46.92-18.39,64.77-41.19,12.18-15.55-10.89,6.32-8.71,3.51,0,0-45.56,30.33-66.61,35,0,0,52.57-22.5,67.94-44.43,0,0-72.07,50.88-85.48,29.39,0,0-6.24-6.34-.74-18C37.66,34.37,32.62,33.81,28.21,39.19Z"/><path class="cls-5" d="M2.16,36.44l0-7.15,14.54.09V30.9A16.55,16.55,0,0,1,24.46,29a12.52,12.52,0,0,1,8.68,3.33A11.18,11.18,0,0,1,36.7,41a10.75,10.75,0,0,1-3.59,8.49,13.48,13.48,0,0,1-9.28,3.09,13.34,13.34,0,0,1-7.21-1.92l0,4.73,3,0,0,7.15L2,62.46l0-7.15,2.79,0,.12-18.87Zm14.44,4.4a5.36,5.36,0,0,0,1.1,3.71,3.53,3.53,0,0,0,2.78,1.28q4,0,4-5.09t-3.81-5a3.83,3.83,0,0,0-2.92,1.2A5.56,5.56,0,0,0,16.6,40.84Z"/><path class="cls-5" d="M20,63,1.5,62.91l0-8.06,2.79,0,.11-18-2.74,0,.05-8.06,15.45.1v1.25a16.94,16.94,0,0,1,7.17-1.62h.1a13,13,0,0,1,9,3.45,11.67,11.67,0,0,1,3.71,9,11.23,11.23,0,0,1-3.75,8.83A13.94,13.94,0,0,1,24,53h-.13a14.25,14.25,0,0,1-6.76-1.58l0,3.49,3,0ZM2.42,62l16.67.1,0-6.24-3,0,0-6,.7.44a13,13,0,0,0,7,1.85H24a13,13,0,0,0,8.85-3A10.36,10.36,0,0,0,36.24,41a10.79,10.79,0,0,0-3.41-8.34,12.14,12.14,0,0,0-8.37-3.21h-.1a16.19,16.19,0,0,0-7.42,1.85l-.67.34V29.83L2.66,29.74l0,6.24,2.74,0L5.24,55.79l-2.79,0ZM20.53,46.29h0a4,4,0,0,1-3.13-1.44,5.81,5.81,0,0,1-1.21-4,6,6,0,0,1,1.32-4.22,4.28,4.28,0,0,1,3.22-1.34h0c2,0,4.29,1,4.27,5.48S22.55,46.29,20.53,46.29Zm.16-10.56v.46a3.36,3.36,0,0,0-2.56,1.06,5.16,5.16,0,0,0-1.07,3.59,5,5,0,0,0,1,3.41,3.08,3.08,0,0,0,2.44,1.13h0c3.15,0,3.53-2.64,3.55-4.63s-.33-4.54-3.36-4.56Z"/><path class="cls-5" d="M58.69,52.38l-18.34-.11,0-7.15,3.1,0,.05-8.44-3.1,0,0-7.15,14.11.09,0,5.7a9.54,9.54,0,0,1,2.49-3.67,7.88,7.88,0,0,1,3.25-2,17.9,17.9,0,0,1,4.62-.42l-.06,10-1,0a14.86,14.86,0,0,0-5.37.7,4.67,4.67,0,0,0-2.5,2,7.21,7.21,0,0,0-.73,3.32l3.45,0Z"/><path class="cls-5" d="M59.15,52.84,39.9,52.72l.05-8.06,3.1,0,0-7.53-3.1,0,0-8.06,15,.09,0,4.2a10.07,10.07,0,0,1,1.71-2,8.36,8.36,0,0,1,3.43-2.07,17.68,17.68,0,0,1,4.46-.43h.75l-.07,10.95-.48,0-1,0h-.19a14.15,14.15,0,0,0-5,.66,4.26,4.26,0,0,0-2.27,1.75,6.33,6.33,0,0,0-.65,2.65l3.43,0Zm-18.33-1,17.42.11,0-6.24-3.45,0V45.2a7.68,7.68,0,0,1,.78-3.53,5.13,5.13,0,0,1,2.73-2.16,14.77,14.77,0,0,1,5.35-.73h.73l.06-9.08a16.35,16.35,0,0,0-4,.4A7.48,7.48,0,0,0,57.37,32,9.13,9.13,0,0,0,55,35.47l-.88-.17,0-5.24L41,30l0,6.24,3.1,0-.06,9.35-3.1,0Z"/><path class="cls-5" d="M67,40.94a10.54,10.54,0,0,1,4.27-8.44q4.24-3.42,11.42-3.38t11.72,3.4a10.3,10.3,0,0,1,4.47,8.7,10.6,10.6,0,0,1-4.37,8.58q-4.34,3.42-11.42,3.38-7.64,0-11.89-3.52A10.68,10.68,0,0,1,67,40.94Zm11.93.12q0,5.44,3.86,5.46,4.13,0,4.16-5.46a6.52,6.52,0,0,0-1-3.9,3.41,3.41,0,0,0-2.9-1.4,3.67,3.67,0,0,0-3,1.34A6.08,6.08,0,0,0,78.9,41.06Z"/><path class="cls-5" d="M83.26,53.64h-.19c-5.18,0-9.28-1.25-12.18-3.62a11.16,11.16,0,0,1-4.38-9.08A11,11,0,0,1,71,32.14c2.86-2.31,6.74-3.48,11.53-3.48h.17c4.89,0,8.92,1.21,12,3.49a10.77,10.77,0,0,1,4.66,9.07,11.07,11.07,0,0,1-4.54,8.93C91.85,52.47,88,53.64,83.26,53.64Zm-.77-24.06c-4.58,0-8.26,1.1-11,3.28a10.34,10.34,0,0,0-.06,16.45c2.73,2.24,6.64,3.39,11.61,3.42h.18c4.51,0,8.19-1.1,11-3.28a10.2,10.2,0,0,0,4.19-8.22,9.9,9.9,0,0,0-4.29-8.33c-2.91-2.17-6.77-3.28-11.46-3.31ZM82.8,47h0a3.8,3.8,0,0,1-3.28-1.57,7.47,7.47,0,0,1-1-4.35,6.54,6.54,0,0,1,1.26-4.25A4.12,4.12,0,0,1,83,35.31h0a3.86,3.86,0,0,1,3.26,1.59,7,7,0,0,1,1.08,4.17C87.36,43.76,86.55,47,82.8,47ZM83,35.76v.46A3.21,3.21,0,0,0,80.4,37.4a5.68,5.68,0,0,0-1,3.67,6.62,6.62,0,0,0,.86,3.82,2.9,2.9,0,0,0,2.54,1.18h0c.95,0,3.66,0,3.69-5a6.13,6.13,0,0,0-.9-3.63A3,3,0,0,0,83,36.22Z"/><path class="cls-6" d="M2.57,36.44l0-7.15,14.54.09V30.9A16.56,16.56,0,0,1,24.87,29a12.54,12.54,0,0,1,8.68,3.34A11.18,11.18,0,0,1,37.1,41a10.76,10.76,0,0,1-3.59,8.49,13.49,13.49,0,0,1-9.28,3.08A13.35,13.35,0,0,1,17,50.67l0,4.74,3,0,0,7.15L2.36,62.46l0-7.15,2.79,0,.12-18.88ZM17,40.84a5.37,5.37,0,0,0,1.1,3.71,3.53,3.53,0,0,0,2.78,1.28q4,0,4-5.09t-3.82-5a3.82,3.82,0,0,0-2.91,1.2A5.56,5.56,0,0,0,17,40.84Z"/><path class="cls-6" d="M59.1,52.38l-18.34-.12,0-7.15,3.1,0L44,36.69l-3.1,0,0-7.15L55,29.61l0,5.7a9.48,9.48,0,0,1,2.48-3.67,7.87,7.87,0,0,1,3.25-2,18,18,0,0,1,4.62-.42l-.06,10c-.27,0-.59,0-1,0a14.94,14.94,0,0,0-5.38.69,4.69,4.69,0,0,0-2.5,2,7.22,7.22,0,0,0-.72,3.33l3.45,0Z"/><path class="cls-6" d="M67.38,40.94a10.54,10.54,0,0,1,4.27-8.44q4.24-3.42,11.42-3.38t11.73,3.4a10.29,10.29,0,0,1,4.47,8.7,10.6,10.6,0,0,1-4.37,8.58q-4.33,3.42-11.42,3.38-7.64-.05-11.89-3.52A10.69,10.69,0,0,1,67.38,40.94Zm11.93.12q0,5.44,3.86,5.46,4.13,0,4.16-5.46a6.5,6.5,0,0,0-1-3.9,3.42,3.42,0,0,0-2.9-1.4,3.68,3.68,0,0,0-3,1.34A6.07,6.07,0,0,0,79.31,41.06Z"/><ellipse class="cls-2" cx="137.79" cy="14.64" rx="12.85" ry="13.05" transform="matrix(0.03, -1, 1, 0.03, 118.47, 151.85)"/><path class="cls-7" d="M146.41,15.1c-1.56.12-3.12.23-4.6.44a24.6,24.6,0,0,0-3.45-4.11c.26-1.65.85-2.94,1.15-4.55C145.17,4.18,149.65,10.27,146.41,15.1Z"/><path class="cls-7" d="M133.1,25a12.82,12.82,0,0,1,1.51-3.34,18.2,18.2,0,0,0,5.21-.82,38.18,38.18,0,0,1,3.51,2.31C142.93,27.78,135.54,27.71,133.1,25Z"/><path class="cls-7" d="M128.77,23.27A66.82,66.82,0,0,1,136,26.91,8.8,8.8,0,0,1,128.77,23.27Z"/><path class="cls-7" d="M125.3,14c.52,1.57.74,3.42,2.05,4.26a12.57,12.57,0,0,0,1.22,5A11.24,11.24,0,0,1,125.3,14Z"/><path class="cls-8" d="M135.19,4.74a5.76,5.76,0,0,1-.13-2.2,3.78,3.78,0,0,0-2.21.52c.3-.57,2.3-1.12,3.83-1.07a1.78,1.78,0,0,0-1.28,2.55c1.26.75,3,1.06,3.92,2.13a26.12,26.12,0,0,1,5-.63,6.63,6.63,0,0,0-.12-2.4,12,12,0,0,1,5.74,7.18c-.52-.61-1.61.19-2-.27-1,3.58-1.43,5.47-.51,9.16.61-.17,2,.5,2-.33.57.3-.38.67-.24,1.19-.09-.62-.74-.73-1.57-.65-2.07,1.78-4.44,3.24-5.4,6.2,2.49,0,4.23-2.46,5.92-4-7.17,10.44-24.24,4.17-23.24-8.57a12.79,12.79,0,0,1,7.54-10.51c-1.86,1.59-4.66,2.17-5,5.41.85.36,2-.71,3.41-.48A11.53,11.53,0,0,1,135.19,4.74Zm4.31,2.14c-.3,1.61-.9,2.9-1.15,4.55a24.6,24.6,0,0,1,3.45,4.11c1.48-.21,3-.32,4.6-.44C149.65,10.27,145.17,4.18,139.51,6.89Zm2.1,8.65A29,29,0,0,0,138,11.42c-1.63.46-3.5.66-5.22,1a20.35,20.35,0,0,1-1.65-4.25c-5.58-.73-6.49,7.1-3.73,10a16.52,16.52,0,0,0,3.62-.87,13,13,0,0,1,1.76-4.93c-.27,1.69-1.84,3.33-1.57,5.13.2,1.33,2.45,3.65,3.46,3.91,1.67.43,3.25-.69,5.21-.82A14.63,14.63,0,0,0,141.6,15.53Zm-13,7.74a12.57,12.57,0,0,1-1.22-5c-1.31-.84-1.53-2.69-2.05-4.26A11.24,11.24,0,0,0,128.57,23.27Zm14.77-.1a38.18,38.18,0,0,0-3.51-2.31,18.2,18.2,0,0,1-5.21.82A12.82,12.82,0,0,0,133.1,25C135.54,27.71,142.93,27.78,143.34,23.17ZM136,26.91a66.82,66.82,0,0,0-7.26-3.64A8.8,8.8,0,0,0,136,26.91Z"/><path class="cls-7" d="M139.83,20.66c-2,.13-3.54,1.26-5.21.82-1-.26-3.26-2.57-3.46-3.91-.27-1.81,1.3-3.45,1.57-5.13A13,13,0,0,0,131,17.37a16.52,16.52,0,0,1-3.62.87c-2.76-2.94-1.85-10.78,3.73-10a20.35,20.35,0,0,0,1.65,4.25c1.72-.36,3.6-.56,5.22-1a29,29,0,0,1,3.65,4.11A14.63,14.63,0,0,1,139.83,20.66Z"/><path class="cls-3" d="M137.77,27.63h-.07a13.16,13.16,0,0,1-9.3-3.88,12.92,12.92,0,0,1-3.81-9.26,13.15,13.15,0,0,1,13.18-13h.07A13.14,13.14,0,0,1,151,14.63,13.16,13.16,0,0,1,137.77,27.63Zm0-25.92a13,13,0,0,0-13,12.79,12.72,12.72,0,0,0,3.75,9.12,13,13,0,0,0,9.16,3.82h.07a13,13,0,0,0,13-12.79A12.94,12.94,0,0,0,137.83,1.7Z"/><path class="cls-9" d="M114.51,32.9l-1.88,2a2.13,2.13,0,0,0-.38,0,1.52,1.52,0,0,0-1,.31,5.3,5.3,0,0,1,.47,2.22q0,4.91-4.62,9.59a10.89,10.89,0,0,1-8.19,3.55A6.53,6.53,0,0,1,94,48.82,2.27,2.27,0,0,0,92.57,51q0,1.89,3.59,1.81h1.63a6.81,6.81,0,0,1,4.52,1.48,5.38,5.38,0,0,1,1.77,4.3A5,5,0,0,1,102,63a9.06,9.06,0,0,1-5,1.08,12.94,12.94,0,0,1-6.28-1.87q-3.76-2.1-3.88-4.87l2.7-.4q.3,1.77,2.89,2.86a10.61,10.61,0,0,0,4.22.93q2.25,0,2.26-1.37T97.3,57.69q-.24,0-2.7-.05-5.92,0-5.89-5a5.22,5.22,0,0,1,1.34-3.28,7.73,7.73,0,0,1,2.88-2.16,5.8,5.8,0,0,1-.33-2.08,12.74,12.74,0,0,1,4-9,12.14,12.14,0,0,1,8.93-4,7.41,7.41,0,0,1,3.59.78,5.23,5.23,0,0,1,2.91-.74A3.84,3.84,0,0,1,114.51,32.9Zm-7.81,4.34q0-1.94-1.86-1.95t-4.49,4Q98,43,98,45.14q0,1.63,1.72,1.64,2.18,0,4.66-3.67Q106.68,39.63,106.7,37.24Z"/><path class="cls-6" d="M97.18,65.1h-.13a14,14,0,0,1-6.77-2c-2.81-1.57-4.29-3.49-4.39-5.7l0-.91,2.74-.4a6.31,6.31,0,0,1-.87-3.44,6.21,6.21,0,0,1,1.56-3.91,9,9,0,0,1,2.47-2.06,7.56,7.56,0,0,1-.14-1.55,13.77,13.77,0,0,1,4.31-9.74,13.22,13.22,0,0,1,9.66-4.33,9,9,0,0,1,3.56.66,6.48,6.48,0,0,1,2.95-.61,4.84,4.84,0,0,1,3.08,1l.84.68L113,36l-.44-.08a6.21,6.21,0,0,1,.17,1.49c0,3.53-1.67,7-4.91,10.28A11.9,11.9,0,0,1,99,51.55H98.9a8,8,0,0,1-5-1.48,1.17,1.17,0,0,0-.36.9.41.41,0,0,0,.12.34c.15.15.7.49,2.44.45h1.65A7.83,7.83,0,0,1,103,53.5a6.36,6.36,0,0,1,2.13,5.07,6,6,0,0,1-2.48,5.28A9.77,9.77,0,0,1,97.18,65.1Zm-9.11-6.9a6.47,6.47,0,0,0,3.19,3.15,12,12,0,0,0,5.8,1.75,8,8,0,0,0,4.43-.91,4,4,0,0,0,1.58-3.62A4.37,4.37,0,0,0,101.64,55a5.8,5.8,0,0,0-3.87-1.23H96.16c-1.86,0-3.13-.3-3.87-1A2.43,2.43,0,0,1,91.57,51a3.15,3.15,0,0,1,1.22-2.55,6.91,6.91,0,0,0-2,1.62,4.26,4.26,0,0,0-1.1,2.63c0,1.83.54,3.95,4.89,4,2.34,0,2.68,0,2.83.06A2.65,2.65,0,0,1,100,59.37c0,.72-.33,2.37-3.23,2.37h0a11.68,11.68,0,0,1-4.62-1,5.75,5.75,0,0,1-3.18-2.66Zm3.65.09a6.8,6.8,0,0,0,1.15.6,9.69,9.69,0,0,0,3.83.85c.35,0,1.24,0,1.24-.38s0-.53-.82-.67c-.06,0-.52,0-2.53,0A10.8,10.8,0,0,1,91.72,58.28ZM94.26,47.6l.5.51a5.53,5.53,0,0,0,4.15,1.42H99a9.84,9.84,0,0,0,7.39-3.24c2.87-2.92,4.33-5.91,4.34-8.9a4.32,4.32,0,0,0-.38-1.8l-.31-.7.59-.49a2.48,2.48,0,0,1,1.62-.54l.63-.67a3.81,3.81,0,0,0-.8-.08,4.25,4.25,0,0,0-2.36.58l-.51.32-.52-.29a6.49,6.49,0,0,0-3.11-.66h-.07a11.09,11.09,0,0,0-8.14,3.73,11.67,11.67,0,0,0-3.73,8.34,4.79,4.79,0,0,0,.27,1.72l.29.78Zm5.48.18h0a2.75,2.75,0,0,1-2-.74A2.58,2.58,0,0,1,97,45.13c0-1.63.83-3.73,2.51-6.39,1.89-3,3.63-4.45,5.33-4.45h0a2.82,2.82,0,0,1,2.12.8,3,3,0,0,1,.74,2.15h0c0,1.81-.83,3.91-2.49,6.42C103.35,46.44,101.56,47.78,99.74,47.78Zm5.1-11.49c-.43,0-1.63.35-3.63,3.51C99.4,42.68,99,44.3,99,45.15a.77.77,0,0,0,.11.49s.17.14.61.14h0c1.07,0,2.39-1.12,3.81-3.23s2.14-3.93,2.15-5.31a1.16,1.16,0,0,0-.18-.76A1,1,0,0,0,104.84,36.29Z"/><path class="cls-9" d="M133.64,33l-1.88,2a1.75,1.75,0,0,0-.38,0,1.52,1.52,0,0,0-1,.31,5.35,5.35,0,0,1,.47,2.22,13,13,0,0,1-3.91,9.11,11.89,11.89,0,0,1-8.9,4q-6.33,0-6.3-5.4a12.74,12.74,0,0,1,4-9,12.14,12.14,0,0,1,8.93-4,7.42,7.42,0,0,1,3.59.78,5.24,5.24,0,0,1,2.91-.74A3.83,3.83,0,0,1,133.64,33Zm-7.81,4.34q0-1.94-1.85-1.95t-4.49,4q-2.34,3.73-2.35,5.87c0,1.08.55,1.63,1.69,1.64q2.21,0,4.69-3.71Q125.81,39.74,125.83,37.35Z"/><path class="cls-6" d="M118.1,51.67H118c-6.06,0-7.31-3.5-7.3-6.41A13.77,13.77,0,0,1,115,35.52a13.33,13.33,0,0,1,9.65-4.33,9,9,0,0,1,3.56.66,6.43,6.43,0,0,1,2.95-.62,4.82,4.82,0,0,1,3.08,1l.84.68-3,3.23-.42-.09a6.28,6.28,0,0,1,.17,1.48,14,14,0,0,1-4.19,9.8A12.92,12.92,0,0,1,118.1,51.67Zm6.51-18.47a11.1,11.1,0,0,0-8.14,3.73,11.68,11.68,0,0,0-3.73,8.34c0,2,.58,4.36,5.3,4.39h.06a10.85,10.85,0,0,0,8.1-3.72,11.91,11.91,0,0,0,3.63-8.42,4.3,4.3,0,0,0-.38-1.8l-.31-.7.59-.48a2.49,2.49,0,0,1,1.62-.53l.63-.68a3.76,3.76,0,0,0-.84-.08,4.26,4.26,0,0,0-2.33.59l-.51.32-.53-.29a6.48,6.48,0,0,0-3.11-.66Zm-5.78,14.7h0a2.45,2.45,0,0,1-2.69-2.65c0-1.63.83-3.72,2.51-6.4,1.89-3,3.63-4.45,5.33-4.45h0a2.84,2.84,0,0,1,2.09.77,3,3,0,0,1,.76,2.18h0c0,1.81-.82,3.9-2.49,6.39C122.48,46.54,120.68,47.9,118.83,47.9ZM124,36.41c-.43,0-1.63.35-3.63,3.51-1.81,2.88-2.19,4.49-2.2,5.34,0,.47,0,.62.69.63,1,0,2.42-1.12,3.85-3.26s2.14-3.9,2.15-5.28h0a1.14,1.14,0,0,0-.18-.76,1.07,1.07,0,0,0-.67-.17Z"/><path class="cls-9" d="M147.37,21.51l-10,21.62a5.94,5.94,0,0,0-.55,2.08q0,1.07,1.22,1.08a7.54,7.54,0,0,0,.92-.24c.39-.11.59-.08.62.11a3.83,3.83,0,0,1-.39,2,4.22,4.22,0,0,1-1.6,1.75,4.65,4.65,0,0,1-2.74.92q-4.22,0-4.23-4.21,0-1.69,2-6.08l8.94-19Z"/><path class="cls-6" d="M134.85,51.84h-.07a4.71,4.71,0,0,1-5.2-5.21c0-1.31.69-3.37,2.14-6.5l9.21-19.62h8l-10.7,23.05a4.78,4.78,0,0,0-.46,1.66.45.45,0,0,0,0,.05l.15,0,.71-.2a1.61,1.61,0,0,1,1.37.1,1.18,1.18,0,0,1,.52.85,4.69,4.69,0,0,1-.46,2.51,5.22,5.22,0,0,1-2,2.21A5.64,5.64,0,0,1,134.85,51.84Zm0-2h0a3.65,3.65,0,0,0,2.14-.73,3.31,3.31,0,0,0,1.26-1.33c.08-.2.15-.38.19-.53a1.56,1.56,0,0,1-.42.06,2.34,2.34,0,0,1-1.59-.53,2,2,0,0,1-.64-1.57,6.78,6.78,0,0,1,.63-2.46l9.39-20.23h-3.6L133.53,41c-1.6,3.45-1.94,5-1.95,5.66a2.75,2.75,0,0,0,3.22,3.2Zm3.75-3.49v0Z"/><g class="cls-10"><polygon class="cls-11" points="98.28 46.74 104.98 46.79 98.28 46.79 98.28 46.74"/><polygon class="cls-12" points="98.28 46.37 107 46.42 107 46.79 104.98 46.79 98.28 46.74 98.28 46.37"/><polygon class="cls-13" points="98.28 45.99 107 46.04 107 46.42 98.28 46.37 98.28 45.99"/><polygon class="cls-14" points="98.28 45.61 107 45.67 107 46.04 98.28 45.99 98.28 45.61"/><polygon class="cls-15" points="98.28 45.23 107 45.29 107 45.67 98.28 45.61 98.28 45.23"/><polygon class="cls-16" points="98.28 44.86 107 44.91 107 45.29 98.28 45.23 98.28 44.86"/><polygon class="cls-17" points="98.28 44.48 107 44.53 107 44.91 98.28 44.86 98.28 44.48"/><polygon class="cls-18" points="98.28 44.1 107 44.16 107 44.53 98.28 44.48 98.28 44.1"/><polygon class="cls-19" points="98.28 43.73 107 43.78 107 44.16 98.28 44.1 98.28 43.73"/><polygon class="cls-20" points="98.28 43.35 107 43.4 107 43.78 98.28 43.73 98.28 43.35"/><polygon class="cls-21" points="98.28 42.97 107 43.03 107 43.4 98.28 43.35 98.28 42.97"/><polygon class="cls-22" points="98.28 42.59 107 42.65 107 43.03 98.28 42.97 98.28 42.59"/><polygon class="cls-23" points="98.28 42.22 107 42.27 107 42.65 98.28 42.59 98.28 42.22"/><polygon class="cls-24" points="98.28 41.84 107 41.89 107 42.27 98.28 42.22 98.28 41.84"/><polygon class="cls-24" points="98.28 41.46 107 41.52 107 41.89 98.28 41.84 98.28 41.46"/><polygon class="cls-25" points="98.28 41.09 107 41.14 107 41.52 98.28 41.46 98.28 41.09"/><polygon class="cls-26" points="98.28 40.71 107 40.76 107 41.14 98.28 41.09 98.28 40.71"/><polygon class="cls-27" points="98.28 40.33 107 40.38 107 40.76 98.28 40.71 98.28 40.33"/><polygon class="cls-28" points="98.28 39.95 107 40.01 107 40.38 98.28 40.33 98.28 39.95"/><polygon class="cls-28" points="98.28 39.58 107 39.63 107 40.01 98.28 39.95 98.28 39.58"/><polygon class="cls-29" points="98.28 39.2 107 39.25 107 39.63 98.28 39.58 98.28 39.2"/><polygon class="cls-30" points="98.28 38.82 107 38.88 107 39.25 98.28 39.2 98.28 38.82"/><polygon class="cls-31" points="98.28 38.45 107 38.5 107 38.88 98.28 38.82 98.28 38.45"/><polygon class="cls-32" points="98.28 38.07 107 38.12 107 38.5 98.28 38.45 98.28 38.07"/><polygon class="cls-33" points="98.28 37.69 107 37.74 107 38.12 98.28 38.07 98.28 37.69"/><polygon class="cls-34" points="98.28 37.31 107 37.37 107 37.74 98.28 37.69 98.28 37.31"/><polygon class="cls-34" points="98.28 36.94 107 36.99 107 37.37 98.28 37.31 98.28 36.94"/><polygon class="cls-35" points="98.28 36.56 107 36.61 107 36.99 98.28 36.94 98.28 36.56"/><polygon class="cls-36" points="98.28 36.18 107 36.23 107 36.61 98.28 36.56 98.28 36.18"/><polygon class="cls-36" points="98.28 35.8 107 35.86 107 36.23 98.28 36.18 98.28 35.8"/><polygon class="cls-37" points="98.28 35.43 107 35.48 107 35.86 98.28 35.8 98.28 35.43"/><polygon class="cls-38" points="107 35.48 98.28 35.43 98.28 35.28 107 35.28 107 35.48"/><polygon class="cls-39" points="87.18 64.03 99.78 64.11 87.18 64.11 87.18 64.03"/><polygon class="cls-39" points="87.18 63.65 114.8 63.82 114.8 64.11 99.78 64.11 87.18 64.03 87.18 63.65"/><polygon class="cls-40" points="87.18 63.27 114.8 63.45 114.8 63.82 87.18 63.65 87.18 63.27"/><polygon class="cls-41" points="87.18 62.9 114.8 63.07 114.8 63.45 87.18 63.27 87.18 62.9"/><polygon class="cls-42" points="87.18 62.52 114.8 62.69 114.8 63.07 87.18 62.9 87.18 62.52"/><polygon class="cls-43" points="87.18 62.14 114.8 62.31 114.8 62.69 87.18 62.52 87.18 62.14"/><polygon class="cls-44" points="87.18 61.77 114.8 61.94 114.8 62.31 87.18 62.14 87.18 61.77"/><polygon class="cls-45" points="87.18 61.39 114.8 61.56 114.8 61.94 87.18 61.77 87.18 61.39"/><polygon class="cls-46" points="87.18 61.01 114.8 61.18 114.8 61.56 87.18 61.39 87.18 61.01"/><polygon class="cls-47" points="87.18 60.63 114.8 60.8 114.8 61.18 87.18 61.01 87.18 60.63"/><polygon class="cls-48" points="87.18 60.26 114.8 60.43 114.8 60.8 87.18 60.63 87.18 60.26"/><polygon class="cls-49" points="87.18 59.88 114.8 60.05 114.8 60.43 87.18 60.26 87.18 59.88"/><polygon class="cls-50" points="87.18 59.5 114.8 59.67 114.8 60.05 87.18 59.88 87.18 59.5"/><polygon class="cls-51" points="87.18 59.13 114.8 59.3 114.8 59.67 87.18 59.5 87.18 59.13"/><polygon class="cls-52" points="87.18 58.75 114.8 58.92 114.8 59.3 87.18 59.13 87.18 58.75"/><polygon class="cls-53" points="87.18 58.37 114.8 58.54 114.8 58.92 87.18 58.75 87.18 58.37"/><polygon class="cls-54" points="87.18 57.99 114.8 58.16 114.8 58.54 87.18 58.37 87.18 57.99"/><polygon class="cls-55" points="87.18 57.62 114.8 57.79 114.8 58.16 87.18 57.99 87.18 57.62"/><polygon class="cls-56" points="87.18 57.24 114.8 57.41 114.8 57.79 87.18 57.62 87.18 57.24"/><polygon class="cls-57" points="87.18 56.86 114.8 57.03 114.8 57.41 87.18 57.24 87.18 56.86"/><polygon class="cls-58" points="87.18 56.48 114.8 56.66 114.8 57.03 87.18 56.86 87.18 56.48"/><polygon class="cls-59" points="87.18 56.11 114.8 56.28 114.8 56.66 87.18 56.48 87.18 56.11"/><polygon class="cls-60" points="87.18 55.73 114.8 55.9 114.8 56.28 87.18 56.11 87.18 55.73"/><polygon class="cls-61" points="87.18 55.35 114.8 55.52 114.8 55.9 87.18 55.73 87.18 55.35"/><polygon class="cls-62" points="87.18 54.98 114.8 55.15 114.8 55.52 87.18 55.35 87.18 54.98"/><polygon class="cls-63" points="87.18 54.6 114.8 54.77 114.8 55.15 87.18 54.98 87.18 54.6"/><polygon class="cls-64" points="87.18 54.22 114.8 54.39 114.8 54.77 87.18 54.6 87.18 54.22"/><polygon class="cls-65" points="87.18 53.84 114.8 54.02 114.8 54.39 87.18 54.22 87.18 53.84"/><polygon class="cls-66" points="87.18 53.47 114.8 53.64 114.8 54.02 87.18 53.84 87.18 53.47"/><polygon class="cls-67" points="87.18 53.09 114.8 53.26 114.8 53.64 87.18 53.47 87.18 53.09"/><polygon class="cls-68" points="87.18 52.71 114.8 52.88 114.8 53.26 87.18 53.09 87.18 52.71"/><polygon class="cls-69" points="87.18 52.33 114.8 52.51 114.8 52.88 87.18 52.71 87.18 52.33"/><polygon class="cls-70" points="87.18 51.96 114.8 52.13 114.8 52.51 87.18 52.33 87.18 51.96"/><polygon class="cls-71" points="87.18 51.58 114.8 51.75 114.8 52.13 87.18 51.96 87.18 51.58"/><polygon class="cls-72" points="87.18 51.2 114.8 51.37 114.8 51.75 87.18 51.58 87.18 51.2"/><polygon class="cls-73" points="87.18 50.83 114.8 51 114.8 51.37 87.18 51.2 87.18 50.83"/><polygon class="cls-74" points="87.18 50.45 114.8 50.62 114.8 51 87.18 50.83 87.18 50.45"/><polygon class="cls-75" points="87.18 50.07 114.8 50.24 114.8 50.62 87.18 50.45 87.18 50.07"/><polygon class="cls-76" points="87.18 49.69 114.8 49.87 114.8 50.24 87.18 50.07 87.18 49.69"/><polygon class="cls-77" points="87.18 49.32 114.8 49.49 114.8 49.87 87.18 49.69 87.18 49.32"/><polygon class="cls-78" points="87.18 48.94 114.8 49.11 114.8 49.49 87.18 49.32 87.18 48.94"/><polygon class="cls-79" points="87.18 48.56 114.8 48.73 114.8 49.11 87.18 48.94 87.18 48.56"/><polygon class="cls-80" points="87.18 48.19 114.8 48.36 114.8 48.73 87.18 48.56 87.18 48.19"/><polygon class="cls-81" points="87.18 47.81 114.8 47.98 114.8 48.36 87.18 48.19 87.18 47.81"/><polygon class="cls-82" points="87.18 47.43 114.8 47.6 114.8 47.98 87.18 47.81 87.18 47.43"/><polygon class="cls-83" points="87.18 47.05 114.8 47.22 114.8 47.6 87.18 47.43 87.18 47.05"/><polygon class="cls-11" points="87.18 46.68 114.8 46.85 114.8 47.22 87.18 47.05 87.18 46.68"/><polygon class="cls-12" points="87.18 46.3 114.8 46.47 114.8 46.85 87.18 46.68 87.18 46.3"/><polygon class="cls-13" points="87.18 45.92 114.8 46.09 114.8 46.47 87.18 46.3 87.18 45.92"/><polygon class="cls-14" points="87.18 45.54 114.8 45.72 114.8 46.09 87.18 45.92 87.18 45.54"/><polygon class="cls-15" points="87.18 45.17 114.8 45.34 114.8 45.72 87.18 45.54 87.18 45.17"/><polygon class="cls-16" points="87.18 44.79 114.8 44.96 114.8 45.34 87.18 45.17 87.18 44.79"/><polygon class="cls-17" points="87.18 44.41 114.8 44.58 114.8 44.96 87.18 44.79 87.18 44.41"/><polygon class="cls-18" points="87.18 44.03 114.8 44.21 114.8 44.58 87.18 44.41 87.18 44.03"/><polygon class="cls-19" points="87.18 43.66 114.8 43.83 114.8 44.21 87.18 44.03 87.18 43.66"/><polygon class="cls-20" points="87.18 43.28 114.8 43.45 114.8 43.83 87.18 43.66 87.18 43.28"/><polygon class="cls-21" points="87.18 42.9 114.8 43.07 114.8 43.45 87.18 43.28 87.18 42.9"/><polygon class="cls-22" points="87.18 42.53 114.8 42.7 114.8 43.07 87.18 42.9 87.18 42.53"/><polygon class="cls-23" points="87.18 42.15 114.8 42.32 114.8 42.7 87.18 42.53 87.18 42.15"/><polygon class="cls-24" points="87.18 41.77 114.8 41.94 114.8 42.32 87.18 42.15 87.18 41.77"/><polygon class="cls-24" points="87.18 41.39 114.8 41.56 114.8 41.94 87.18 41.77 87.18 41.39"/><polygon class="cls-25" points="87.18 41.02 114.8 41.19 114.8 41.56 87.18 41.39 87.18 41.02"/><polygon class="cls-26" points="87.18 40.64 114.8 40.81 114.8 41.19 87.18 41.02 87.18 40.64"/><polygon class="cls-27" points="87.18 40.26 114.8 40.43 114.8 40.81 87.18 40.64 87.18 40.26"/><polygon class="cls-28" points="87.18 39.88 114.8 40.06 114.8 40.43 87.18 40.26 87.18 39.88"/><polygon class="cls-28" points="87.18 39.51 114.8 39.68 114.8 40.06 87.18 39.88 87.18 39.51"/><polygon class="cls-29" points="87.18 39.13 114.8 39.3 114.8 39.68 87.18 39.51 87.18 39.13"/><polygon class="cls-30" points="87.18 38.75 114.8 38.92 114.8 39.3 87.18 39.13 87.18 38.75"/><polygon class="cls-31" points="87.18 38.38 114.8 38.55 114.8 38.92 87.18 38.75 87.18 38.38"/><polygon class="cls-32" points="87.18 38 114.8 38.17 114.8 38.55 87.18 38.38 87.18 38"/><polygon class="cls-33" points="87.18 37.62 114.8 37.79 114.8 38.17 87.18 38 87.18 37.62"/><polygon class="cls-34" points="87.18 37.24 114.8 37.42 114.8 37.79 87.18 37.62 87.18 37.24"/><polygon class="cls-34" points="87.18 36.87 114.8 37.04 114.8 37.42 87.18 37.24 87.18 36.87"/><polygon class="cls-35" points="87.18 36.49 114.8 36.66 114.8 37.04 87.18 36.87 87.18 36.49"/><polygon class="cls-36" points="87.18 36.11 114.8 36.28 114.8 36.66 87.18 36.49 87.18 36.11"/><polygon class="cls-36" points="87.18 35.73 114.8 35.91 114.8 36.28 87.18 36.11 87.18 35.73"/><polygon class="cls-37" points="87.18 35.36 114.8 35.53 114.8 35.91 87.18 35.73 87.18 35.36"/><polygon class="cls-38" points="87.18 34.98 114.8 35.15 114.8 35.53 87.18 35.36 87.18 34.98"/><polygon class="cls-84" points="87.18 34.6 114.8 34.77 114.8 35.15 87.18 34.98 87.18 34.6"/><polygon class="cls-84" points="87.18 34.23 114.8 34.4 114.8 34.77 87.18 34.6 87.18 34.23"/><polygon class="cls-85" points="87.18 33.85 114.8 34.02 114.8 34.4 87.18 34.23 87.18 33.85"/><polygon class="cls-86" points="87.18 33.47 114.8 33.64 114.8 34.02 87.18 33.85 87.18 33.47"/><polygon class="cls-86" points="87.18 33.09 114.8 33.27 114.8 33.64 87.18 33.47 87.18 33.09"/><polygon class="cls-87" points="87.18 32.72 114.8 32.89 114.8 33.27 87.18 33.09 87.18 32.72"/><polygon class="cls-87" points="87.18 32.34 114.8 32.51 114.8 32.89 87.18 32.72 87.18 32.34"/><polygon class="cls-87" points="102.47 32.06 114.8 32.13 114.8 32.51 87.18 32.34 87.18 32.06 102.47 32.06"/><polygon class="cls-87" points="114.8 32.13 102.47 32.06 114.8 32.06 114.8 32.13"/></g><g class="cls-88"><polygon class="cls-56" points="117.41 46.74 126.13 46.79 126.13 46.91 117.41 46.91 117.41 46.74"/><polygon class="cls-57" points="117.41 46.52 126.13 46.57 126.13 46.79 117.41 46.74 117.41 46.52"/><polygon class="cls-58" points="117.41 46.3 126.13 46.36 126.13 46.57 117.41 46.52 117.41 46.3"/><polygon class="cls-59" points="117.41 46.08 126.13 46.14 126.13 46.36 117.41 46.3 117.41 46.08"/><polygon class="cls-60" points="117.41 45.87 126.13 45.92 126.13 46.14 117.41 46.08 117.41 45.87"/><polygon class="cls-61" points="117.41 45.65 126.13 45.7 126.13 45.92 117.41 45.87 117.41 45.65"/><polygon class="cls-62" points="117.41 45.43 126.13 45.48 126.13 45.7 117.41 45.65 117.41 45.43"/><polygon class="cls-63" points="117.41 45.21 126.13 45.27 126.13 45.48 117.41 45.43 117.41 45.21"/><polygon class="cls-64" points="117.41 44.99 126.13 45.05 126.13 45.27 117.41 45.21 117.41 44.99"/><polygon class="cls-65" points="117.41 44.78 126.13 44.83 126.13 45.05 117.41 44.99 117.41 44.78"/><polygon class="cls-66" points="117.41 44.56 126.13 44.61 126.13 44.83 117.41 44.78 117.41 44.56"/><polygon class="cls-67" points="117.41 44.34 126.13 44.4 126.13 44.61 117.41 44.56 117.41 44.34"/><polygon class="cls-68" points="117.41 44.12 126.13 44.18 126.13 44.4 117.41 44.34 117.41 44.12"/><polygon class="cls-69" points="117.41 43.91 126.13 43.96 126.13 44.18 117.41 44.12 117.41 43.91"/><polygon class="cls-70" points="117.41 43.69 126.13 43.74 126.13 43.96 117.41 43.91 117.41 43.69"/><polygon class="cls-71" points="117.41 43.47 126.13 43.52 126.13 43.74 117.41 43.69 117.41 43.47"/><polygon class="cls-72" points="117.41 43.25 126.13 43.31 126.13 43.52 117.41 43.47 117.41 43.25"/><polygon class="cls-73" points="117.41 43.03 126.13 43.09 126.13 43.31 117.41 43.25 117.41 43.03"/><polygon class="cls-74" points="117.41 42.82 126.13 42.87 126.13 43.09 117.41 43.03 117.41 42.82"/><polygon class="cls-75" points="117.41 42.6 126.13 42.65 126.13 42.87 117.41 42.82 117.41 42.6"/><polygon class="cls-76" points="117.41 42.38 126.13 42.44 126.13 42.65 117.41 42.6 117.41 42.38"/><polygon class="cls-77" points="117.41 42.16 126.13 42.22 126.13 42.44 117.41 42.38 117.41 42.16"/><polygon class="cls-78" points="117.41 41.95 126.13 42 126.13 42.22 117.41 42.16 117.41 41.95"/><polygon class="cls-79" points="117.41 41.73 126.13 41.78 126.13 42 117.41 41.95 117.41 41.73"/><polygon class="cls-80" points="117.41 41.51 126.13 41.56 126.13 41.78 117.41 41.73 117.41 41.51"/><polygon class="cls-81" points="117.41 41.29 126.13 41.35 126.13 41.56 117.41 41.51 117.41 41.29"/><polygon class="cls-82" points="117.41 41.08 126.13 41.13 126.13 41.35 117.41 41.29 117.41 41.08"/><polygon class="cls-83" points="117.41 40.86 126.13 40.91 126.13 41.13 117.41 41.08 117.41 40.86"/><polygon class="cls-11" points="117.41 40.64 126.13 40.69 126.13 40.91 117.41 40.86 117.41 40.64"/><polygon class="cls-12" points="117.41 40.42 126.13 40.48 126.13 40.69 117.41 40.64 117.41 40.42"/><polygon class="cls-13" points="117.41 40.2 126.13 40.26 126.13 40.48 117.41 40.42 117.41 40.2"/><polygon class="cls-14" points="117.41 39.99 126.13 40.04 126.13 40.26 117.41 40.2 117.41 39.99"/><polygon class="cls-15" points="117.41 39.77 126.13 39.82 126.13 40.04 117.41 39.99 117.41 39.77"/><polygon class="cls-16" points="117.41 39.55 126.13 39.61 126.13 39.82 117.41 39.77 117.41 39.55"/><polygon class="cls-17" points="117.41 39.33 126.13 39.39 126.13 39.61 117.41 39.55 117.41 39.33"/><polygon class="cls-18" points="117.41 39.12 126.13 39.17 126.13 39.39 117.41 39.33 117.41 39.12"/><polygon class="cls-19" points="117.41 38.9 126.13 38.95 126.13 39.17 117.41 39.12 117.41 38.9"/><polygon class="cls-20" points="117.41 38.68 126.13 38.73 126.13 38.95 117.41 38.9 117.41 38.68"/><polygon class="cls-21" points="117.41 38.46 126.13 38.52 126.13 38.73 117.41 38.68 117.41 38.46"/><polygon class="cls-22" points="117.41 38.24 126.13 38.3 126.13 38.52 117.41 38.46 117.41 38.24"/><polygon class="cls-23" points="117.41 38.03 126.13 38.08 126.13 38.3 117.41 38.24 117.41 38.03"/><polygon class="cls-24" points="117.41 37.81 126.13 37.86 126.13 38.08 117.41 38.03 117.41 37.81"/><polygon class="cls-24" points="117.41 37.59 126.13 37.65 126.13 37.86 117.41 37.81 117.41 37.59"/><polygon class="cls-25" points="117.41 37.37 126.13 37.43 126.13 37.65 117.41 37.59 117.41 37.37"/><polygon class="cls-26" points="117.41 37.16 126.13 37.21 126.13 37.43 117.41 37.37 117.41 37.16"/><polygon class="cls-27" points="117.41 36.94 126.13 36.99 126.13 37.21 117.41 37.16 117.41 36.94"/><polygon class="cls-28" points="117.41 36.72 126.13 36.77 126.13 36.99 117.41 36.94 117.41 36.72"/><polygon class="cls-28" points="117.41 36.5 126.13 36.56 126.13 36.77 117.41 36.72 117.41 36.5"/><polygon class="cls-29" points="117.41 36.28 126.13 36.34 126.13 36.56 117.41 36.5 117.41 36.28"/><polygon class="cls-30" points="117.41 36.07 126.13 36.12 126.13 36.34 117.41 36.28 117.41 36.07"/><polygon class="cls-31" points="117.41 35.85 126.13 35.9 126.13 36.12 117.41 36.07 117.41 35.85"/><polygon class="cls-32" points="117.41 35.63 126.13 35.69 126.13 35.9 117.41 35.85 117.41 35.63"/><polygon class="cls-33" points="117.41 35.41 126.13 35.47 126.13 35.69 117.41 35.63 117.41 35.41"/><polygon class="cls-34" points="126.13 35.47 117.41 35.41 117.41 35.4 126.13 35.4 126.13 35.47"/><polygon class="cls-39" points="112 50.62 122.03 50.69 112 50.69 112 50.62"/><polygon class="cls-39" points="112 50.41 133.93 50.54 133.93 50.69 122.03 50.69 112 50.62 112 50.41"/><polygon class="cls-40" points="112 50.19 133.93 50.32 133.93 50.54 112 50.41 112 50.19"/><polygon class="cls-41" points="112 49.97 133.93 50.11 133.93 50.32 112 50.19 112 49.97"/><polygon class="cls-42" points="112 49.75 133.93 49.89 133.93 50.11 112 49.97 112 49.75"/><polygon class="cls-43" points="112 49.53 133.93 49.67 133.93 49.89 112 49.75 112 49.53"/><polygon class="cls-44" points="112 49.32 133.93 49.45 133.93 49.67 112 49.53 112 49.32"/><polygon class="cls-45" points="112 49.1 133.93 49.23 133.93 49.45 112 49.32 112 49.1"/><polygon class="cls-46" points="112 48.88 133.93 49.02 133.93 49.23 112 49.1 112 48.88"/><polygon class="cls-47" points="112 48.66 133.93 48.8 133.93 49.02 112 48.88 112 48.66"/><polygon class="cls-48" points="112 48.45 133.93 48.58 133.93 48.8 112 48.66 112 48.45"/><polygon class="cls-49" points="112 48.23 133.93 48.36 133.93 48.58 112 48.45 112 48.23"/><polygon class="cls-50" points="112 48.01 133.93 48.15 133.93 48.36 112 48.23 112 48.01"/><polygon class="cls-51" points="112 47.79 133.93 47.93 133.93 48.15 112 48.01 112 47.79"/><polygon class="cls-52" points="112 47.58 133.93 47.71 133.93 47.93 112 47.79 112 47.58"/><polygon class="cls-53" points="112 47.36 133.93 47.49 133.93 47.71 112 47.58 112 47.36"/><polygon class="cls-54" points="112 47.14 133.93 47.27 133.93 47.49 112 47.36 112 47.14"/><polygon class="cls-55" points="112 46.92 133.93 47.06 133.93 47.27 112 47.14 112 46.92"/><polygon class="cls-56" points="112 46.7 133.93 46.84 133.93 47.06 112 46.92 112 46.7"/><polygon class="cls-57" points="112 46.49 133.93 46.62 133.93 46.84 112 46.7 112 46.49"/><polygon class="cls-58" points="112 46.27 133.93 46.4 133.93 46.62 112 46.49 112 46.27"/><polygon class="cls-59" points="112 46.05 133.93 46.19 133.93 46.4 112 46.27 112 46.05"/><polygon class="cls-60" points="112 45.83 133.93 45.97 133.93 46.19 112 46.05 112 45.83"/><polygon class="cls-61" points="112 45.62 133.93 45.75 133.93 45.97 112 45.83 112 45.62"/><polygon class="cls-62" points="112 45.4 133.93 45.53 133.93 45.75 112 45.62 112 45.4"/><polygon class="cls-63" points="112 45.18 133.93 45.31 133.93 45.53 112 45.4 112 45.18"/><polygon class="cls-64" points="112 44.96 133.93 45.1 133.93 45.31 112 45.18 112 44.96"/><polygon class="cls-65" points="112 44.74 133.93 44.88 133.93 45.1 112 44.96 112 44.74"/><polygon class="cls-66" points="112 44.53 133.93 44.66 133.93 44.88 112 44.74 112 44.53"/><polygon class="cls-67" points="112 44.31 133.93 44.44 133.93 44.66 112 44.53 112 44.31"/><polygon class="cls-68" points="112 44.09 133.93 44.23 133.93 44.44 112 44.31 112 44.09"/><polygon class="cls-69" points="112 43.87 133.93 44.01 133.93 44.23 112 44.09 112 43.87"/><polygon class="cls-70" points="112 43.66 133.93 43.79 133.93 44.01 112 43.87 112 43.66"/><polygon class="cls-71" points="112 43.44 133.93 43.57 133.93 43.79 112 43.66 112 43.44"/><polygon class="cls-72" points="112 43.22 133.93 43.36 133.93 43.57 112 43.44 112 43.22"/><polygon class="cls-73" points="112 43 133.93 43.14 133.93 43.36 112 43.22 112 43"/><polygon class="cls-74" points="112 42.78 133.93 42.92 133.93 43.14 112 43 112 42.78"/><polygon class="cls-75" points="112 42.57 133.93 42.7 133.93 42.92 112 42.78 112 42.57"/><polygon class="cls-76" points="112 42.35 133.93 42.48 133.93 42.7 112 42.57 112 42.35"/><polygon class="cls-77" points="112 42.13 133.93 42.27 133.93 42.48 112 42.35 112 42.13"/><polygon class="cls-78" points="112 41.91 133.93 42.05 133.93 42.27 112 42.13 112 41.91"/><polygon class="cls-79" points="112 41.7 133.93 41.83 133.93 42.05 112 41.91 112 41.7"/><polygon class="cls-80" points="112 41.48 133.93 41.61 133.93 41.83 112 41.7 112 41.48"/><polygon class="cls-81" points="112 41.26 133.93 41.4 133.93 41.61 112 41.48 112 41.26"/><polygon class="cls-82" points="112 41.04 133.93 41.18 133.93 41.4 112 41.26 112 41.04"/><polygon class="cls-83" points="112 40.82 133.93 40.96 133.93 41.18 112 41.04 112 40.82"/><polygon class="cls-11" points="112 40.61 133.93 40.74 133.93 40.96 112 40.82 112 40.61"/><polygon class="cls-12" points="112 40.39 133.93 40.52 133.93 40.74 112 40.61 112 40.39"/><polygon class="cls-13" points="112 40.17 133.93 40.31 133.93 40.52 112 40.39 112 40.17"/><polygon class="cls-14" points="112 39.95 133.93 40.09 133.93 40.31 112 40.17 112 39.95"/><polygon class="cls-15" points="112 39.74 133.93 39.87 133.93 40.09 112 39.95 112 39.74"/><polygon class="cls-16" points="112 39.52 133.93 39.65 133.93 39.87 112 39.74 112 39.52"/><polygon class="cls-17" points="112 39.3 133.93 39.44 133.93 39.65 112 39.52 112 39.3"/><polygon class="cls-18" points="112 39.08 133.93 39.22 133.93 39.44 112 39.3 112 39.08"/><polygon class="cls-19" points="112 38.87 133.93 39 133.93 39.22 112 39.08 112 38.87"/><polygon class="cls-20" points="112 38.65 133.93 38.78 133.93 39 112 38.87 112 38.65"/><polygon class="cls-21" points="112 38.43 133.93 38.56 133.93 38.78 112 38.65 112 38.43"/><polygon class="cls-22" points="112 38.21 133.93 38.35 133.93 38.56 112 38.43 112 38.21"/><polygon class="cls-23" points="112 37.99 133.93 38.13 133.93 38.35 112 38.21 112 37.99"/><polygon class="cls-24" points="112 37.78 133.93 37.91 133.93 38.13 112 37.99 112 37.78"/><polygon class="cls-24" points="112 37.56 133.93 37.69 133.93 37.91 112 37.78 112 37.56"/><polygon class="cls-25" points="112 37.34 133.93 37.48 133.93 37.69 112 37.56 112 37.34"/><polygon class="cls-26" points="112 37.12 133.93 37.26 133.93 37.48 112 37.34 112 37.12"/><polygon class="cls-27" points="112 36.91 133.93 37.04 133.93 37.26 112 37.12 112 36.91"/><polygon class="cls-28" points="112 36.69 133.93 36.82 133.93 37.04 112 36.91 112 36.69"/><polygon class="cls-28" points="112 36.47 133.93 36.61 133.93 36.82 112 36.69 112 36.47"/><polygon class="cls-29" points="112 36.25 133.93 36.39 133.93 36.61 112 36.47 112 36.25"/><polygon class="cls-30" points="112 36.03 133.93 36.17 133.93 36.39 112 36.25 112 36.03"/><polygon class="cls-31" points="112 35.82 133.93 35.95 133.93 36.17 112 36.03 112 35.82"/><polygon class="cls-32" points="112 35.6 133.93 35.73 133.93 35.95 112 35.82 112 35.6"/><polygon class="cls-33" points="112 35.38 133.93 35.52 133.93 35.73 112 35.6 112 35.38"/><polygon class="cls-34" points="112 35.16 133.93 35.3 133.93 35.52 112 35.38 112 35.16"/><polygon class="cls-34" points="112 34.95 133.93 35.08 133.93 35.3 112 35.16 112 34.95"/><polygon class="cls-35" points="112 34.73 133.93 34.86 133.93 35.08 112 34.95 112 34.73"/><polygon class="cls-36" points="112 34.51 133.93 34.65 133.93 34.86 112 34.73 112 34.51"/><polygon class="cls-36" points="112 34.29 133.93 34.43 133.93 34.65 112 34.51 112 34.29"/><polygon class="cls-37" points="112 34.07 133.93 34.21 133.93 34.43 112 34.29 112 34.07"/><polygon class="cls-38" points="112 33.86 133.93 33.99 133.93 34.21 112 34.07 112 33.86"/><polygon class="cls-84" points="112 33.64 133.93 33.77 133.93 33.99 112 33.86 112 33.64"/><polygon class="cls-84" points="112 33.42 133.93 33.56 133.93 33.77 112 33.64 112 33.42"/><polygon class="cls-85" points="112 33.2 133.93 33.34 133.93 33.56 112 33.42 112 33.2"/><polygon class="cls-86" points="112 32.99 133.93 33.12 133.93 33.34 112 33.2 112 32.99"/><polygon class="cls-86" points="112 32.77 133.93 32.9 133.93 33.12 112 32.99 112 32.77"/><polygon class="cls-87" points="112 32.55 133.93 32.69 133.93 32.9 112 32.77 112 32.55"/><polygon class="cls-87" points="112 32.33 133.93 32.47 133.93 32.69 112 32.55 112 32.33"/><polygon class="cls-87" points="121.95 32.18 133.93 32.25 133.93 32.47 112 32.33 112 32.18 121.95 32.18"/><polygon class="cls-87" points="133.93 32.25 121.95 32.18 133.93 32.18 133.93 32.25"/></g><g class="cls-89"><polygon class="cls-39" points="130.87 50.81 135.98 50.84 130.87 50.84 130.87 50.81"/><polygon class="cls-39" points="130.87 50.46 147.66 50.57 147.66 50.84 135.98 50.84 130.87 50.81 130.87 50.46"/><polygon class="cls-40" points="130.87 50.12 147.66 50.22 147.66 50.57 130.87 50.46 130.87 50.12"/><polygon class="cls-41" points="130.87 49.77 147.66 49.88 147.66 50.22 130.87 50.12 130.87 49.77"/><polygon class="cls-42" points="130.87 49.42 147.66 49.53 147.66 49.88 130.87 49.77 130.87 49.42"/><polygon class="cls-43" points="130.87 49.08 147.66 49.18 147.66 49.53 130.87 49.42 130.87 49.08"/><polygon class="cls-44" points="130.87 48.73 147.66 48.84 147.66 49.18 130.87 49.08 130.87 48.73"/><polygon class="cls-45" points="130.87 48.39 147.66 48.49 147.66 48.84 130.87 48.73 130.87 48.39"/><polygon class="cls-46" points="130.87 48.04 147.66 48.15 147.66 48.49 130.87 48.39 130.87 48.04"/><polygon class="cls-47" points="130.87 47.7 147.66 47.8 147.66 48.15 130.87 48.04 130.87 47.7"/><polygon class="cls-48" points="130.87 47.35 147.66 47.45 147.66 47.8 130.87 47.7 130.87 47.35"/><polygon class="cls-49" points="130.87 47 147.66 47.11 147.66 47.45 130.87 47.35 130.87 47"/><polygon class="cls-50" points="130.87 46.66 147.66 46.76 147.66 47.11 130.87 47 130.87 46.66"/><polygon class="cls-51" points="130.87 46.31 147.66 46.41 147.66 46.76 130.87 46.66 130.87 46.31"/><polygon class="cls-52" points="130.87 45.97 147.66 46.07 147.66 46.41 130.87 46.31 130.87 45.97"/><polygon class="cls-53" points="130.87 45.62 147.66 45.72 147.66 46.07 130.87 45.97 130.87 45.62"/><polygon class="cls-54" points="130.87 45.27 147.66 45.38 147.66 45.72 130.87 45.62 130.87 45.27"/><polygon class="cls-55" points="130.87 44.93 147.66 45.03 147.66 45.38 130.87 45.27 130.87 44.93"/><polygon class="cls-56" points="130.87 44.58 147.66 44.69 147.66 45.03 130.87 44.93 130.87 44.58"/><polygon class="cls-57" points="130.87 44.23 147.66 44.34 147.66 44.69 130.87 44.58 130.87 44.23"/><polygon class="cls-58" points="130.87 43.89 147.66 43.99 147.66 44.34 130.87 44.23 130.87 43.89"/><polygon class="cls-59" points="130.87 43.54 147.66 43.65 147.66 43.99 130.87 43.89 130.87 43.54"/><polygon class="cls-60" points="130.87 43.2 147.66 43.3 147.66 43.65 130.87 43.54 130.87 43.2"/><polygon class="cls-61" points="130.87 42.85 147.66 42.96 147.66 43.3 130.87 43.2 130.87 42.85"/><polygon class="cls-62" points="130.87 42.51 147.66 42.61 147.66 42.96 130.87 42.85 130.87 42.51"/><polygon class="cls-63" points="130.87 42.16 147.66 42.26 147.66 42.61 130.87 42.51 130.87 42.16"/><polygon class="cls-64" points="130.87 41.81 147.66 41.92 147.66 42.26 130.87 42.16 130.87 41.81"/><polygon class="cls-65" points="130.87 41.47 147.66 41.57 147.66 41.92 130.87 41.81 130.87 41.47"/><polygon class="cls-66" points="130.87 41.12 147.66 41.23 147.66 41.57 130.87 41.47 130.87 41.12"/><polygon class="cls-67" points="130.87 40.78 147.66 40.88 147.66 41.23 130.87 41.12 130.87 40.78"/><polygon class="cls-68" points="130.87 40.43 147.66 40.53 147.66 40.88 130.87 40.78 130.87 40.43"/><polygon class="cls-69" points="130.87 40.08 147.66 40.19 147.66 40.53 130.87 40.43 130.87 40.08"/><polygon class="cls-70" points="130.87 39.74 147.66 39.84 147.66 40.19 130.87 40.08 130.87 39.74"/><polygon class="cls-71" points="130.87 39.39 147.66 39.5 147.66 39.84 130.87 39.74 130.87 39.39"/><polygon class="cls-72" points="130.87 39.05 147.66 39.15 147.66 39.5 130.87 39.39 130.87 39.05"/><polygon class="cls-73" points="130.87 38.7 147.66 38.8 147.66 39.15 130.87 39.05 130.87 38.7"/><polygon class="cls-74" points="130.87 38.35 147.66 38.46 147.66 38.8 130.87 38.7 130.87 38.35"/><polygon class="cls-75" points="130.87 38.01 147.66 38.11 147.66 38.46 130.87 38.35 130.87 38.01"/><polygon class="cls-76" points="130.87 37.66 147.66 37.77 147.66 38.11 130.87 38.01 130.87 37.66"/><polygon class="cls-77" points="130.87 37.32 147.66 37.42 147.66 37.77 130.87 37.66 130.87 37.32"/><polygon class="cls-78" points="130.87 36.97 147.66 37.08 147.66 37.42 130.87 37.32 130.87 36.97"/><polygon class="cls-79" points="130.87 36.63 147.66 36.73 147.66 37.08 130.87 36.97 130.87 36.63"/><polygon class="cls-80" points="130.87 36.28 147.66 36.38 147.66 36.73 130.87 36.63 130.87 36.28"/><polygon class="cls-81" points="130.87 35.93 147.66 36.04 147.66 36.38 130.87 36.28 130.87 35.93"/><polygon class="cls-82" points="130.87 35.59 147.66 35.69 147.66 36.04 130.87 35.93 130.87 35.59"/><polygon class="cls-83" points="130.87 35.24 147.66 35.34 147.66 35.69 130.87 35.59 130.87 35.24"/><polygon class="cls-11" points="130.87 34.9 147.66 35 147.66 35.34 130.87 35.24 130.87 34.9"/><polygon class="cls-12" points="130.87 34.55 147.66 34.65 147.66 35 130.87 34.9 130.87 34.55"/><polygon class="cls-13" points="130.87 34.2 147.66 34.31 147.66 34.65 130.87 34.55 130.87 34.2"/><polygon class="cls-14" points="130.87 33.86 147.66 33.96 147.66 34.31 130.87 34.2 130.87 33.86"/><polygon class="cls-15" points="130.87 33.51 147.66 33.62 147.66 33.96 130.87 33.86 130.87 33.51"/><polygon class="cls-16" points="130.87 33.16 147.66 33.27 147.66 33.62 130.87 33.51 130.87 33.16"/><polygon class="cls-17" points="130.87 32.82 147.66 32.92 147.66 33.27 130.87 33.16 130.87 32.82"/><polygon class="cls-18" points="130.87 32.47 147.66 32.58 147.66 32.92 130.87 32.82 130.87 32.47"/><polygon class="cls-19" points="130.87 32.13 147.66 32.23 147.66 32.58 130.87 32.47 130.87 32.13"/><polygon class="cls-20" points="130.87 31.78 147.66 31.89 147.66 32.23 130.87 32.13 130.87 31.78"/><polygon class="cls-21" points="130.87 31.43 147.66 31.54 147.66 31.89 130.87 31.78 130.87 31.43"/><polygon class="cls-22" points="130.87 31.09 147.66 31.19 147.66 31.54 130.87 31.43 130.87 31.09"/><polygon class="cls-23" points="130.87 30.74 147.66 30.85 147.66 31.19 130.87 31.09 130.87 30.74"/><polygon class="cls-24" points="130.87 30.4 147.66 30.5 147.66 30.85 130.87 30.74 130.87 30.4"/><polygon class="cls-24" points="130.87 30.05 147.66 30.16 147.66 30.5 130.87 30.4 130.87 30.05"/><polygon class="cls-25" points="130.87 29.71 147.66 29.81 147.66 30.16 130.87 30.05 130.87 29.71"/><polygon class="cls-26" points="130.87 29.36 147.66 29.46 147.66 29.81 130.87 29.71 130.87 29.36"/><polygon class="cls-27" points="130.87 29.01 147.66 29.12 147.66 29.46 130.87 29.36 130.87 29.01"/><polygon class="cls-28" points="130.87 28.67 147.66 28.77 147.66 29.12 130.87 29.01 130.87 28.67"/><polygon class="cls-28" points="130.87 28.32 147.66 28.43 147.66 28.77 130.87 28.67 130.87 28.32"/><polygon class="cls-29" points="130.87 27.98 147.66 28.08 147.66 28.43 130.87 28.32 130.87 27.98"/><polygon class="cls-30" points="130.87 27.63 147.66 27.73 147.66 28.08 130.87 27.98 130.87 27.63"/><polygon class="cls-31" points="130.87 27.28 147.66 27.39 147.66 27.73 130.87 27.63 130.87 27.28"/><polygon class="cls-32" points="130.87 26.94 147.66 27.04 147.66 27.39 130.87 27.28 130.87 26.94"/><polygon class="cls-33" points="130.87 26.59 147.66 26.7 147.66 27.04 130.87 26.94 130.87 26.59"/><polygon class="cls-34" points="130.87 26.25 147.66 26.35 147.66 26.7 130.87 26.59 130.87 26.25"/><polygon class="cls-34" points="130.87 25.9 147.66 26 147.66 26.35 130.87 26.25 130.87 25.9"/><polygon class="cls-35" points="130.87 25.55 147.66 25.66 147.66 26 130.87 25.9 130.87 25.55"/><polygon class="cls-36" points="130.87 25.21 147.66 25.31 147.66 25.66 130.87 25.55 130.87 25.21"/><polygon class="cls-36" points="130.87 24.86 147.66 24.97 147.66 25.31 130.87 25.21 130.87 24.86"/><polygon class="cls-37" points="130.87 24.52 147.66 24.62 147.66 24.97 130.87 24.86 130.87 24.52"/><polygon class="cls-38" points="130.87 24.17 147.66 24.27 147.66 24.62 130.87 24.52 130.87 24.17"/><polygon class="cls-84" points="130.87 23.82 147.66 23.93 147.66 24.27 130.87 24.17 130.87 23.82"/><polygon class="cls-84" points="130.87 23.48 147.66 23.58 147.66 23.93 130.87 23.82 130.87 23.48"/><polygon class="cls-85" points="130.87 23.13 147.66 23.24 147.66 23.58 130.87 23.48 130.87 23.13"/><polygon class="cls-86" points="130.87 22.79 147.66 22.89 147.66 23.24 130.87 23.13 130.87 22.79"/><polygon class="cls-86" points="130.87 22.44 147.66 22.55 147.66 22.89 130.87 22.79 130.87 22.44"/><polygon class="cls-87" points="130.87 22.09 147.66 22.2 147.66 22.55 130.87 22.44 130.87 22.09"/><polygon class="cls-87" points="130.87 21.75 147.66 21.85 147.66 22.2 130.87 22.09 130.87 21.75"/><polygon class="cls-87" points="147.42 21.51 147.66 21.51 147.66 21.85 130.87 21.75 130.87 21.51 147.42 21.51"/><polygon class="cls-87" points="147.66 21.51 147.42 21.51 147.66 21.51 147.66 21.51"/></g><circle class="cls-2" cx="111.91" cy="20.3" r="3.02"/><path class="cls-6" d="M111.91,22.79a2.43,2.43,0,1,1,2.43-2.43A2.43,2.43,0,0,1,111.91,22.79Zm0-4.49A2.06,2.06,0,1,0,114,20.36,2.06,2.06,0,0,0,111.91,18.3Z"/><path class="cls-6" d="M110.83,19.09H112a1.27,1.27,0,0,1,.49.08.58.58,0,0,1,.37.58.61.61,0,0,1-.1.36.67.67,0,0,1-.28.23.55.55,0,0,1,.23.15.52.52,0,0,1,.09.31v.33a1,1,0,0,0,0,.21.21.21,0,0,0,.12.15v.06h-.44a.34.34,0,0,1,0-.08,1.59,1.59,0,0,1,0-.19l0-.41a.35.35,0,0,0-.19-.32.8.8,0,0,0-.31,0h-.79v1.06h-.36ZM112,20.22a.71.71,0,0,0,.39-.09.38.38,0,0,0,.14-.34.36.36,0,0,0-.2-.36.68.68,0,0,0-.29-.05h-.85v.84Z"/></g></g></svg>