<svg xmlns="http://www.w3.org/2000/svg" viewBox="0 0 114.28 122.05"><defs><style>.cls-1{fill:#fff;}.cls-2{fill:#3a0094;}.cls-3{fill:#c9002c;}.cls-4{fill:none;stroke:#3a0094;stroke-miterlimit:10;stroke-width:0.5px;}</style></defs><title>logo-retro-color</title><g id="Capa_2" data-name="Capa 2"><g id="Capa_1-2" data-name="Capa 1"><path class="cls-1" d="M52.42,71h0a1.77,1.77,0,0,1-1.11-.45c-.15-.12-23.25-21.86-28-34.34-1.88-5-2.9-14.95,5.23-20.28a16.29,16.29,0,0,1,9-2.81,18.26,18.26,0,0,1,9.5,2.86A25.35,25.35,0,0,1,63.72,5.31a28.75,28.75,0,0,1,5.17-.47c12.09,0,21.94,7.65,23.95,18.61,1.3,7.07,1.21,15.48-9.24,24.29C80.8,50,55.2,69.36,53.3,70.67h0A1.55,1.55,0,0,1,52.42,71ZM37.63,16.08a13.34,13.34,0,0,0-7.4,2.32C22,23.78,26,34.65,26.16,35.11c3.93,10.41,22.26,28.46,26.36,32.41,4.57-3.43,25.38-19.07,29.17-22.1,9.23-7.77,9.4-14.89,8.2-21.43-1.74-9.51-10.38-16.15-21-16.15a25.71,25.71,0,0,0-4.63.43,22.2,22.2,0,0,0-15.4,10.55,1.5,1.5,0,0,1-2.27.39A15.36,15.36,0,0,0,37.63,16.08Z"/><path class="cls-2" d="M92.8,5.17C88.38,1.47,82.17.63,76.21,2.37A21.53,21.53,0,0,1,91,7.12a19.31,19.31,0,0,1,6.79,13.31C98.86,14.6,97.23,8.87,92.8,5.17Z"/><path class="cls-1" d="M97.78,21.93H97.7a1.5,1.5,0,0,1-1.42-1.36A17.71,17.71,0,0,0,90,8.27a20,20,0,0,0-13.76-4.4A1.5,1.5,0,0,1,75.79.93,22.72,22.72,0,0,1,82.14,0,17.81,17.81,0,0,1,93.77,4c4.66,3.89,6.71,10.13,5.48,16.69A1.5,1.5,0,0,1,97.78,21.93Z"/><path class="cls-1" d="M52.42,71h0a1.77,1.77,0,0,1-1.11-.45c-.15-.12-23.25-21.86-28-34.34-1.88-5-2.9-14.95,5.23-20.28a16.29,16.29,0,0,1,9-2.81,18.26,18.26,0,0,1,9.5,2.86A25.35,25.35,0,0,1,63.72,5.31a28.75,28.75,0,0,1,5.17-.47c12.09,0,21.94,7.65,23.95,18.61,1.3,7.07,1.21,15.48-9.24,24.29C80.8,50,55.2,69.36,53.3,70.67h0A1.55,1.55,0,0,1,52.42,71ZM37.63,16.08a13.34,13.34,0,0,0-7.4,2.32C22,23.78,26,34.65,26.16,35.11c3.93,10.41,22.26,28.46,26.36,32.41,4.57-3.43,25.38-19.07,29.17-22.1,9.23-7.77,9.4-14.89,8.2-21.43-1.74-9.51-10.38-16.15-21-16.15a25.71,25.71,0,0,0-4.63.43,22.2,22.2,0,0,0-15.4,10.55,1.5,1.5,0,0,1-2.27.39A15.36,15.36,0,0,0,37.63,16.08Z"/><path class="cls-2" d="M27.08,81.11h5.07l.54,22.63H26.43V90.53l-7.53,13.2H15L11.79,90.64,7.53,103.74h-6L9.76,81.11h5l3.73,13.74Z"/><path class="cls-1" d="M32.68,105.24H26.43a1.5,1.5,0,0,1-1.5-1.5V96.19l-4.73,8.29a1.5,1.5,0,0,1-1.3.76H15a1.5,1.5,0,0,1-1.46-1.14l-1.94-8L9,104.2a1.5,1.5,0,0,1-1.43,1h-6a1.5,1.5,0,0,1-1.41-2L8.35,80.6a1.5,1.5,0,0,1,1.41-1h5a1.5,1.5,0,0,1,1.45,1.11L19,91.15,25.8,80.32a1.5,1.5,0,0,1,1.27-.7h5.07a1.5,1.5,0,0,1,1.5,1.46l.54,22.63a1.5,1.5,0,0,1-1.5,1.54Zm-4.76-3h3.22l-.47-19.63H27.91l-8.16,13a1.5,1.5,0,0,1-2.72-.4L13.6,82.61h-2.8L3.64,102.24h2.8l3.92-12.06a1.52,1.52,0,0,1,1.48-1,1.5,1.5,0,0,1,1.4,1.14l2.92,12H18l7.1-12.45a1.5,1.5,0,0,1,2.8.74Z"/><path class="cls-2" d="M50.45,101.1c-2.88,2.34-5,3.18-8.3,3.18a7.09,7.09,0,0,1-5.61-2.56A7.64,7.64,0,0,1,35,96.68a11.87,11.87,0,0,1,3-7.35,10,10,0,0,1,7-3.07c4,0,6.3,1.69,6.3,4.64,0,3.29-3.53,5.78-10.14,7.13a2.66,2.66,0,0,0,2.61,2.34c1.8,0,3.22-.62,5.57-2.45Zm-3.81-9.66A1.37,1.37,0,0,0,45.14,90c-1.88,0-3.5,2.12-4,5.27C44.49,94.48,46.53,93.06,46.64,91.45Z"/><path class="cls-1" d="M42.14,105.79a8.62,8.62,0,0,1-6.8-3.15,9.07,9.07,0,0,1-1.8-6A13.29,13.29,0,0,1,37,88.29a11.46,11.46,0,0,1,8.12-3.54c4.88,0,7.8,2.3,7.8,6.14,0,1.71-.7,3.76-3.26,5.54l.24.05a1.5,1.5,0,0,1,1,1l1,3.18a1.5,1.5,0,0,1-.48,1.62C48.23,104.83,45.73,105.79,42.14,105.79Zm3-18a8.49,8.49,0,0,0-5.93,2.59,10.36,10.36,0,0,0-2.63,6.33,6.22,6.22,0,0,0,1.18,4.12,5.66,5.66,0,0,0,4.43,2,9.84,9.84,0,0,0,6.56-2.23l-.07-.21a8.24,8.24,0,0,1-4.76,1.52,4.14,4.14,0,0,1-4.09-3.6,1.5,1.5,0,0,1,.88-1.62,1.5,1.5,0,0,1-1-1.62c.57-3.92,2.75-6.55,5.44-6.55a3,3,0,0,1,2.22.9,2.86,2.86,0,0,1,.77,2.13c-.11,1.54-1.15,2.87-3,3.87,2.49-.94,4.73-2.38,4.73-4.49S48.29,87.75,45.1,87.75ZM46.79,98a24.52,24.52,0,0,1-2.61.9A5.2,5.2,0,0,0,46.79,98Zm-1.67-6.48c-.53,0-1.13.51-1.62,1.39A3.16,3.16,0,0,0,45.11,91.48Z"/><path class="cls-2" d="M58,103.74H52.16l4-22.63H62Z"/><path class="cls-1" d="M58,105.24H52.16a1.5,1.5,0,0,1-1.48-1.76l4-22.63a1.5,1.5,0,0,1,1.48-1.24H62a1.5,1.5,0,0,1,1.48,1.76l-4,22.63A1.5,1.5,0,0,1,58,105.24Zm-4.09-3h2.83l3.43-19.63H57.37Z"/><path class="cls-2" d="M78.84,96.6l-.16,1.32c-.26,2,.19,2.63,1.85,2.52l-1.08,3.44a12.59,12.59,0,0,1-3.11.26c-2.22-.11-3.45-1.28-3.45-3.22-1.77,2.49-3.26,3.37-5.68,3.37-3.65,0-5.8-3-5.41-7.43a11,11,0,0,1,4.61-8.48,12.12,12.12,0,0,1,6.68-2.09,24.48,24.48,0,0,1,7.22,1.14Zm-5-5.66a2.59,2.59,0,0,0-.59-.11,4.7,4.7,0,0,0-3.29.73,7.12,7.12,0,0,0-2.23,4.68c-.19,1.91.5,3,1.88,3.08,1.08.07,2-.63,3.3-2.49Z"/><path class="cls-1" d="M67.21,105.79a6.53,6.53,0,0,1-5-2.08,9,9,0,0,1-1.94-7,12.51,12.51,0,0,1,5.26-9.59,13.6,13.6,0,0,1,7.52-2.35A26.09,26.09,0,0,1,80.74,86a1.5,1.5,0,0,1,1.05,1.67l-1.46,9.18-.15,1.26a5.25,5.25,0,0,0-.06.86h.32A1.5,1.5,0,0,1,82,100.9l-1.08,3.44a1.5,1.5,0,0,1-1.17,1,14.19,14.19,0,0,1-3.43.28,5.18,5.18,0,0,1-3.95-1.78A7,7,0,0,1,67.21,105.79Zm5.87-18a10.68,10.68,0,0,0-5.83,1.83,9.58,9.58,0,0,0-4,7.37,6.12,6.12,0,0,0,1.17,4.69,3.57,3.57,0,0,0,2.75,1.11c1.6,0,2.67-.36,4.17-2.34a3.48,3.48,0,0,1-1.57.37h-.24a3.31,3.31,0,0,1-2.4-1.13,4.62,4.62,0,0,1-.88-3.59,8.61,8.61,0,0,1,2.79-5.71,6.29,6.29,0,0,1,4.36-1.05,4.25,4.25,0,0,1,.84.16,1.5,1.5,0,0,1,1.09,1.68l-.92,5.89a1.5,1.5,0,0,1-.27.65,14,14,0,0,1-1.43,1.72,1.53,1.53,0,0,1,.59.06,1.5,1.5,0,0,1,1,1.43c0,.8.24,1.63,2,1.72a9.29,9.29,0,0,0,1.88-.09l.29-.92a2.51,2.51,0,0,1-.77-.59,4.05,4.05,0,0,1-.62-3.31l.15-1.3,1.26-7.92A21.78,21.78,0,0,0,73.08,87.79Zm-.92,4.52a2.92,2.92,0,0,0-1.26.46,5.71,5.71,0,0,0-1.62,3.61,2,2,0,0,0,.17,1.34s.07.08.3.09c.4,0,1-.52,1.8-1.59Z"/><path class="cls-2" d="M95.53,90.9H91l-.84,5.38A8.43,8.43,0,0,0,90,97.7c0,1.28.73,2,2.11,2a5.77,5.77,0,0,0,2.38-.4l1.07,3.36a10.58,10.58,0,0,1-6.29,1.54c-3.34,0-5.61-2-5.42-4.94,0-.7.16-1.54.3-2.53l.92-5.89H81.82l.5-3.22c4.26-.69,5.22-1.5,7.29-6h2.76l-.77,5.08h4.57Z"/><path class="cls-1" d="M89.28,105.75a7.23,7.23,0,0,1-5.38-2.11,5.83,5.83,0,0,1-1.53-4.43c0-.72.15-1.56.32-2.65l.65-4.17H81.82a1.5,1.5,0,0,1-1.48-1.73l.5-3.22a1.5,1.5,0,0,1,1.24-1.25c3.72-.6,4.3-1.08,6.17-5.11a1.5,1.5,0,0,1,1.36-.87h2.76a1.5,1.5,0,0,1,1.48,1.72l-.51,3.36h2.83A1.5,1.5,0,0,1,97.67,87L97,91.14a1.5,1.5,0,0,1-1.48,1.26H92.24l-.64,4.11a7,7,0,0,0-.1,1.19c0,.37,0,.51.69.55h.21A4.47,4.47,0,0,0,94,97.94a1.5,1.5,0,0,1,1.93,1L97,102.26a1.5,1.5,0,0,1-.6,1.7A12.06,12.06,0,0,1,89.28,105.75ZM83.58,89.4h1.51a1.5,1.5,0,0,1,1.48,1.73L85.65,97c-.15,1-.26,1.76-.29,2.37a2.85,2.85,0,0,0,.73,2.21,4.29,4.29,0,0,0,3.19,1.16,10.67,10.67,0,0,0,4.49-.75l-.27-.83a6.7,6.7,0,0,1-1.46.08A3.41,3.41,0,0,1,88.5,97.7a9.52,9.52,0,0,1,.12-1.55V96l.84-5.38A1.5,1.5,0,0,1,91,89.4h3.29l.18-1.09H91.61a1.5,1.5,0,0,1-1.48-1.72l.51-3.36h-.07c-1.88,3.81-3.31,5-6.92,5.74Z"/><path class="cls-2" d="M111.83,101.1c-2.88,2.34-5,3.18-8.29,3.18a7.08,7.08,0,0,1-5.6-2.56,7.61,7.61,0,0,1-1.5-5.05,11.88,11.88,0,0,1,3-7.35,10,10,0,0,1,7-3.07c4,0,6.3,1.69,6.3,4.64,0,3.29-3.53,5.78-10.14,7.13a2.67,2.67,0,0,0,2.62,2.34c1.8,0,3.22-.62,5.56-2.45ZM108,91.45a1.37,1.37,0,0,0-1.5-1.46c-1.88,0-3.5,2.12-4,5.27C105.87,94.48,107.91,93.06,108,91.45Z"/><path class="cls-1" d="M103.53,105.79a8.6,8.6,0,0,1-6.8-3.15,9,9,0,0,1-1.81-6,13.3,13.3,0,0,1,3.45-8.38,11.45,11.45,0,0,1,8.12-3.54c4.88,0,7.8,2.3,7.8,6.14,0,1.71-.7,3.76-3.26,5.54l.24.05a1.5,1.5,0,0,1,1,1l1,3.18a1.5,1.5,0,0,1-.48,1.61C109.62,104.83,107.11,105.79,103.53,105.79Zm3-18a8.48,8.48,0,0,0-5.93,2.59,10.37,10.37,0,0,0-2.63,6.33,6.19,6.19,0,0,0,1.18,4.12,5.65,5.65,0,0,0,4.43,2,9.83,9.83,0,0,0,6.55-2.23l-.07-.21a8.22,8.22,0,0,1-4.75,1.52,4.16,4.16,0,0,1-4.1-3.59,1.5,1.5,0,0,1,.88-1.63,1.5,1.5,0,0,1-1-1.62c.57-3.92,2.76-6.55,5.44-6.55a3,3,0,0,1,2.22.9,2.86,2.86,0,0,1,.77,2.13c-.11,1.54-1.15,2.87-3,3.87,2.49-.94,4.73-2.37,4.73-4.48S109.67,87.75,106.49,87.75ZM108.18,98a24.41,24.41,0,0,1-2.63.91A5.19,5.19,0,0,0,108.18,98Zm-1.69-6.48c-.53,0-1.14.5-1.64,1.4A3.18,3.18,0,0,0,106.49,91.48Z"/><path class="cls-3" d="M43,105.84a37.19,37.19,0,0,1,4.07-.22c2.43,0,3.9.31,5,1a4.09,4.09,0,0,1,1.84,3.48c0,1.79-1.2,3.29-3.33,4.12l3.85,6H49.64l-2.79-5H45.48l-.83,5H40.55Zm2.94,6.84h1.76a2.37,2.37,0,0,0,2.21-2.1c.07-1.26-.91-2.07-2.52-2.07-.2,0-.47,0-.76,0Z"/><path class="cls-1" d="M54.4,121.72H49.64a1.5,1.5,0,0,1-1.31-.77l-1.76-3.16-.44,2.68a1.5,1.5,0,0,1-1.48,1.25H40.55A1.5,1.5,0,0,1,39.07,120l2.4-14.38a1.5,1.5,0,0,1,1.34-1.25,38.65,38.65,0,0,1,4.21-.23c2.71,0,4.46.38,5.84,1.28a5.61,5.61,0,0,1,2.52,4.74,5.54,5.54,0,0,1-2.68,4.69l3,4.57a1.5,1.5,0,0,1-1.26,2.31Zm-3.87-3h1.12l-2.35-3.64a1.5,1.5,0,0,1-.18-1.24,3.47,3.47,0,0,1-1.19.32,1.52,1.52,0,0,1,.24.32Zm-8.2,0h1.05L44,115a1.5,1.5,0,0,1,.93-1.15l-.17-.17a1.5,1.5,0,0,1-.34-1.21l.68-4.15a1.5,1.5,0,0,1,.94-1.16c-.57,0-1.13,0-1.8.1Zm6.46-11.53a3.68,3.68,0,0,1,1.71,1,3.28,3.28,0,0,1,.87,2.47,3.66,3.66,0,0,1-.72,1.9,2.86,2.86,0,0,0,1.74-2.43,2.59,2.59,0,0,0-1.16-2.23A5.4,5.4,0,0,0,48.78,107.2Zm-.93,2.86-.19,1.12a.9.9,0,0,0,.71-.7c0-.15,0-.2-.06-.22A.92.92,0,0,0,47.85,110.06Z"/><path class="cls-3" d="M60.82,111.44h4.73l-.47,2.73h-4.7l-.52,3.09h6.71l-.86,3H55.4l2.4-14.47h9.44l-.46,2.87H61.28Z"/><path class="cls-1" d="M65.72,121.72H55.4A1.5,1.5,0,0,1,53.92,120l2.4-14.47a1.5,1.5,0,0,1,1.48-1.25h9.44A1.5,1.5,0,0,1,68.72,106l-.46,2.87a1.5,1.5,0,0,1-1.48,1.26h-.52A1.5,1.5,0,0,1,67,111.7l-.47,2.73a1.5,1.5,0,0,1-1.48,1.25H61.65v.09h4.94A1.5,1.5,0,0,1,68,117.68l-.86,3A1.5,1.5,0,0,1,65.72,121.72Zm-8.55-3h2.33a1.5,1.5,0,0,1-1.12-1.7l.52-3.09A1.5,1.5,0,0,1,60,112.72a1.5,1.5,0,0,1-.69-1.52l.46-2.83a1.5,1.5,0,0,1,.86-1.12H59.08Z"/><path class="cls-3" d="M74.47,120.22H70.38l1.89-11.4H68l.52-3.07H81.19l-.51,3.07H76.38Z"/><path class="cls-1" d="M74.47,121.72H70.38A1.5,1.5,0,0,1,68.9,120l1.6-9.66H68a1.5,1.5,0,0,1-1.48-1.75L67,105.5a1.5,1.5,0,0,1,1.48-1.25H81.19A1.5,1.5,0,0,1,82.67,106l-.51,3.07a1.5,1.5,0,0,1-1.48,1.25h-3L76,120.47A1.5,1.5,0,0,1,74.47,121.72Zm-2.32-3H73.2l1.7-10.15a1.5,1.5,0,0,1,1.48-1.25h3v-.07H69.74v.07h2.54a1.5,1.5,0,0,1,1.48,1.74Z"/><path class="cls-3" d="M82.68,105.84a37.23,37.23,0,0,1,4.07-.22c2.43,0,3.9.31,5,1a4.09,4.09,0,0,1,1.84,3.48c0,1.79-1.2,3.29-3.33,4.12l3.85,6H89.37l-2.79-5H85.21l-.83,5H80.28Zm2.94,6.84h1.76a2.37,2.37,0,0,0,2.21-2.1c.07-1.26-.91-2.07-2.52-2.07-.2,0-.47,0-.76,0Z"/><path class="cls-1" d="M94.13,121.72H89.37a1.5,1.5,0,0,1-1.31-.77l-1.76-3.16-.45,2.68a1.5,1.5,0,0,1-1.48,1.25H80.28A1.5,1.5,0,0,1,78.8,120l2.4-14.38a1.5,1.5,0,0,1,1.34-1.25,38.71,38.71,0,0,1,4.21-.23c2.75,0,4.44.37,5.84,1.28a5.57,5.57,0,0,1-.16,9.43l3,4.58a1.5,1.5,0,0,1-1.26,2.31Zm-3.87-3h1.12L89,115.08a1.5,1.5,0,0,1-.18-1.24,3.48,3.48,0,0,1-1.19.32,1.5,1.5,0,0,1,.24.32Zm-8.2,0H83.1l.62-3.75a1.5,1.5,0,0,1,.92-1.15l-.17-.17a1.5,1.5,0,0,1-.34-1.22l.69-4.15a1.5,1.5,0,0,1,.94-1.16c-.57,0-1.13,0-1.8.1Zm6.46-11.53a3.67,3.67,0,0,1,1.71,1,3.27,3.27,0,0,1,.87,2.47,3.66,3.66,0,0,1-.72,1.9,2.86,2.86,0,0,0,1.74-2.43A2.59,2.59,0,0,0,91,107.92,5.4,5.4,0,0,0,88.51,107.2Zm-.93,2.86-.19,1.12a.9.9,0,0,0,.7-.7c0-.15,0-.2-.06-.22A.91.91,0,0,0,87.58,110.06Z"/><path class="cls-3" d="M110.94,111.93a8.68,8.68,0,0,1-8.95,8.63c-4.44,0-7.13-2.43-7.13-6.4a8.89,8.89,0,0,1,2.65-6.2,9.06,9.06,0,0,1,6.2-2.54C108,105.22,110.94,107.89,110.94,111.93Zm-11.62,2c0,2.1,1.15,3.38,3,3.38a3.52,3.52,0,0,0,3-1.65,6.94,6.94,0,0,0,1.08-3.53c0-2.12-1.2-3.42-3.11-3.42C101.11,108.69,99.33,111,99.33,113.91Z"/><path class="cls-1" d="M102,122.05c-5.24,0-8.63-3.1-8.63-7.9a10.32,10.32,0,0,1,3.1-7.28,10.51,10.51,0,0,1,7.18-3h.51c4.88,0,8.28,3.3,8.28,8A10.18,10.18,0,0,1,102,122.05Zm2.16-15.14h-.38A7.55,7.55,0,0,0,98.55,109a7.37,7.37,0,0,0-2.19,5.12c0,3.11,2.05,4.9,5.63,4.9a7.21,7.21,0,0,0,7.45-7.12C109.44,108.88,107.37,106.91,104.16,106.91Zm-1.79,11.88c-2.71,0-4.54-2-4.54-4.88,0-3.77,2.43-6.73,5.54-6.73,2.76,0,4.61,2,4.61,4.92a8.42,8.42,0,0,1-1.32,4.35A5,5,0,0,1,102.36,118.79Zm1-8.6c-1.4,0-2.54,1.67-2.54,3.73,0,1.88,1.16,1.88,1.54,1.88a2,2,0,0,0,1.77-.95,5.44,5.44,0,0,0,.85-2.73C105,110.83,104.44,110.19,103.37,110.19Z"/><path class="cls-3" d="M14.28,72.4a4.37,4.37,0,0,0-2.69,1.27,3.89,3.89,0,0,1,.58-.05,2.18,2.18,0,0,1,2.39,2c0,1.64-1.18,2.69-3,2.69a3,3,0,0,1-2.4-1,2.59,2.59,0,0,1-.57-1.78A4.32,4.32,0,0,1,9.72,73a6.61,6.61,0,0,1,4.77-2Zm-3.71,3.34a1.09,1.09,0,0,0,1,1.1,1,1,0,0,0,1.14-1.1,1.08,1.08,0,0,0-1.06-1.05,2.21,2.21,0,0,0-.54,0l-.33.08A1.32,1.32,0,0,0,10.57,75.74Z"/><path class="cls-1" d="M11.54,79.86A4.54,4.54,0,0,1,8,78.31a4.1,4.1,0,0,1-.91-2.74A5.79,5.79,0,0,1,8.6,72a8.12,8.12,0,0,1,5.8-2.52,1.52,1.52,0,0,1,1.19.48A1.5,1.5,0,0,1,16,71.15l-.21,1.47a1.5,1.5,0,0,1-.46.89,3.37,3.37,0,0,1,.77,2.16C16.07,78.13,14.21,79.86,11.54,79.86Zm.11-4.5.42.29v0a.51.51,0,0,0-.37-.25h-.06Z"/><path class="cls-3" d="M20.68,70.64,15.9,78.73l-1.28-.22,4.78-8.09Z"/><path class="cls-1" d="M15.9,80.23l-.25,0L14.37,80a1.5,1.5,0,0,1-1-2.24l4.78-8.08a1.5,1.5,0,0,1,1.55-.72l1.28.22a1.5,1.5,0,0,1,1,2.24l-4.78,8.09A1.5,1.5,0,0,1,15.9,80.23Z"/><path class="cls-3" d="M22.82,74.06a1,1,0,0,0,.86-.91c0-.38-.36-.67-.86-.67a3.41,3.41,0,0,0-1.65.46l-.24-1.29a4.71,4.71,0,0,1,2.31-.6c1.46,0,2.53.77,2.53,1.82,0,.73-.32,1.15-1.23,1.64a1.6,1.6,0,0,1,1.13,1.64,2.15,2.15,0,0,1-1.17,1.78,4.21,4.21,0,0,1-1.9.43,5.28,5.28,0,0,1-2.72-.69l.43-1.35a3.77,3.77,0,0,0,1.86.6c.78,0,1.28-.36,1.28-.91s-.39-.8-1-.8H21.39l.19-1.16Z"/><path class="cls-1" d="M22.6,79.86A6.79,6.79,0,0,1,19.16,79a1.5,1.5,0,0,1-.72-1.77l.43-1.35a1.5,1.5,0,0,1,.91-1l.15,0,.15-.89a1.5,1.5,0,0,1-.39-.76l-.24-1.29a1.5,1.5,0,0,1,.77-1.6,6.2,6.2,0,0,1,3-.78c2.3,0,4,1.43,4,3.32a2.94,2.94,0,0,1-.48,1.68,3.34,3.34,0,0,1,.38,1.61,3.61,3.61,0,0,1-1.94,3.09A5.67,5.67,0,0,1,22.6,79.86Z"/><path class="cls-3" d="M26.9,77a4.91,4.91,0,0,0,2.71-1.32,2.6,2.6,0,0,1-.72.12,2.1,2.1,0,0,1-2.3-2.16,2.44,2.44,0,0,1,1-2A3.43,3.43,0,0,1,29.5,71a3.1,3.1,0,0,1,2.38.86,2.5,2.5,0,0,1,.71,1.78,4.41,4.41,0,0,1-1.24,2.85,7.27,7.27,0,0,1-4.89,1.92Zm3.66-3.26a1.08,1.08,0,1,0-1,1,1.66,1.66,0,0,0,.49-.05l.21-.08A1.2,1.2,0,0,0,30.56,73.72Z"/><path class="cls-1" d="M26.46,80A1.5,1.5,0,0,1,25,78l.44-1.49a1.5,1.5,0,0,1,.39-.65,3.68,3.68,0,0,1-.76-2.28,4,4,0,0,1,1.65-3.19,4.94,4.94,0,0,1,2.75-.89A4.56,4.56,0,0,1,33,70.87a4,4,0,0,1,1.13,2.83,5.9,5.9,0,0,1-1.64,3.88A8.66,8.66,0,0,1,26.55,80Zm3.25-6.67.17.46a.31.31,0,0,0,0-.08A.53.53,0,0,0,29.71,73.3Z"/><path class="cls-2" d="M91.37,23.72C89.16,11.65,76.94,4.41,64,6.79A23.71,23.71,0,0,0,47.57,18.07c-.29-.25-8.77-7.09-18.16-.93-8.37,5.49-5.59,16-4.65,18.5,4.56,12.08,27.5,33.71,27.57,33.77s.13,0,.18,0,26-19.51,30.12-22.82C91.82,38.86,92.79,31.45,91.37,23.72ZM78.79,44.79c-1,.72-6.33,5.16-12.64,9.73C59.43,59.4,53,64.07,53,64.07S31.35,43.44,28.66,32.61c-1.21-4.92-.21-9.22,3.09-12.41C38.44,13.9,47,18.65,47.17,18.78c-1,1.84-2.89,5.25-1.64,13.05A23.3,23.3,0,0,0,63.79,50.17c-1-.4-14.87-8.18-13.9-24,.7-11.37,11-18.21,20.32-17.53,8.29.61,15.48,7.14,15,15.86-.43,6.59-5.32,11.4-12.2,12.67C65,38.66,57.17,34,55.62,26.72a12.28,12.28,0,0,1-.27-2.56,14.26,14.26,0,0,0,0,5.9c1.81,8.46,10.65,13.46,20,11.74,7-1.29,11.1-6.64,13.09-12.2C87.9,35,84.07,40.71,78.79,44.79Z"/><path class="cls-1" d="M52.42,71h0a1.77,1.77,0,0,1-1.11-.45c-.15-.12-23.25-21.86-28-34.34-1.88-5-2.9-14.95,5.23-20.28a16.29,16.29,0,0,1,9-2.81,18.26,18.26,0,0,1,9.5,2.86A25.35,25.35,0,0,1,63.72,5.31a28.75,28.75,0,0,1,5.17-.47c12.09,0,21.94,7.65,23.95,18.61,1.3,7.07,1.21,15.48-9.24,24.29C80.8,50,55.2,69.36,53.3,70.67h0A1.55,1.55,0,0,1,52.42,71ZM35,16.36a14,14,0,0,0-4.76,2C22,23.78,26,34.65,26.16,35.11c3.93,10.41,22.26,28.46,26.36,32.41,4.57-3.43,25.38-19.07,29.17-22.1,9.23-7.77,9.4-14.89,8.2-21.43A19.23,19.23,0,0,0,79.44,10.28,16.17,16.17,0,0,1,86.71,24.6C86.24,31.73,81,37.24,73.28,38.66A18.12,18.12,0,0,1,70,39a17.15,17.15,0,0,1-10.19-3.3,15.82,15.82,0,0,0,11.85,5,18.91,18.91,0,0,0,3.42-.31C82.5,39,85.77,32.71,87.06,29.09a1.5,1.5,0,0,1,2.9.66C89.37,35.4,85.54,41.46,79.71,46c-.28.21-.83.65-1.61,1.27C75.86,49,71.7,52.35,67,55.73c-6.73,4.89-13.2,9.56-13.2,9.56a1.5,1.5,0,0,1-1.91-.13C51,64.3,30,44.1,27.2,33c-1.37-5.54-.15-10.32,3.51-13.85A13.48,13.48,0,0,1,35,16.36Zm5,2.08a10.14,10.14,0,0,0-7.17,2.86c-2.88,2.77-3.78,6.46-2.67,11,2.25,9.06,18.92,25.87,23,29.87,2.08-1.5,7.06-5.1,12.18-8.82,4.61-3.34,8.74-6.63,11-8.4.83-.66,1.41-1.12,1.68-1.32q1-.78,1.92-1.61a17.34,17.34,0,0,1-4.17,1.31,21.92,21.92,0,0,1-4,.36c-8.81,0-16.14-5.45-17.81-13.26a15.72,15.72,0,0,1,0-6.53,1.5,1.5,0,0,1,3,.31,10.83,10.83,0,0,0,.24,2.25C58.27,31.94,63.72,36,70,36a15.14,15.14,0,0,0,2.71-.25c6.39-1.18,10.59-5.5,11-11.29.46-8.26-6.56-13.74-13.62-14.26C61.65,9.53,52,15.67,51.39,26.28c-.9,14.7,11.93,22,12.92,22.48a1.5,1.5,0,0,1,1,1.42,1.49,1.49,0,0,1-1.52,1.5,1.42,1.42,0,0,1-.33,0,24.61,24.61,0,0,1-19.4-19.57h0c-1.07-6.65.06-10.36,1.08-12.58A14.37,14.37,0,0,0,39.95,18.44ZM47,31.64a22,22,0,0,0,6.89,12,25.67,25.67,0,0,1-5.52-17.53,19.67,19.67,0,0,1,8.88-15.38,21.43,21.43,0,0,0-8.4,8.1,1.48,1.48,0,0,1-.24.31,1.48,1.48,0,0,1-.13.36l-.06.12c-1,1.82-2.57,4.86-1.42,12Z"/><path class="cls-3" d="M60.28,13.73a2.37,2.37,0,0,0,1.87-3.85A20,20,0,0,0,58,12,2.38,2.38,0,0,0,60.28,13.73Z"/><path class="cls-1" d="M60.28,15.23a3.86,3.86,0,0,1-3.71-2.76,1.5,1.5,0,0,1,.59-1.68,21.51,21.51,0,0,1,4.45-2.31A1.5,1.5,0,0,1,63.32,9a3.84,3.84,0,0,1,.84,2.39A3.89,3.89,0,0,1,60.28,15.23Z"/><circle class="cls-3" cx="64.78" cy="13.02" r="2.22"/><path class="cls-1" d="M64.78,16.75A3.72,3.72,0,1,1,68.5,13,3.73,3.73,0,0,1,64.78,16.75Zm0-4.45a.72.72,0,1,0,.72.72A.73.73,0,0,0,64.78,12.3Z"/><path class="cls-3" d="M66.32,10.8a2.22,2.22,0,0,0,2.22-2.18,18.94,18.94,0,0,0-4.34.61A2.22,2.22,0,0,0,66.32,10.8Z"/><path class="cls-1" d="M66.32,12.3a3.7,3.7,0,0,1-3.55-2.64,1.5,1.5,0,0,1,1.06-1.89,20.43,20.43,0,0,1,4.68-.65,1.45,1.45,0,0,1,1.09.44A1.5,1.5,0,0,1,70,8.64,3.74,3.74,0,0,1,66.32,12.3Z"/><path class="cls-3" d="M70.77,12.37A2.22,2.22,0,0,0,73,10.14,2.2,2.2,0,0,0,72.68,9a17.47,17.47,0,0,0-2.48-.37c-.35,0-.69,0-1,0a2.22,2.22,0,0,0,1.61,3.76Z"/><path class="cls-1" d="M70.77,13.87a3.72,3.72,0,0,1-2.7-6.29,1.47,1.47,0,0,1,1.11-.47c.38,0,.76,0,1.13,0a19,19,0,0,1,2.69.4,1.5,1.5,0,0,1,1,.7,3.71,3.71,0,0,1-3.2,5.61ZM70,10.15a.72.72,0,0,0,1.43.17c-.46-.08-.92-.13-1.38-.17Z"/><path class="cls-3" d="M73,11.76a2.23,2.23,0,0,0,4.45,0,2.19,2.19,0,0,0-.29-1.07A17,17,0,0,0,74.7,9.6,2.22,2.22,0,0,0,73,11.76Z"/><path class="cls-1" d="M75.22,15.48a3.72,3.72,0,0,1-.86-7.34,1.5,1.5,0,0,1,.84,0,18.46,18.46,0,0,1,2.67,1.19,1.5,1.5,0,0,1,.6.59,3.67,3.67,0,0,1,.47,1.79A3.73,3.73,0,0,1,75.22,15.48Zm-.48-4.27a.71.71,0,0,0-.25.54.73.73,0,0,0,1.45,0h0C75.55,11.55,75.15,11.37,74.74,11.21Z"/><path class="cls-3" d="M77.44,13.34a2.22,2.22,0,0,0,4.23.94,15.93,15.93,0,0,0-3.21-2.81A2.22,2.22,0,0,0,77.44,13.34Z"/><path class="cls-1" d="M79.67,17.06a3.72,3.72,0,0,1-2-6.85,1.5,1.5,0,0,1,1.64,0,17.43,17.43,0,0,1,3.51,3.07A1.5,1.5,0,0,1,83,14.92,3.74,3.74,0,0,1,79.67,17.06Z"/><path class="cls-3" d="M83.6,17.08a14.7,14.7,0,0,0-1.68-2.5,2.37,2.37,0,0,0,0,.35A2.22,2.22,0,0,0,83.6,17.08Z"/><path class="cls-1" d="M83.6,18.58a1.5,1.5,0,0,1-.35,0,3.71,3.71,0,0,1-2.86-3.62,3.77,3.77,0,0,1,0-.55,1.5,1.5,0,0,1,2.64-.75,16.23,16.23,0,0,1,1.85,2.76,1.5,1.5,0,0,1-1.33,2.2Z"/><path class="cls-3" d="M84.69,21a2.21,2.21,0,0,0,.47,1.35,14.08,14.08,0,0,0-.34-2A2.14,2.14,0,0,0,84.69,21Z"/><path class="cls-1" d="M85.16,23.83A1.5,1.5,0,0,1,84,23.25,3.69,3.69,0,0,1,83.19,21a3.65,3.65,0,0,1,.2-1.18,1.5,1.5,0,0,1,2.88.13,15.66,15.66,0,0,1,.38,2.26,1.5,1.5,0,0,1-1.49,1.64Z"/><path class="cls-3" d="M83,25.38a2.29,2.29,0,0,0,1.62,2.18,13.44,13.44,0,0,0,.57-3.06c0-.48,0-1,0-1.42A2.29,2.29,0,0,0,83,25.38Z"/><path class="cls-1" d="M84.64,29.07a1.51,1.51,0,0,1-.44-.07,3.79,3.79,0,0,1,.95-7.4,1.48,1.48,0,0,1,1.08.39,1.5,1.5,0,0,1,.48,1c0,.54,0,1.05,0,1.56A15,15,0,0,1,86.07,28a1.5,1.5,0,0,1-1.43,1.06Z"/><circle class="cls-3" cx="80.86" cy="23.77" r="2.3"/><path class="cls-1" d="M80.86,27.57a3.8,3.8,0,1,1,3.8-3.8A3.8,3.8,0,0,1,80.86,27.57Zm0-4.6a.8.8,0,1,0,.8.8A.8.8,0,0,0,80.86,23Z"/><circle class="cls-3" cx="76.47" cy="22.19" r="2.3"/><path class="cls-1" d="M76.47,26a3.8,3.8,0,1,1,3.8-3.8A3.8,3.8,0,0,1,76.47,26Zm0-4.6a.8.8,0,1,0,.8.8A.8.8,0,0,0,76.47,21.39Z"/><circle class="cls-3" cx="63.19" cy="17.45" r="2.31"/><path class="cls-1" d="M63.19,21.27A3.81,3.81,0,1,1,67,17.45,3.82,3.82,0,0,1,63.19,21.27Zm0-4.63a.81.81,0,1,0,.81.81A.82.82,0,0,0,63.19,16.64Z"/><circle class="cls-3" cx="58.76" cy="15.87" r="2.31"/><path class="cls-1" d="M58.76,19.68a3.81,3.81,0,1,1,3.81-3.81A3.82,3.82,0,0,1,58.76,19.68Zm0-4.63a.81.81,0,1,0,.81.81A.81.81,0,0,0,58.76,15.06Z"/><path class="cls-3" d="M56.68,14.32a2.29,2.29,0,0,0-.28-1.07,18.77,18.77,0,0,0-3,3.18,2.3,2.3,0,0,0,3.27-2.1Z"/><path class="cls-1" d="M54.37,18.13a3.79,3.79,0,0,1-1.57-.35,1.5,1.5,0,0,1-.59-2.26,20.3,20.3,0,0,1,3.23-3.43,1.5,1.5,0,0,1,2.29.45,3.77,3.77,0,0,1,.45,1.77A3.82,3.82,0,0,1,54.37,18.13Z"/><path class="cls-3" d="M86.79,33.28a2.53,2.53,0,0,0,.19.24l-.27,0h0a19.48,19.48,0,0,1-2.32,3.22,2.5,2.5,0,0,0,.59,1,2.65,2.65,0,0,0-1.85,1c0-.08,0-.16,0-.24a2.62,2.62,0,0,0,0-.47,15.43,15.43,0,0,1-7.69,3.79,20.54,20.54,0,0,1-3.34.33,2.66,2.66,0,0,0,.83,1.3,2.55,2.55,0,0,0-1.79.91,2.57,2.57,0,0,0-.89-1.82,2.66,2.66,0,0,0,1.31-.4,19.3,19.3,0,0,1-3.18-.29l.07.06a2.59,2.59,0,0,0-1.73.76,2.56,2.56,0,0,0-.5-1.34,17.42,17.42,0,0,1-2.56-1,2.57,2.57,0,0,0-1.36.69,2.64,2.64,0,0,0-.64-1.54,2.51,2.51,0,0,0,.34-.08,14.84,14.84,0,0,1-5.76-6.73,2.64,2.64,0,0,0-1.19.68,2.65,2.65,0,0,0-.86-1.7,2.5,2.5,0,0,0,1.47-.6c-.09-.32-.18-.65-.25-1a14.26,14.26,0,0,1,0-5.9,12.29,12.29,0,0,0,.27,2.56c0,.17.09.34.14.51a2.53,2.53,0,0,0,1.88-1c0,.07,0,.13,0,.2a2.47,2.47,0,0,0,.81,1.82,2.53,2.53,0,0,0-1.92.91v0a2.51,2.51,0,0,0-.72-1.75,12.77,12.77,0,0,0,3.44,5.8,2.5,2.5,0,0,0,1.09-.69,2.53,2.53,0,0,0,.75,1.7,2.61,2.61,0,0,0-.57.1,15,15,0,0,0,3.29,1.91A2.63,2.63,0,0,0,63,34.89a2.52,2.52,0,0,0,1.69-.82s0,.06,0,.09a2.53,2.53,0,0,0,.65,1.68,2.68,2.68,0,0,0-1.23.49,15.93,15.93,0,0,0,4,1,2.72,2.72,0,0,0-.45-.67,2.54,2.54,0,0,0,1.49-.83,2.51,2.51,0,0,0,.55,1.4,2.65,2.65,0,0,0-.63.18A16.53,16.53,0,0,0,73,37.18a17.19,17.19,0,0,0,5-1.71,2.76,2.76,0,0,0-.29-.29h.08a2.53,2.53,0,0,0,1.85-.8s0,0,0,.08a13.07,13.07,0,0,0,5-6.88,2.42,2.42,0,0,0-2.95,1.05,2.37,2.37,0,0,0,0-.33,2.46,2.46,0,0,0-4.36-1.57s0,0,0,0a2.46,2.46,0,0,0-4.47-1.43c0-.07,0-.13,0-.2a2.46,2.46,0,0,0-1.37-2.2,2.3,2.3,0,1,0-1.81-2.24,2.29,2.29,0,0,0,1.26,2,2.41,2.41,0,0,0-2.5.89s0,0,0,0A2.47,2.47,0,0,0,67,21.25a2.32,2.32,0,0,0,.56.08,2.31,2.31,0,1,0-.93-.2A2.4,2.4,0,0,0,64.1,22a2.46,2.46,0,0,0-4.47-1.38c0-.06,0-.12,0-.19a2.47,2.47,0,0,0-4.54-1.34,2.46,2.46,0,0,0,0-.32,2.39,2.39,0,0,0-1.77-2.3,18,18,0,0,0-2.24,4l0,0h-.05a18.44,18.44,0,0,0-1.24,5.62,24.79,24.79,0,0,0,.07,4,2.53,2.53,0,0,0,1.49-.71,2.53,2.53,0,0,0,.76,1.52,2.64,2.64,0,0,0-1.59.63A2.66,2.66,0,0,0,50,30.19c1.2,11.93,10.9,18.38,13.32,19.73a2.76,2.76,0,0,0,1.06-.59A2.69,2.69,0,0,0,65,50.57a2.81,2.81,0,0,0-1.31.64A2.79,2.79,0,0,0,63.16,50a26.88,26.88,0,0,1-3.23-1,2.73,2.73,0,0,0-.64.31,2.74,2.74,0,0,0-.32-.7,23.5,23.5,0,0,1-3.23-1.71,2.62,2.62,0,0,0,.28.44,2.78,2.78,0,0,0-1.09.51,2.78,2.78,0,0,0-.66-1.21,2.67,2.67,0,0,0,.68-.26,22.67,22.67,0,0,1-6.33-6.7,2.75,2.75,0,0,0-1.14.6,2.73,2.73,0,0,0-.58-1.07,2.74,2.74,0,0,0,1.18-.46,24.2,24.2,0,0,1-2.11-5,2.77,2.77,0,0,0-1.3.66A2.73,2.73,0,0,0,44,33a2.59,2.59,0,0,0,1.39-.74A2.65,2.65,0,0,0,46,33.7a14.77,14.77,0,0,1-.43-1.87c-1.25-7.8.67-11.21,1.64-13.05a10.51,10.51,0,0,0-1-.48,2.65,2.65,0,0,0,.63.89l-.19,0a2.42,2.42,0,0,0-1.89.92s0,0,0,0a2.49,2.49,0,0,0-1-2l.2,0A2.54,2.54,0,0,0,45,17.85a16.36,16.36,0,0,0-3.14-.77,2.65,2.65,0,0,0,.5.49l-.15,0a2.49,2.49,0,0,0-1.89.88,2.46,2.46,0,0,0-.55-1.49,11.6,11.6,0,0,0-8.06,3.26,11.92,11.92,0,0,0-2,2.58,2.85,2.85,0,0,0,.23.29,2.61,2.61,0,0,0-.44.11,11.38,11.38,0,0,0-1.24,4c.06.07.11.15.17.22l-.2,0a15.32,15.32,0,0,0,.44,5.16c.84,3.38,3.52,7.71,6.81,12.07a2.87,2.87,0,0,0,.52-.26,2.81,2.81,0,0,0,.36.88,2.64,2.64,0,0,0-.32.12A193.72,193.72,0,0,0,52.95,64.07s6.47-4.67,13.2-9.56c2.79-2,5.39-4,7.51-5.68a2.54,2.54,0,0,0-.25-.3,2.56,2.56,0,0,0,1.4-.67s0,0,0,.06c2.06-1.62,3.5-2.8,4-3.14a31.19,31.19,0,0,0,2.79-2.44,2.68,2.68,0,0,0-.84-1.23,2.65,2.65,0,0,0,1.78-1,2.36,2.36,0,0,0,0,.24,2.64,2.64,0,0,0,.15.86c3.22-3.52,5.41-7.64,5.82-11.64A23.94,23.94,0,0,1,86.79,33.28Zm-5.42-3.71a2.34,2.34,0,0,0,0,.33,2.45,2.45,0,0,0,.9,1.89h-.09a2.53,2.53,0,0,0-1.85.8,2.52,2.52,0,0,0-.85-1.83A2.45,2.45,0,0,0,81.37,29.56ZM71.7,33.1a2.53,2.53,0,0,0-1.9.87,2.53,2.53,0,0,0-1-1.87h.09a2.5,2.5,0,0,0,2-.95,2.53,2.53,0,0,0,1,1.95Zm5.09-4.85s0,0,0,0a2.45,2.45,0,0,0,.8,1.81,2.52,2.52,0,0,0-1.71.83,2.53,2.53,0,0,0-.88-1.8A2.45,2.45,0,0,0,76.79,28.25Zm-1.56,4.51a2.53,2.53,0,0,0,.86,1.78H76a2.53,2.53,0,0,0-1.8.75,2.53,2.53,0,0,0-1-1.69l.16,0A2.53,2.53,0,0,0,75.23,32.76Zm-4.78-5.25a2.46,2.46,0,0,0,2-1c0,.07,0,.13,0,.2a2.45,2.45,0,0,0,.84,1.84,2.53,2.53,0,0,0-1.91,1,2.51,2.51,0,0,0-1.13-2ZM68,25s0,0,0,0a2.47,2.47,0,0,0,1.11,2.06l-.23,0a2.5,2.5,0,0,0-1.87.85,2.54,2.54,0,0,0-.94-2A2.45,2.45,0,0,0,68,25Zm-1.64,4.59a2.51,2.51,0,0,0,1,2h-.1a2.53,2.53,0,0,0-1.88.84s0-.06,0-.09a2.53,2.53,0,0,0-.86-1.9A2.52,2.52,0,0,0,66.34,29.61Zm-2.76-6.06a2.44,2.44,0,0,0,.88,1.83h0a2.53,2.53,0,0,0-1.89.86,2.46,2.46,0,0,0-.86-1.73A2.45,2.45,0,0,0,63.58,23.55Zm-1.67,4.5a2.52,2.52,0,0,0,.85,1.77,2.53,2.53,0,0,0-1.77.82,2.53,2.53,0,0,0-.85-1.79A2.46,2.46,0,0,0,61.91,28.05Zm-2.72-6.2c0,.06,0,.12,0,.19A2.45,2.45,0,0,0,60,23.92a2.47,2.47,0,0,0-2,1,2.29,2.29,0,0,0,0-.23,2.53,2.53,0,0,0-.78-1.82A2.46,2.46,0,0,0,59.19,21.86Zm-4.44-1.77a2.32,2.32,0,0,0,.69,2.09,2.53,2.53,0,0,0-1.76.84,2.53,2.53,0,0,0-.9-1.85A2.38,2.38,0,0,0,54.74,20.09ZM52.17,27.3a2.53,2.53,0,0,0-.93-1.67,2.53,2.53,0,0,0,1.8-.85,2.53,2.53,0,0,0,.82,1.78A2.54,2.54,0,0,0,52.17,27.3Zm1.39,10.25a2.72,2.72,0,0,0-.76-1.32,2.66,2.66,0,0,0,1.43-.74A2.65,2.65,0,0,0,54.86,37,2.67,2.67,0,0,0,53.56,37.56Zm2.82,6.05a2.7,2.7,0,0,0-.53-1.31A2.69,2.69,0,0,0,57,41.74,2.63,2.63,0,0,0,57.64,43,2.68,2.68,0,0,0,56.38,43.61Zm1.56-4.48a2.71,2.71,0,0,0-.64-1.28,2.65,2.65,0,0,0,1.29-.6,2.64,2.64,0,0,0,.63,1.32A2.63,2.63,0,0,0,57.94,39.13Zm2.82,6a2.7,2.7,0,0,0-.68-1.3,2.64,2.64,0,0,0,1.41-.75,2.58,2.58,0,0,0,.6,1.46A2.75,2.75,0,0,0,60.76,45.12ZM51,44.56a2.72,2.72,0,0,0,.66,1.25,2.77,2.77,0,0,0-1.15.56,2.84,2.84,0,0,0-.65-1.29A2.77,2.77,0,0,0,51,44.56Zm-6.54-6.27a2.74,2.74,0,0,0-1.4.62,2.75,2.75,0,0,0-.54-1.27A2.71,2.71,0,0,0,43.8,37,2.76,2.76,0,0,0,44.44,38.28ZM44.2,21.6h0a2.42,2.42,0,0,0,1,1.93,2.59,2.59,0,0,0-1.87,1,2.53,2.53,0,0,0-1-2A2.49,2.49,0,0,0,44.2,21.6Zm-1.49,4.58a2.59,2.59,0,0,0,.68,1.7,2.6,2.6,0,0,0-1.71.72A2.57,2.57,0,0,0,41,27.1,2.53,2.53,0,0,0,42.71,26.18Zm-1.13,6.07a2.71,2.71,0,0,0-1.38.65,2.71,2.71,0,0,0-.74-1.46,2.6,2.6,0,0,0,1.44-.69A2.59,2.59,0,0,0,41.58,32.25ZM39.75,20.09a2.49,2.49,0,0,0,1,1.95,2.53,2.53,0,0,0-1.87.84,2.56,2.56,0,0,0-.9-1.94A2.44,2.44,0,0,0,39.75,20.09Zm-1.55,4.5a2.53,2.53,0,0,0,.66,1.69,2.59,2.59,0,0,0-1.57.71,2.59,2.59,0,0,0-.72-1.57A2.56,2.56,0,0,0,38.2,24.59Zm-4.55-5.37a2.59,2.59,0,0,0,1.78-.71,2.45,2.45,0,0,0,.82,1.8,2.55,2.55,0,0,0-1.84.83,2.6,2.6,0,0,0-1.05-1.94A2.5,2.5,0,0,0,33.65,19.22ZM33.73,23a2.56,2.56,0,0,0,.71,1.63,2.59,2.59,0,0,0-1.54.71,2.58,2.58,0,0,0-.69-1.52A2.6,2.6,0,0,0,33.73,23ZM29.81,34a2.76,2.76,0,0,0-.55-1.1,2.76,2.76,0,0,0,1.27-.65A2.62,2.62,0,0,0,31,33.4,2.75,2.75,0,0,0,29.81,34Zm.86-5.76a2.58,2.58,0,0,0,1.46-.7,2.58,2.58,0,0,0,.79,1.61,2.63,2.63,0,0,0-1.49.62A2.77,2.77,0,0,0,30.67,28.22Zm2,11.8a2.73,2.73,0,0,0-.55-1.18,2.75,2.75,0,0,0,1.1-.49,2.74,2.74,0,0,0,.51,1.09A2.78,2.78,0,0,0,32.65,40Zm1.62-4.49a2.76,2.76,0,0,0-.58-1.17,2.62,2.62,0,0,0,1.15-.58A2.69,2.69,0,0,0,35.4,35,2.76,2.76,0,0,0,34.27,35.54Zm1.47-4.22a2.65,2.65,0,0,0-.8-1.48,2.59,2.59,0,0,0,1.57-.71,2.58,2.58,0,0,0,.7,1.54A2.7,2.7,0,0,0,35.74,31.31Zm1.43,10.12a2.72,2.72,0,0,0-.48-1A2.73,2.73,0,0,0,37.6,40,2.75,2.75,0,0,0,38.13,41,2.85,2.85,0,0,0,37.18,41.43ZM38.06,36a2.7,2.7,0,0,0,1.25-.63,2.7,2.7,0,0,0,.51,1.19,2.75,2.75,0,0,0-1.21.54A2.75,2.75,0,0,0,38.06,36ZM40,47.5a3,3,0,0,0-.42-1,2.82,2.82,0,0,0,1-.57,2.71,2.71,0,0,0,.52,1A2.79,2.79,0,0,0,40,47.5ZM41,42a2.77,2.77,0,0,0,1.12-.57,2.74,2.74,0,0,0,.5,1.22,2.71,2.71,0,0,0-1,.53A2.83,2.83,0,0,0,41,42Zm1.94,11.28a2.89,2.89,0,0,0-.38-.82,2.82,2.82,0,0,0,.86-.42,2.85,2.85,0,0,0,.37.88A2.9,2.9,0,0,0,42.89,53.29Zm1.57-4.2a2.8,2.8,0,0,0-.58-1.14,2.69,2.69,0,0,0,1-.45,2.82,2.82,0,0,0,.52,1.15A2.84,2.84,0,0,0,44.47,49.09Zm1-5.38a2.76,2.76,0,0,0,1.14-.61,2.75,2.75,0,0,0,.55,1,2.84,2.84,0,0,0-1.25.56A2.72,2.72,0,0,0,45.49,43.71Zm1.78,11.36a3,3,0,0,0-.41-.93,2.86,2.86,0,0,0,.91-.41,2.86,2.86,0,0,0,.41.86A2.8,2.8,0,0,0,47.28,55.07Zm1.16-5.38a2.84,2.84,0,0,0,1.07-.56,2.79,2.79,0,0,0,.43,1,2.84,2.84,0,0,0-1.06.46A2.83,2.83,0,0,0,48.44,49.69Zm1.81,11.14a2.93,2.93,0,0,0-.34-.84,2.86,2.86,0,0,0,.71-.33,2.86,2.86,0,0,0,.37.83A2.9,2.9,0,0,0,50.25,60.83Zm1.53-4.34a2.84,2.84,0,0,0-.4-.85,2.86,2.86,0,0,0,.79-.38,2.86,2.86,0,0,0,.39.88A2.82,2.82,0,0,0,51.77,56.5Zm1.06-5.24a2.79,2.79,0,0,0,1.09-.51,2.76,2.76,0,0,0,.45,1,2.86,2.86,0,0,0-1.1.48A2.87,2.87,0,0,0,52.83,51.25ZM54.6,62.33a2.87,2.87,0,0,0-.35-.73,2.8,2.8,0,0,0,.83-.42,3,3,0,0,0,.33.74A2.91,2.91,0,0,0,54.6,62.33ZM56.09,58a2.77,2.77,0,0,0-.34-.75,2.87,2.87,0,0,0,.85-.4,2.89,2.89,0,0,0,.31.7A3,3,0,0,0,56.09,58Zm1.58-4.37a2.83,2.83,0,0,0-.46-.88,2.77,2.77,0,0,0,.94-.4,2.82,2.82,0,0,0,.38.85A2.91,2.91,0,0,0,57.68,53.66Zm4.56,1.59a2.92,2.92,0,0,0-.45-.95,2.8,2.8,0,0,0,.91-.52,2.8,2.8,0,0,0,.39,1.06A3,3,0,0,0,62.24,55.24Zm3-8.47a2.76,2.76,0,0,0-.68-1.37,2.6,2.6,0,0,0,1.36-.73,2.56,2.56,0,0,0,.6,1.48A2.67,2.67,0,0,0,65.24,46.77Zm2.93,5.73a2.83,2.83,0,0,0-.6-1,2.68,2.68,0,0,0,1.16-.57,2.78,2.78,0,0,0,.43,1.18A2.94,2.94,0,0,0,68.17,52.5Zm1.51-4.09A2.68,2.68,0,0,0,69,47a2.57,2.57,0,0,0,1.45-.89,2.57,2.57,0,0,0,.7,1.64A2.74,2.74,0,0,0,69.67,48.42Zm5.91-2.78a2.56,2.56,0,0,0-.85-1.57,2.65,2.65,0,0,0,1.66-.7A2.65,2.65,0,0,0,77,44.9,2.7,2.7,0,0,0,75.58,45.63Z"/><path class="cls-1" d="M52.95,65.57a1.5,1.5,0,0,1-1-.42A197,197,0,0,1,34.84,46.34a1.5,1.5,0,0,1-.23-.42,1.49,1.49,0,0,1-.35-.33C30.37,40.42,28,36.18,27.19,33a16.85,16.85,0,0,1-.47-5.66,1.52,1.52,0,0,1,0-.16s0-.08,0-.12a12.92,12.92,0,0,1,1.4-4.54,1.49,1.49,0,0,1,.13-.2A1.52,1.52,0,0,1,28.4,22a13.47,13.47,0,0,1,2.3-2.91,13.06,13.06,0,0,1,9.09-3.68h0a1.5,1.5,0,0,1,1.12.5,1.5,1.5,0,0,1,1.19-.35,17.79,17.79,0,0,1,3.43.84,1.5,1.5,0,0,1,.58.37,1.51,1.51,0,0,1,.69.13,11.82,11.82,0,0,1,1.14.57,1.5,1.5,0,0,1,.55,2l-.06.12c-.9,1.7-2.57,4.86-1.42,12v.05a13.69,13.69,0,0,0,.33,1.42,1.48,1.48,0,0,1,.13.44A22.83,22.83,0,0,0,49.39,38a1.5,1.5,0,0,1,.17.49,1.49,1.49,0,0,1,.34.38,21.32,21.32,0,0,0,4,4.74,25.62,25.62,0,0,1-5.41-13.28v-.05h0a26.39,26.39,0,0,1-.08-4.19A20,20,0,0,1,49.72,20l0,0a19.5,19.5,0,0,1,2.42-4.38,1.5,1.5,0,0,1,1.6-.56A3.9,3.9,0,0,1,56,16.64a4,4,0,0,1,4.5,1.61,4,4,0,0,1,3.31.49,3.8,3.8,0,0,1,7-1.72,3.8,3.8,0,0,1,4.38,5.71,4,4,0,0,1,3,1.75,3.91,3.91,0,0,1,1.06-.14,4,4,0,0,1,3.32,1.79,3.94,3.94,0,0,1,2.57,0A1.5,1.5,0,0,1,86.07,28a14.58,14.58,0,0,1-5.58,7.66l-.22.13a4,4,0,0,1-1.17.65,1.5,1.5,0,0,1-.42.34,18.69,18.69,0,0,1-5.4,1.86,18.28,18.28,0,0,1-4.27.25,1.5,1.5,0,0,1-.51-.12,2.36,2.36,0,0,1-.36,0H68a17.45,17.45,0,0,1-4.36-1.09l-.21-.1-.18-.06a16.62,16.62,0,0,1-3.41-1.94,14,14,0,0,0,2.94,2.5,1.5,1.5,0,0,1,.59.71,1.5,1.5,0,0,1,.92.13,16,16,0,0,0,2.34.92,1.5,1.5,0,0,1,.77.55l.07.1.25-.06a1.5,1.5,0,0,1,.9-.12,17.85,17.85,0,0,0,2.93.27l.26,0,.24,0a19.11,19.11,0,0,0,3.09-.31,14,14,0,0,0,7-3.43,1.5,1.5,0,0,1,.8-.37,1.5,1.5,0,0,1,.37-.81,18,18,0,0,0,2.14-3l.06-.09.05-.11a22.46,22.46,0,0,0,1.57-3.45,1.5,1.5,0,0,1,2.9.66c-.43,4.15-2.64,8.58-6.21,12.49a1.5,1.5,0,0,1-.71.44,1.5,1.5,0,0,1-.41.74A32.85,32.85,0,0,1,79.7,46c-.29.21-.85.66-1.66,1.31l-2.3,1.83a1.5,1.5,0,0,1-.34.2,4,4,0,0,1-.45.28,1.46,1.46,0,0,1-.37.43c-2.72,2.13-5.19,4-7.56,5.71-6.73,4.89-13.2,9.56-13.2,9.56A1.5,1.5,0,0,1,52.95,65.57Zm-.69-4.28.5.5a1.5,1.5,0,0,1,1-1.62,1.31,1.31,0,0,0,.39-.19A1.5,1.5,0,0,1,56,60l1.42-1h0a1.46,1.46,0,0,0-.4.22,1.5,1.5,0,0,1-2.35-.74,1.34,1.34,0,0,0-.15-.35,1.5,1.5,0,0,1,.81-2.29,1.38,1.38,0,0,0,.41-.19,1.5,1.5,0,0,1,2.3.79,1.41,1.41,0,0,0,.15.34,1.5,1.5,0,0,1-.1,1.73l3.07-2.23a1.5,1.5,0,0,1-.36-.64,1.42,1.42,0,0,0-.22-.46,1.5,1.5,0,0,1,.73-2.3,1.29,1.29,0,0,0,.42-.24,1.5,1.5,0,0,1,.88-.36,1.5,1.5,0,0,1-.44-.85,1.22,1.22,0,0,0,0-.14c-.73-.2-1.45-.42-2.13-.67a1.5,1.5,0,0,1-2.14-.88q-.89-.41-1.74-.88a1.39,1.39,0,0,0-.29.17,1.5,1.5,0,0,1-2.36-.82,1.27,1.27,0,0,0-.3-.56,1.5,1.5,0,0,1-.39-.88,1.5,1.5,0,0,1-.82.5,1.27,1.27,0,0,0-.53.26,1.49,1.49,0,0,1-1.14.32,1.5,1.5,0,0,1,.68,1,1.29,1.29,0,0,0,.2.46,1.5,1.5,0,0,1-.93,2.33,1.33,1.33,0,0,0-.5.22,1.5,1.5,0,0,1-2.3-.8,1.33,1.33,0,0,0-.21-.42A1.5,1.5,0,0,1,48,48.24a1.34,1.34,0,0,0,.5-.27,1.5,1.5,0,0,1,1.15-.34,1.5,1.5,0,0,1-.68-1,1.34,1.34,0,0,0-.31-.61,1.5,1.5,0,0,1-.37-1,1.5,1.5,0,0,1-.89.51,1.34,1.34,0,0,0-.59.27A1.5,1.5,0,0,1,44.47,45a1.21,1.21,0,0,0-.2-.44,1.5,1.5,0,0,1,.85-2.33,1.25,1.25,0,0,0,.52-.28,1.51,1.51,0,0,1,1.15-.37,1.5,1.5,0,0,1-.77-.93,1.22,1.22,0,0,0-.26-.48,1.5,1.5,0,0,1-.36-.78,1.5,1.5,0,0,1-.78.35,1.24,1.24,0,0,0-.64.28,1.5,1.5,0,0,1-.84.35,1.5,1.5,0,0,1,.4.81,1.24,1.24,0,0,0,.23.55A1.5,1.5,0,0,1,43,44.1a1.21,1.21,0,0,0-.46.24,1.5,1.5,0,0,1-1,.34,1.5,1.5,0,0,1,.64.9,1.21,1.21,0,0,0,.23.47,1.5,1.5,0,0,1,.32,1.08,1.5,1.5,0,0,1,.92-.64,1.19,1.19,0,0,0,.44-.2,1.5,1.5,0,0,1,2.36.93,1.31,1.31,0,0,0,.25.54,1.5,1.5,0,0,1-.8,2.34,1.35,1.35,0,0,0-.44.21A1.5,1.5,0,0,1,43,49.44a1.29,1.29,0,0,0-.27-.53,1.5,1.5,0,0,1-.34-1.11,1.5,1.5,0,0,1-1,.64,1.29,1.29,0,0,0-.52.25l-.21.13q.87,1,1.75,2l0,0a1.5,1.5,0,0,1,2.34.86,1.35,1.35,0,0,0,.18.42,1.5,1.5,0,0,1,.13,1.37,1.52,1.52,0,0,1-.12.24l.35.39a1.5,1.5,0,0,1,1.12-1.43,1.37,1.37,0,0,0,.43-.19,1.5,1.5,0,0,1,2.3.81,1.37,1.37,0,0,0,.19.41,1.5,1.5,0,0,1-.77,2.3,1.31,1.31,0,0,0-.43.23,1.5,1.5,0,0,1-.6.29l1.92,2a1.22,1.22,0,0,0,.26-.12,1.5,1.5,0,0,1,2.27.84,1.38,1.38,0,0,0,.17.4,1.5,1.5,0,0,1,0,1.64ZM63.74,52.7a1.5,1.5,0,0,1,.44.85,1.31,1.31,0,0,0,.15.44l.95-.69,1.17-.86a1.5,1.5,0,0,1-.37-.86,1.5,1.5,0,0,1-.84.46,1.31,1.31,0,0,0-.61.3A1.5,1.5,0,0,1,63.74,52.7Zm1.67-4.44a1.5,1.5,0,0,1,.42.78,1.19,1.19,0,0,0,.28.55,1.5,1.5,0,0,1,.36.85,1.5,1.5,0,0,1,.8-.46,1.19,1.19,0,0,0,.51-.26,1.5,1.5,0,0,1,.77-.33,1.5,1.5,0,0,1-.35-.76A1.17,1.17,0,0,0,67.9,48a1.5,1.5,0,0,1-.36-.76,1.5,1.5,0,0,1-.75.37,1.18,1.18,0,0,0-.57.28A1.5,1.5,0,0,1,65.4,48.26ZM61,46.59a26,26,0,0,0,2.31,1.62h0a1.5,1.5,0,0,1,.83-.37,1.5,1.5,0,0,1-.42-.8,1.25,1.25,0,0,0-.31-.63,1.5,1.5,0,0,1-.37-.76,1.5,1.5,0,0,1-.77.36,1.24,1.24,0,0,0-.61.27A1.5,1.5,0,0,1,61,46.59Zm10.84-1a1.49,1.49,0,0,1,.09.44,1.06,1.06,0,0,0,.29.68,1.49,1.49,0,0,1,.33.55,1.38,1.38,0,0,1,.59-.24,1.06,1.06,0,0,0,.58-.27,1.5,1.5,0,0,1,.45-.29l.08-.06a1.49,1.49,0,0,1-.21-.57,1.06,1.06,0,0,0-.35-.65,1.49,1.49,0,0,1-.31-.37,1.5,1.5,0,0,1-.47.11,1.06,1.06,0,0,0-.74.38A1.49,1.49,0,0,1,71.88,45.61ZM67.28,44a1.5,1.5,0,0,1,.14.53,1.07,1.07,0,0,0,.25.62,1.5,1.5,0,0,1,.34.74,1.5,1.5,0,0,1,.71-.37,1.08,1.08,0,0,0,.6-.38,1.5,1.5,0,0,1,.34-.3,1.51,1.51,0,0,1-.09-.45,1.07,1.07,0,0,0-.37-.76,1.55,1.55,0,0,1-.19-.2l-.47-.07h-.08a1.09,1.09,0,0,0-.73.32A1.5,1.5,0,0,1,67.28,44Zm-29.43,1.3.4.51a1.5,1.5,0,0,1,.9-.76,1.32,1.32,0,0,0,.48-.27,1.51,1.51,0,0,1,1.08-.37,1.5,1.5,0,0,1-.64-.93A1.33,1.33,0,0,0,39.8,43a1.5,1.5,0,0,1-.28-1.36,1.5,1.5,0,0,1-1.06.9,1.35,1.35,0,0,0-.45.19,1.5,1.5,0,0,1-2.29-.89,1.24,1.24,0,0,0-.22-.46A1.5,1.5,0,0,1,36.27,39a1.22,1.22,0,0,0,.41-.21,1.5,1.5,0,0,1,2.38.84,1.25,1.25,0,0,0,.24.49,1.5,1.5,0,0,1,.26,1.35,1.5,1.5,0,0,1,1-.89,1.27,1.27,0,0,0,.51-.27,1.5,1.5,0,0,1,.84-.34,1.5,1.5,0,0,1-.4-.81,1.25,1.25,0,0,0-.25-.58,1.5,1.5,0,0,1-.3-1,1.5,1.5,0,0,1-.93.56,1.25,1.25,0,0,0-.55.25,1.5,1.5,0,0,1-2.38-.84,1.26,1.26,0,0,0-.25-.5,1.5,1.5,0,0,1-.34-1,1.5,1.5,0,0,1-.88.52,1.26,1.26,0,0,0-.52.23,1.5,1.5,0,0,1-2.36-.89,1.26,1.26,0,0,0-.27-.53,1.5,1.5,0,0,1-.34-1,1.5,1.5,0,0,1-.87.52l-.24.07q.48,1.06,1.16,2.25l.07,0a1.5,1.5,0,0,1,2.36.89,1.24,1.24,0,0,0,.23.49,1.5,1.5,0,0,1-.43,2.2q.72,1.06,1.56,2.19a1.5,1.5,0,0,1,1.43,1.17,1.31,1.31,0,0,0,.17.41A1.5,1.5,0,0,1,37.85,45.32Zm20.59-1,.45.44a1.5,1.5,0,0,1-.27-.58Zm4.39-1.89a1.51,1.51,0,0,1,.16.55,1.07,1.07,0,0,0,.25.61,1.5,1.5,0,0,1,.33.72,1.5,1.5,0,0,1,.71-.35,1.1,1.1,0,0,0,.58-.31,1.5,1.5,0,0,1,.44-.31,1.5,1.5,0,0,1-.14-.54,1,1,0,0,0,0-.2c-.55-.19-1.1-.4-1.63-.65a.92.92,0,0,0-.2.15A1.5,1.5,0,0,1,62.82,42.38Zm-15.51-.62a1.5,1.5,0,0,1,.76.93,1.26,1.26,0,0,0,.25.47,1.5,1.5,0,0,1,.35.94,1.5,1.5,0,0,1,.86-.5l.09,0a24.53,24.53,0,0,1-1.52-2A1.52,1.52,0,0,1,47.32,41.76Zm30.45,1a1.49,1.49,0,0,1,.13.51,1.18,1.18,0,0,0,.05.28c.57-.44,1.13-.91,1.68-1.41l-.05-.06A17,17,0,0,1,77.76,42.75ZM58,40.63a1.5,1.5,0,0,1,.46.81,1.15,1.15,0,0,0,.29.54,1.5,1.5,0,0,1,.36.69,1.5,1.5,0,0,1,.7-.33,1.14,1.14,0,0,0,.61-.32,1.5,1.5,0,0,1,.48-.33,1.5,1.5,0,0,1-.16-.57,1.15,1.15,0,0,0-.28-.67,1.5,1.5,0,0,1-.26-.43l-.2-.15a1.5,1.5,0,0,1-.56.2,1.13,1.13,0,0,0-.55.24A1.5,1.5,0,0,1,58,40.63Zm-3.71-1.76c.39.69.81,1.35,1.25,2a1.19,1.19,0,0,0,.5-.25,1.5,1.5,0,0,1,.89-.34,1.5,1.5,0,0,1-.46-.82,1.2,1.2,0,0,0-.29-.57,1.5,1.5,0,0,1-.35-.72,1.5,1.5,0,0,1-.74.33,1.17,1.17,0,0,0-.57.26A1.49,1.49,0,0,1,54.29,38.87Zm-9.46-3a1.5,1.5,0,0,1,.45.81,1.26,1.26,0,0,0,.3.59,1.5,1.5,0,0,1,.35.77L46,38c-.37-.77-.67-1.5-.91-2.16Zm-4.41-1.51a1.5,1.5,0,0,1,.37.77,1.21,1.21,0,0,0,.23.53,1.5,1.5,0,0,1,.3,1,1.5,1.5,0,0,1,.91-.56,1.21,1.21,0,0,0,.58-.29,1.5,1.5,0,0,1,.84-.37,1.5,1.5,0,0,1-.44-.8,1.23,1.23,0,0,0-.33-.61,1.5,1.5,0,0,1-.37-.65,1.5,1.5,0,0,1-.7.3,1.2,1.2,0,0,0-.62.29A1.49,1.49,0,0,1,40.41,34.39Zm15.17.49a1.5,1.5,0,0,1,.13.47A1.16,1.16,0,0,0,56,36a1.49,1.49,0,0,1,.34.71,1.5,1.5,0,0,1,.31-.2A16,16,0,0,1,55.59,34.87Zm15,.39a1.49,1.49,0,0,1,.11.46,1,1,0,0,0,0,.2,14.56,14.56,0,0,0,2-.22h0a1.44,1.44,0,0,1,0-.2,1,1,0,0,0-.42-.69,1.56,1.56,0,0,1-.23-.21h-.44a1,1,0,0,0-.72.36A1.51,1.51,0,0,1,70.56,35.27Zm-4.34-1.05a1,1,0,0,0,.27.63,1.49,1.49,0,0,1,.32.59,1.5,1.5,0,0,1,.62-.26,1,1,0,0,0,.61-.34,1.51,1.51,0,0,1,.36-.3,1.49,1.49,0,0,1-.11-.46,1,1,0,0,0-.42-.76,1.51,1.51,0,0,1-.24-.22,1.51,1.51,0,0,1-.33,0h-.09a1,1,0,0,0-.71.35,1.5,1.5,0,0,1-.31.26,1.49,1.49,0,0,1,0,.39S66.23,34.18,66.23,34.21ZM36,32.8a1.5,1.5,0,0,1,.36.75,1.19,1.19,0,0,0,.25.56,1.5,1.5,0,0,1,.33,1,1.5,1.5,0,0,1,.86-.51,1.2,1.2,0,0,0,.55-.29,1.5,1.5,0,0,1,.77-.35,1.51,1.51,0,0,1-.37-.76,1.21,1.21,0,0,0-.33-.66,1.49,1.49,0,0,1-.35-.57,1.5,1.5,0,0,1-.65.23,1.2,1.2,0,0,0-.65.29A1.5,1.5,0,0,1,36,32.8Zm15.88-.25a21.89,21.89,0,0,0,.61,2.22l.08,0a1.16,1.16,0,0,0,.62-.32,1.49,1.49,0,0,1,.52-.34,1.5,1.5,0,0,1-.2-.61,1.14,1.14,0,0,0-.37-.74,1.49,1.49,0,0,1-.32-.42,1.49,1.49,0,0,1-.51.12A1.12,1.12,0,0,0,51.85,32.55Zm24.78-.32a1.5,1.5,0,0,1,.09.45,1,1,0,0,0,.35.73,1.49,1.49,0,0,1,.26.3,1.43,1.43,0,0,1,.42,0h.06a1,1,0,0,0,.7-.33,1.5,1.5,0,0,1,.37-.28,1.5,1.5,0,0,1-.08-.45,1,1,0,0,0-.35-.75,1.49,1.49,0,0,1-.3-.37,1.51,1.51,0,0,1-.46.11,1,1,0,0,0-.7.34A1.5,1.5,0,0,1,76.63,32.24ZM61.72,32a1.5,1.5,0,0,1,.09.46,1,1,0,0,0,.3.7,1.49,1.49,0,0,1,.3.42,1.51,1.51,0,0,1,.51-.13,1,1,0,0,0,.69-.33,1.5,1.5,0,0,1,.31-.26,1.5,1.5,0,0,1,0-.44v0a1,1,0,0,0-.36-.72,1.49,1.49,0,0,1-.29-.34,1.5,1.5,0,0,1-.44.08,1,1,0,0,0-.73.33A1.51,1.51,0,0,1,61.72,32Zm-30.08-.71A1.5,1.5,0,0,1,32,32a1.13,1.13,0,0,0,.23.5,1.5,1.5,0,0,1,.31.93,1.5,1.5,0,0,1,.84-.51,1.12,1.12,0,0,0,.49-.25,1.5,1.5,0,0,1,.75-.34,1.5,1.5,0,0,1-.35-.73,1.15,1.15,0,0,0-.35-.64,1.51,1.51,0,0,1-.33-.45,1.49,1.49,0,0,1-.55.15,1.14,1.14,0,0,0-.65.27A1.5,1.5,0,0,1,31.64,31.24Zm40.6-.54a1.51,1.51,0,0,1,.07.41,1,1,0,0,0,.43.8,1.5,1.5,0,0,1,.23.2,1.36,1.36,0,0,1,.3,0h.13a1,1,0,0,0,.71-.35,1.5,1.5,0,0,1,.36-.29,1.49,1.49,0,0,1-.09-.45,1,1,0,0,0-.36-.73,1.49,1.49,0,0,1-.28-.32,1.49,1.49,0,0,1-.42.07,1,1,0,0,0-.78.39A1.51,1.51,0,0,1,72.23,30.7Zm-30-.7a1.49,1.49,0,0,1,.19.59,1.09,1.09,0,0,0,.28.64,1.5,1.5,0,0,1,.35.63,1.5,1.5,0,0,1,.66-.3,1.1,1.1,0,0,0,.27-.09q-.16-1.12-.24-2.13l-.27,0a1.1,1.1,0,0,0-.73.3A1.5,1.5,0,0,1,42.2,30Zm16.2-.29a11.56,11.56,0,0,0,1.08,1.52l.1-.06a1.51,1.51,0,0,1-.09-.46,1,1,0,0,0-.35-.73,1.5,1.5,0,0,1-.28-.33,1.51,1.51,0,0,1-.42.06Zm-28.73-.36a14.29,14.29,0,0,0,.16,1.56,1.5,1.5,0,0,1,.48-.15,1.5,1.5,0,0,1-.37-.78A1.28,1.28,0,0,0,29.67,29.35Zm38.12-.15a1.49,1.49,0,0,1,.06.4,1,1,0,0,0,.42.81,1.51,1.51,0,0,1,.24.22,1.35,1.35,0,0,1,.34,0h.08a1,1,0,0,0,.73-.38,1.52,1.52,0,0,1,.3-.28,1.49,1.49,0,0,1-.07-.4,1,1,0,0,0-.45-.8l-.2-.15h-.27l-.14,0a1,1,0,0,0-.7.35A1.51,1.51,0,0,1,67.78,29.2Zm-15-.52a1.5,1.5,0,0,1,.18.55,1,1,0,0,0,.31.62,1.5,1.5,0,0,1,.3.39,1.55,1.55,0,0,1,.29-.09,16.15,16.15,0,0,1-.26-2,1,1,0,0,0-.34.22A1.5,1.5,0,0,1,52.75,28.69Zm-14.93-.29A1.49,1.49,0,0,1,38,29a1.08,1.08,0,0,0,.29.65,1.49,1.49,0,0,1,.34.55,1.5,1.5,0,0,1,.61-.23,1.1,1.1,0,0,0,.61-.29,1.5,1.5,0,0,1,.52-.32,1.5,1.5,0,0,1-.19-.59,1.07,1.07,0,0,0-.28-.63,1.51,1.51,0,0,1-.32-.53,1.5,1.5,0,0,1-.59.18,1.08,1.08,0,0,0-.67.29A1.5,1.5,0,0,1,37.82,28.39Zm40.47,0a1,1,0,0,0,.32.66,1.48,1.48,0,0,1,.28.35,1.49,1.49,0,0,1,.45-.11,1,1,0,0,0,.75-.46l.11-.16a1.49,1.49,0,0,1,0-.21l0-.14a1,1,0,0,0-1-.95,1,1,0,0,0-.74.36,1.52,1.52,0,0,1-.26.25,1.49,1.49,0,0,1,0,.32S78.29,28.32,78.29,28.35Zm-15-.82a1.49,1.49,0,0,1,.09.45,1,1,0,0,0,.35.72A1.49,1.49,0,0,1,64,29a1.48,1.48,0,0,1,.44-.08,1,1,0,0,0,.74-.35,1.49,1.49,0,0,1,.33-.28,1.5,1.5,0,0,1-.06-.41,1,1,0,0,0-.39-.8,1.51,1.51,0,0,1-.27-.29,1.67,1.67,0,0,1-.41,0,1,1,0,0,0-.75.36A1.49,1.49,0,0,1,63.31,27.53Zm-29.89-.75a1.5,1.5,0,0,1,.19.59,1.08,1.08,0,0,0,.33.68,1.51,1.51,0,0,1,.32.45,1.5,1.5,0,0,1,.54-.15,1.09,1.09,0,0,0,.67-.3,1.5,1.5,0,0,1,.51-.32,1.5,1.5,0,0,1-.18-.59,1.09,1.09,0,0,0-.3-.67,1.49,1.49,0,0,1-.32-.49,1.5,1.5,0,0,1-.58.18,1.09,1.09,0,0,0-.65.29A1.5,1.5,0,0,1,33.43,26.78Zm40.52-.46a1.51,1.51,0,0,1,0,.28l0,.15a.94.94,0,0,0,.34.64,1.49,1.49,0,0,1,.27.31,1.51,1.51,0,0,1,.4-.07,1,1,0,0,0,.7-.35A1.51,1.51,0,0,1,75.9,27a1.5,1.5,0,0,1,0-.32s0-.06,0-.09a1,1,0,0,0-1-.93,1,1,0,0,0-.78.41A1.5,1.5,0,0,1,73.95,26.32ZM59.13,26a1.51,1.51,0,0,1,0,.29l0,.16a1,1,0,0,0,.33.63,1.51,1.51,0,0,1,.26.32,1.49,1.49,0,0,1,.4-.06,1,1,0,0,0,.7-.32,1.5,1.5,0,0,1,.34-.28,1.51,1.51,0,0,1-.09-.43,1,1,0,0,0-.34-.68,1.5,1.5,0,0,1-.26-.29,1.5,1.5,0,0,1-.38.06,1,1,0,0,0-.77.41A1.53,1.53,0,0,1,59.13,26Zm-29.32.85,0,.1a1.5,1.5,0,0,1,.63-.24,1.07,1.07,0,0,0,.61-.29,1.51,1.51,0,0,1,.52-.33,1.5,1.5,0,0,1-.19-.59,1.08,1.08,0,0,0-.29-.64,1.5,1.5,0,0,1-.34-.58,1.5,1.5,0,0,1-.24.14A9.93,9.93,0,0,0,29.81,26.87ZM70.23,26h.13l.15,0a.94.94,0,0,0,.72-.41,1.53,1.53,0,0,1,.17-.2,1.51,1.51,0,0,1,0-.26s0-.15,0-.18a1,1,0,0,0-.54-.77l-.11-.06-.1,0-.22,0a1,1,0,0,0-.76.38,1.5,1.5,0,0,1-.24.24,1.49,1.49,0,0,1,0,.31s0,0,0,.07a1,1,0,0,0,.44.76l.19.15Zm-30.6-1.83a1.49,1.49,0,0,1,.06.42,1,1,0,0,0,.28.69,1.49,1.49,0,0,1,.3.51,1.5,1.5,0,0,1,.57-.18,1,1,0,0,0,.7-.37,1.49,1.49,0,0,1,.31-.28,1.51,1.51,0,0,1-.07-.4,1,1,0,0,0-.42-.8,1.5,1.5,0,0,1-.27-.26,1.5,1.5,0,0,1-.36,0,1,1,0,0,0-.76.35A1.51,1.51,0,0,1,39.64,24.16Zm25.39-1a1.47,1.47,0,0,1,0,.35,1,1,0,0,0,.35.71,1.52,1.52,0,0,1,.26.28,1.49,1.49,0,0,1,.36,0,1,1,0,0,0,.75-.38,1.48,1.48,0,0,1,.24-.25,1.49,1.49,0,0,1,0-.31s0-.06,0-.09a1,1,0,0,0-.58-.82l0,0-.1,0a1,1,0,0,0-.24,0,1,1,0,0,0-.76.38A1.49,1.49,0,0,1,65,23.17Zm-29.91-.72a1.5,1.5,0,0,1,.12.49,1.06,1.06,0,0,0,.29.68,1.5,1.5,0,0,1,.32.49,1.51,1.51,0,0,1,.56-.18,1,1,0,0,0,.68-.34,1.49,1.49,0,0,1,.35-.28,1.49,1.49,0,0,1-.06-.43,1.07,1.07,0,0,0-.38-.8,1.49,1.49,0,0,1-.29-.33,1.52,1.52,0,0,1-.42.07,1.05,1.05,0,0,0-.76.34A1.5,1.5,0,0,1,35.12,22.46Zm16.9.1q-.2.71-.35,1.43a1,1,0,0,0,.24-.2,1.51,1.51,0,0,1,.35-.29,1.48,1.48,0,0,1-.08-.44A1,1,0,0,0,52,22.56Zm8.66-.87a1.49,1.49,0,0,1,0,.31l0,.14a.94.94,0,0,0,.35.64,1.48,1.48,0,0,1,.26.29,1.49,1.49,0,0,1,.38-.06,1,1,0,0,0,.74-.38,1.5,1.5,0,0,1,.25-.26,1.48,1.48,0,0,1,0-.35,1,1,0,0,0-1-.95,1,1,0,0,0-.79.41A1.53,1.53,0,0,1,60.68,21.69Zm-27.77-.52-.14.13a10.74,10.74,0,0,0-1,1.13l.23-.05a1.09,1.09,0,0,0,.65-.34,1.51,1.51,0,0,1,.4-.31,1.51,1.51,0,0,1-.12-.49Zm23.33-1.1a1.42,1.42,0,0,1,0,.22v.15a1,1,0,0,0,.29.67,1.5,1.5,0,0,1,.27.38,1.49,1.49,0,0,1,.47-.11A1,1,0,0,0,58,21a1.52,1.52,0,0,1,.17-.2,1.54,1.54,0,0,1,0-.26s0-.1,0-.15a1,1,0,0,0-1.78-.47Zm15.54,1.3h.08l.17,0a.83.83,0,1,0-.36-.09Zm-30.6-1.69a1.5,1.5,0,0,1,.06.39,1,1,0,0,0,.4.78,1.51,1.51,0,0,1,.26.25,1.53,1.53,0,0,1,.35,0,1,1,0,0,0,.77-.38,1.5,1.5,0,0,1,.26-.25,1.5,1.5,0,0,1,0-.33s0,0,0-.08a1,1,0,0,0-.4-.75,1.49,1.49,0,0,1-.23-.21,1.63,1.63,0,0,1-.31,0h-.12a1,1,0,0,0-.7.36A1.51,1.51,0,0,1,41.19,19.68Zm26.13.09.07,0,.2,0a.81.81,0,1,0-.32-.07Zm-13.68-1q-.21.35-.4.71a.89.89,0,0,0,.25-.25l.12-.16a1.56,1.56,0,0,1,0-.21ZM37,18.84a1,1,0,0,0,.25.35,1.5,1.5,0,0,1,.27.32,1.53,1.53,0,0,1,.4-.07,1,1,0,0,0,.69-.33,1.5,1.5,0,0,1,.3-.26,1.5,1.5,0,0,1-.06-.35A10.3,10.3,0,0,0,37,18.84ZM51.77,58a1.5,1.5,0,0,1-1.44-1.08,1.35,1.35,0,0,0-.18-.4,1.5,1.5,0,0,1,.77-2.3A1.38,1.38,0,0,0,51.3,54a1.5,1.5,0,0,1,2.31.84,1.36,1.36,0,0,0,.18.42A1.5,1.5,0,0,1,53,57.58a1.34,1.34,0,0,0-.37.16A1.5,1.5,0,0,1,51.77,58Zm5.9-2.84a1.5,1.5,0,0,1-1.43-1.05,1.33,1.33,0,0,0-.21-.42,1.5,1.5,0,0,1,.87-2.38,1.26,1.26,0,0,0,.43-.18,1.5,1.5,0,0,1,2.28.86,1.33,1.33,0,0,0,.17.4,1.5,1.5,0,0,1-.8,2.28,1.42,1.42,0,0,0-.42.21A1.5,1.5,0,0,1,57.68,55.16Zm-4.41-1.48a1.5,1.5,0,0,1-1.45-1.1,1.37,1.37,0,0,0-.21-.44,1.5,1.5,0,0,1,.89-2.34,1.3,1.3,0,0,0,.5-.24,1.5,1.5,0,0,1,2.36.82,1.27,1.27,0,0,0,.21.44,1.5,1.5,0,0,1-.92,2.36,1.35,1.35,0,0,0-.52.23A1.5,1.5,0,0,1,53.27,53.67Z"/><circle class="cls-3" cx="73.62" cy="16.21" r="2.22"/><path class="cls-1" d="M73.62,19.93a3.72,3.72,0,1,1,3.72-3.72A3.73,3.73,0,0,1,73.62,19.93Zm0-4.45a.72.72,0,1,0,.72.72A.73.73,0,0,0,73.62,15.48Z"/><circle class="cls-3" cx="69.17" cy="14.59" r="2.22"/><path class="cls-1" d="M69.17,18.32a3.72,3.72,0,1,1,3.72-3.72A3.73,3.73,0,0,1,69.17,18.32Zm0-4.45a.72.72,0,1,0,.72.72A.73.73,0,0,0,69.17,13.87Z"/><circle class="cls-3" cx="78.07" cy="17.79" r="2.22"/><path class="cls-1" d="M78.07,21.51a3.72,3.72,0,1,1,3.72-3.72A3.73,3.73,0,0,1,78.07,21.51Zm0-4.45a.72.72,0,1,0,.72.72A.73.73,0,0,0,78.07,17.06Z"/><path class="cls-3" d="M80.25,19.37a2.22,2.22,0,0,0,4.42.33,14.13,14.13,0,0,0-.77-2,2.21,2.21,0,0,0-3.65,1.69Z"/><path class="cls-1" d="M82.47,23.09a3.72,3.72,0,1,1,2.39-6.57,1.5,1.5,0,0,1,.39.51,15.67,15.67,0,0,1,.85,2.24,1.5,1.5,0,0,1,0,.65A3.7,3.7,0,0,1,82.47,23.09Zm0-4.45a.72.72,0,0,0,0,1.45.71.71,0,0,0,.63-.37c-.12-.35-.25-.7-.39-1A.67.67,0,0,0,82.47,18.65Z"/><path class="cls-2" d="M92.8,5.17C88.38,1.47,82.17.63,76.21,2.37A21.53,21.53,0,0,1,91,7.12a19.31,19.31,0,0,1,6.79,13.31C98.86,14.6,97.23,8.87,92.8,5.17Z"/><path class="cls-2" d="M27.08,81.11h5.07l.54,22.63H26.43V90.53l-7.53,13.2H15L11.79,90.64,7.53,103.74h-6L9.76,81.11h5l3.73,13.74Z"/><path class="cls-2" d="M50.45,101.1c-2.88,2.34-5,3.18-8.3,3.18a7.09,7.09,0,0,1-5.61-2.56A7.64,7.64,0,0,1,35,96.68a11.87,11.87,0,0,1,3-7.35,10,10,0,0,1,7-3.07c4,0,6.3,1.69,6.3,4.64,0,3.29-3.53,5.78-10.14,7.13a2.66,2.66,0,0,0,2.61,2.34c1.8,0,3.22-.62,5.57-2.45Zm-3.81-9.66A1.37,1.37,0,0,0,45.14,90c-1.88,0-3.5,2.12-4,5.27C44.49,94.48,46.53,93.06,46.64,91.45Z"/><path class="cls-2" d="M58,103.74H52.16l4-22.63H62Z"/><path class="cls-2" d="M78.84,96.6l-.16,1.32c-.26,2,.19,2.63,1.85,2.52l-1.08,3.44a12.59,12.59,0,0,1-3.11.26c-2.22-.11-3.45-1.28-3.45-3.22-1.77,2.49-3.26,3.37-5.68,3.37-3.65,0-5.8-3-5.41-7.43a11,11,0,0,1,4.61-8.48,12.12,12.12,0,0,1,6.68-2.09,24.48,24.48,0,0,1,7.22,1.14Zm-5-5.66a2.59,2.59,0,0,0-.59-.11,4.7,4.7,0,0,0-3.29.73,7.12,7.12,0,0,0-2.23,4.68c-.19,1.91.5,3,1.88,3.08,1.08.07,2-.63,3.3-2.49Z"/><path class="cls-2" d="M95.53,90.9H91l-.84,5.38A8.43,8.43,0,0,0,90,97.7c0,1.28.73,2,2.11,2a5.77,5.77,0,0,0,2.38-.4l1.07,3.36a10.58,10.58,0,0,1-6.29,1.54c-3.34,0-5.61-2-5.42-4.94,0-.7.16-1.54.3-2.53l.92-5.89H81.82l.5-3.22c4.26-.69,5.22-1.5,7.29-6h2.76l-.77,5.08h4.57Z"/><path class="cls-2" d="M111.83,101.1c-2.88,2.34-5,3.18-8.29,3.18a7.08,7.08,0,0,1-5.6-2.56,7.61,7.61,0,0,1-1.5-5.05,11.88,11.88,0,0,1,3-7.35,10,10,0,0,1,7-3.07c4,0,6.3,1.69,6.3,4.64,0,3.29-3.53,5.78-10.14,7.13a2.67,2.67,0,0,0,2.62,2.34c1.8,0,3.22-.62,5.56-2.45ZM108,91.45a1.37,1.37,0,0,0-1.5-1.46c-1.88,0-3.5,2.12-4,5.27C105.87,94.48,107.91,93.06,108,91.45Z"/><path class="cls-3" d="M43,105.84a37.19,37.19,0,0,1,4.07-.22c2.43,0,3.9.31,5,1a4.09,4.09,0,0,1,1.84,3.48c0,1.79-1.2,3.29-3.33,4.12l3.85,6H49.64l-2.79-5H45.48l-.83,5H40.55Zm2.94,6.84h1.76a2.37,2.37,0,0,0,2.21-2.1c.07-1.26-.91-2.07-2.52-2.07-.2,0-.47,0-.76,0Z"/><path class="cls-3" d="M60.82,111.44h4.73l-.47,2.73h-4.7l-.52,3.09h6.71l-.86,3H55.4l2.4-14.47h9.44l-.46,2.87H61.28Z"/><path class="cls-3" d="M74.47,120.22H70.38l1.89-11.4H68l.52-3.07H81.19l-.51,3.07H76.38Z"/><path class="cls-3" d="M82.68,105.84a37.23,37.23,0,0,1,4.07-.22c2.43,0,3.9.31,5,1a4.09,4.09,0,0,1,1.84,3.48c0,1.79-1.2,3.29-3.33,4.12l3.85,6H89.37l-2.79-5H85.21l-.83,5H80.28Zm2.94,6.84h1.76a2.37,2.37,0,0,0,2.21-2.1c.07-1.26-.91-2.07-2.52-2.07-.2,0-.47,0-.76,0Z"/><path class="cls-3" d="M110.94,111.93a8.68,8.68,0,0,1-8.95,8.63c-4.44,0-7.13-2.43-7.13-6.4a8.89,8.89,0,0,1,2.65-6.2,9.06,9.06,0,0,1,6.2-2.54C108,105.22,110.94,107.89,110.94,111.93Zm-11.62,2c0,2.1,1.15,3.38,3,3.38a3.52,3.52,0,0,0,3-1.65,6.94,6.94,0,0,0,1.08-3.53c0-2.12-1.2-3.42-3.11-3.42C101.11,108.69,99.33,111,99.33,113.91Z"/><path class="cls-3" d="M14.28,72.4a4.37,4.37,0,0,0-2.69,1.27,3.89,3.89,0,0,1,.58-.05,2.18,2.18,0,0,1,2.39,2c0,1.64-1.18,2.69-3,2.69a3,3,0,0,1-2.4-1,2.59,2.59,0,0,1-.57-1.78A4.32,4.32,0,0,1,9.72,73a6.61,6.61,0,0,1,4.77-2Zm-3.71,3.34a1.09,1.09,0,0,0,1,1.1,1,1,0,0,0,1.14-1.1,1.08,1.08,0,0,0-1.06-1.05,2.21,2.21,0,0,0-.54,0l-.33.08A1.32,1.32,0,0,0,10.57,75.74Z"/><path class="cls-3" d="M20.68,70.64,15.9,78.73l-1.28-.22,4.78-8.09Z"/><path class="cls-3" d="M22.82,74.06a1,1,0,0,0,.86-.91c0-.38-.36-.67-.86-.67a3.41,3.41,0,0,0-1.65.46l-.24-1.29a4.71,4.71,0,0,1,2.31-.6c1.46,0,2.53.77,2.53,1.82,0,.73-.32,1.15-1.23,1.64a1.6,1.6,0,0,1,1.13,1.64,2.15,2.15,0,0,1-1.17,1.78,4.21,4.21,0,0,1-1.9.43,5.28,5.28,0,0,1-2.72-.69l.43-1.35a3.77,3.77,0,0,0,1.86.6c.78,0,1.28-.36,1.28-.91s-.39-.8-1-.8H21.39l.19-1.16Z"/><path class="cls-3" d="M26.9,77a4.91,4.91,0,0,0,2.71-1.32,2.6,2.6,0,0,1-.72.12,2.1,2.1,0,0,1-2.3-2.16,2.44,2.44,0,0,1,1-2A3.43,3.43,0,0,1,29.5,71a3.1,3.1,0,0,1,2.38.86,2.5,2.5,0,0,1,.71,1.78,4.41,4.41,0,0,1-1.24,2.85,7.27,7.27,0,0,1-4.89,1.92Zm3.66-3.26a1.08,1.08,0,1,0-1,1,1.66,1.66,0,0,0,.49-.05l.21-.08A1.2,1.2,0,0,0,30.56,73.72Z"/><path class="cls-2" d="M91.37,23.72C89.16,11.65,76.94,4.41,64,6.79A23.71,23.71,0,0,0,47.57,18.07c-.29-.25-8.77-7.09-18.16-.93-8.37,5.49-5.59,16-4.65,18.5,4.56,12.08,27.5,33.71,27.57,33.77s.13,0,.18,0,26-19.51,30.12-22.82C91.82,38.86,92.79,31.45,91.37,23.72ZM78.79,44.79c-1,.72-6.33,5.16-12.64,9.73C59.43,59.4,53,64.07,53,64.07S31.35,43.44,28.66,32.61c-1.21-4.92-.21-9.22,3.09-12.41C38.44,13.9,47,18.65,47.17,18.78c-1,1.84-2.89,5.25-1.64,13.05A23.3,23.3,0,0,0,63.79,50.17c-1-.4-14.87-8.18-13.9-24,.7-11.37,11-18.21,20.32-17.53,8.29.61,15.48,7.14,15,15.86-.43,6.59-5.32,11.4-12.2,12.67C65,38.66,57.17,34,55.62,26.72a12.28,12.28,0,0,1-.27-2.56,14.26,14.26,0,0,0,0,5.9c1.81,8.46,10.65,13.46,20,11.74,7-1.29,11.1-6.64,13.09-12.2C87.9,35,84.07,40.71,78.79,44.79Z"/><path class="cls-3" d="M60.28,13.73a2.37,2.37,0,0,0,1.87-3.85A20,20,0,0,0,58,12,2.38,2.38,0,0,0,60.28,13.73Z"/><circle class="cls-3" cx="64.78" cy="13.02" r="2.22"/><path class="cls-3" d="M66.32,10.8a2.22,2.22,0,0,0,2.22-2.18,18.94,18.94,0,0,0-4.34.61A2.22,2.22,0,0,0,66.32,10.8Z"/><path class="cls-3" d="M70.77,12.37A2.22,2.22,0,0,0,73,10.14,2.2,2.2,0,0,0,72.68,9a17.47,17.47,0,0,0-2.48-.37c-.35,0-.69,0-1,0a2.22,2.22,0,0,0,1.61,3.76Z"/><path class="cls-3" d="M73,11.76a2.23,2.23,0,0,0,4.45,0,2.19,2.19,0,0,0-.29-1.07A17,17,0,0,0,74.7,9.6,2.22,2.22,0,0,0,73,11.76Z"/><path class="cls-3" d="M77.44,13.34a2.22,2.22,0,0,0,4.23.94,15.93,15.93,0,0,0-3.21-2.81A2.22,2.22,0,0,0,77.44,13.34Z"/><path class="cls-3" d="M83.6,17.08a14.7,14.7,0,0,0-1.68-2.5,2.37,2.37,0,0,0,0,.35A2.22,2.22,0,0,0,83.6,17.08Z"/><path class="cls-3" d="M84.69,21a2.21,2.21,0,0,0,.47,1.35,14.08,14.08,0,0,0-.34-2A2.14,2.14,0,0,0,84.69,21Z"/><path class="cls-3" d="M83,25.38a2.29,2.29,0,0,0,1.62,2.18,13.44,13.44,0,0,0,.57-3.06c0-.48,0-1,0-1.42A2.29,2.29,0,0,0,83,25.38Z"/><circle class="cls-3" cx="80.86" cy="23.77" r="2.3"/><circle class="cls-3" cx="76.47" cy="22.19" r="2.3"/><circle class="cls-3" cx="63.19" cy="17.45" r="2.31"/><circle class="cls-3" cx="58.76" cy="15.87" r="2.31"/><path class="cls-3" d="M56.68,14.32a2.29,2.29,0,0,0-.28-1.07,18.77,18.77,0,0,0-3,3.18,2.3,2.3,0,0,0,3.27-2.1Z"/><path class="cls-3" d="M86.79,33.28a2.53,2.53,0,0,0,.19.24l-.27,0h0a19.48,19.48,0,0,1-2.32,3.22,2.5,2.5,0,0,0,.59,1,2.65,2.65,0,0,0-1.85,1c0-.08,0-.16,0-.24a2.62,2.62,0,0,0,0-.47,15.43,15.43,0,0,1-7.69,3.79,20.54,20.54,0,0,1-3.34.33,2.66,2.66,0,0,0,.83,1.3,2.55,2.55,0,0,0-1.79.91,2.57,2.57,0,0,0-.89-1.82,2.66,2.66,0,0,0,1.31-.4,19.3,19.3,0,0,1-3.18-.29l.07.06a2.59,2.59,0,0,0-1.73.76,2.56,2.56,0,0,0-.5-1.34,17.42,17.42,0,0,1-2.56-1,2.57,2.57,0,0,0-1.36.69,2.64,2.64,0,0,0-.64-1.54,2.51,2.51,0,0,0,.34-.08,14.84,14.84,0,0,1-5.76-6.73,2.64,2.64,0,0,0-1.19.68,2.65,2.65,0,0,0-.86-1.7,2.5,2.5,0,0,0,1.47-.6c-.09-.32-.18-.65-.25-1a14.26,14.26,0,0,1,0-5.9,12.29,12.29,0,0,0,.27,2.56c0,.17.09.34.14.51a2.53,2.53,0,0,0,1.88-1c0,.07,0,.13,0,.2a2.47,2.47,0,0,0,.81,1.82,2.53,2.53,0,0,0-1.92.91v0a2.51,2.51,0,0,0-.72-1.75,12.77,12.77,0,0,0,3.44,5.8,2.5,2.5,0,0,0,1.09-.69,2.53,2.53,0,0,0,.75,1.7,2.61,2.61,0,0,0-.57.1,15,15,0,0,0,3.29,1.91A2.63,2.63,0,0,0,63,34.89a2.52,2.52,0,0,0,1.69-.82s0,.06,0,.09a2.53,2.53,0,0,0,.65,1.68,2.68,2.68,0,0,0-1.23.49,15.93,15.93,0,0,0,4,1,2.72,2.72,0,0,0-.45-.67,2.54,2.54,0,0,0,1.49-.83,2.51,2.51,0,0,0,.55,1.4,2.65,2.65,0,0,0-.63.18A16.53,16.53,0,0,0,73,37.18a17.19,17.19,0,0,0,5-1.71,2.76,2.76,0,0,0-.29-.29h.08a2.53,2.53,0,0,0,1.85-.8s0,0,0,.08a13.07,13.07,0,0,0,5-6.88,2.42,2.42,0,0,0-2.95,1.05,2.37,2.37,0,0,0,0-.33,2.46,2.46,0,0,0-4.36-1.57s0,0,0,0a2.46,2.46,0,0,0-4.47-1.43c0-.07,0-.13,0-.2a2.46,2.46,0,0,0-1.37-2.2,2.3,2.3,0,1,0-1.81-2.24,2.29,2.29,0,0,0,1.26,2,2.41,2.41,0,0,0-2.5.89s0,0,0,0A2.47,2.47,0,0,0,67,21.25a2.32,2.32,0,0,0,.56.08,2.31,2.31,0,1,0-.93-.2A2.4,2.4,0,0,0,64.1,22a2.46,2.46,0,0,0-4.47-1.38c0-.06,0-.12,0-.19a2.47,2.47,0,0,0-4.54-1.34,2.46,2.46,0,0,0,0-.32,2.39,2.39,0,0,0-1.77-2.3,18,18,0,0,0-2.24,4l0,0h-.05a18.44,18.44,0,0,0-1.24,5.62,24.79,24.79,0,0,0,.07,4,2.53,2.53,0,0,0,1.49-.71,2.53,2.53,0,0,0,.76,1.52,2.64,2.64,0,0,0-1.59.63A2.66,2.66,0,0,0,50,30.19c1.2,11.93,10.9,18.38,13.32,19.73a2.76,2.76,0,0,0,1.06-.59A2.69,2.69,0,0,0,65,50.57a2.81,2.81,0,0,0-1.31.64A2.79,2.79,0,0,0,63.16,50a26.88,26.88,0,0,1-3.23-1,2.73,2.73,0,0,0-.64.31,2.74,2.74,0,0,0-.32-.7,23.5,23.5,0,0,1-3.23-1.71,2.62,2.62,0,0,0,.28.44,2.78,2.78,0,0,0-1.09.51,2.78,2.78,0,0,0-.66-1.21,2.67,2.67,0,0,0,.68-.26,22.67,22.67,0,0,1-6.33-6.7,2.75,2.75,0,0,0-1.14.6,2.73,2.73,0,0,0-.58-1.07,2.74,2.74,0,0,0,1.18-.46,24.2,24.2,0,0,1-2.11-5,2.77,2.77,0,0,0-1.3.66A2.73,2.73,0,0,0,44,33a2.59,2.59,0,0,0,1.39-.74A2.65,2.65,0,0,0,46,33.7a14.77,14.77,0,0,1-.43-1.87c-1.25-7.8.67-11.21,1.64-13.05a10.51,10.51,0,0,0-1-.48,2.65,2.65,0,0,0,.63.89l-.19,0a2.42,2.42,0,0,0-1.89.92s0,0,0,0a2.49,2.49,0,0,0-1-2l.2,0A2.54,2.54,0,0,0,45,17.85a16.36,16.36,0,0,0-3.14-.77,2.65,2.65,0,0,0,.5.49l-.15,0a2.49,2.49,0,0,0-1.89.88,2.46,2.46,0,0,0-.55-1.49,11.6,11.6,0,0,0-8.06,3.26,11.92,11.92,0,0,0-2,2.58,2.85,2.85,0,0,0,.23.29,2.61,2.61,0,0,0-.44.11,11.38,11.38,0,0,0-1.24,4c.06.07.11.15.17.22l-.2,0a15.32,15.32,0,0,0,.44,5.16c.84,3.38,3.52,7.71,6.81,12.07a2.87,2.87,0,0,0,.52-.26,2.81,2.81,0,0,0,.36.88,2.64,2.64,0,0,0-.32.12A193.72,193.72,0,0,0,52.95,64.07s6.47-4.67,13.2-9.56c2.79-2,5.39-4,7.51-5.68a2.54,2.54,0,0,0-.25-.3,2.56,2.56,0,0,0,1.4-.67s0,0,0,.06c2.06-1.62,3.5-2.8,4-3.14a31.19,31.19,0,0,0,2.79-2.44,2.68,2.68,0,0,0-.84-1.23,2.65,2.65,0,0,0,1.78-1,2.36,2.36,0,0,0,0,.24,2.64,2.64,0,0,0,.15.86c3.22-3.52,5.41-7.64,5.82-11.64A23.94,23.94,0,0,1,86.79,33.28Zm-5.42-3.71a2.34,2.34,0,0,0,0,.33,2.45,2.45,0,0,0,.9,1.89h-.09a2.53,2.53,0,0,0-1.85.8,2.52,2.52,0,0,0-.85-1.83A2.45,2.45,0,0,0,81.37,29.56ZM71.7,33.1a2.53,2.53,0,0,0-1.9.87,2.53,2.53,0,0,0-1-1.87h.09a2.5,2.5,0,0,0,2-.95,2.53,2.53,0,0,0,1,1.95Zm5.09-4.85s0,0,0,0a2.45,2.45,0,0,0,.8,1.81,2.52,2.52,0,0,0-1.71.83,2.53,2.53,0,0,0-.88-1.8A2.45,2.45,0,0,0,76.79,28.25Zm-1.56,4.51a2.53,2.53,0,0,0,.86,1.78H76a2.53,2.53,0,0,0-1.8.75,2.53,2.53,0,0,0-1-1.69l.16,0A2.53,2.53,0,0,0,75.23,32.76Zm-4.78-5.25a2.46,2.46,0,0,0,2-1c0,.07,0,.13,0,.2a2.45,2.45,0,0,0,.84,1.84,2.53,2.53,0,0,0-1.91,1,2.51,2.51,0,0,0-1.13-2ZM68,25s0,0,0,0a2.47,2.47,0,0,0,1.11,2.06l-.23,0a2.5,2.5,0,0,0-1.87.85,2.54,2.54,0,0,0-.94-2A2.45,2.45,0,0,0,68,25Zm-1.64,4.59a2.51,2.51,0,0,0,1,2h-.1a2.53,2.53,0,0,0-1.88.84s0-.06,0-.09a2.53,2.53,0,0,0-.86-1.9A2.52,2.52,0,0,0,66.34,29.61Zm-2.76-6.06a2.44,2.44,0,0,0,.88,1.83h0a2.53,2.53,0,0,0-1.89.86,2.46,2.46,0,0,0-.86-1.73A2.45,2.45,0,0,0,63.58,23.55Zm-1.67,4.5a2.52,2.52,0,0,0,.85,1.77,2.53,2.53,0,0,0-1.77.82,2.53,2.53,0,0,0-.85-1.79A2.46,2.46,0,0,0,61.91,28.05Zm-2.72-6.2c0,.06,0,.12,0,.19A2.45,2.45,0,0,0,60,23.92a2.47,2.47,0,0,0-2,1,2.29,2.29,0,0,0,0-.23,2.53,2.53,0,0,0-.78-1.82A2.46,2.46,0,0,0,59.19,21.86Zm-4.44-1.77a2.32,2.32,0,0,0,.69,2.09,2.53,2.53,0,0,0-1.76.84,2.53,2.53,0,0,0-.9-1.85A2.38,2.38,0,0,0,54.74,20.09ZM52.17,27.3a2.53,2.53,0,0,0-.93-1.67,2.53,2.53,0,0,0,1.8-.85,2.53,2.53,0,0,0,.82,1.78A2.54,2.54,0,0,0,52.17,27.3Zm1.39,10.25a2.72,2.72,0,0,0-.76-1.32,2.66,2.66,0,0,0,1.43-.74A2.65,2.65,0,0,0,54.86,37,2.67,2.67,0,0,0,53.56,37.56Zm2.82,6.05a2.7,2.7,0,0,0-.53-1.31A2.69,2.69,0,0,0,57,41.74,2.63,2.63,0,0,0,57.64,43,2.68,2.68,0,0,0,56.38,43.61Zm1.56-4.48a2.71,2.71,0,0,0-.64-1.28,2.65,2.65,0,0,0,1.29-.6,2.64,2.64,0,0,0,.63,1.32A2.63,2.63,0,0,0,57.94,39.13Zm2.82,6a2.7,2.7,0,0,0-.68-1.3,2.64,2.64,0,0,0,1.41-.75,2.58,2.58,0,0,0,.6,1.46A2.75,2.75,0,0,0,60.76,45.12ZM51,44.56a2.72,2.72,0,0,0,.66,1.25,2.77,2.77,0,0,0-1.15.56,2.84,2.84,0,0,0-.65-1.29A2.77,2.77,0,0,0,51,44.56Zm-6.54-6.27a2.74,2.74,0,0,0-1.4.62,2.75,2.75,0,0,0-.54-1.27A2.71,2.71,0,0,0,43.8,37,2.76,2.76,0,0,0,44.44,38.28ZM44.2,21.6h0a2.42,2.42,0,0,0,1,1.93,2.59,2.59,0,0,0-1.87,1,2.53,2.53,0,0,0-1-2A2.49,2.49,0,0,0,44.2,21.6Zm-1.49,4.58a2.59,2.59,0,0,0,.68,1.7,2.6,2.6,0,0,0-1.71.72A2.57,2.57,0,0,0,41,27.1,2.53,2.53,0,0,0,42.71,26.18Zm-1.13,6.07a2.71,2.71,0,0,0-1.38.65,2.71,2.71,0,0,0-.74-1.46,2.6,2.6,0,0,0,1.44-.69A2.59,2.59,0,0,0,41.58,32.25ZM39.75,20.09a2.49,2.49,0,0,0,1,1.95,2.53,2.53,0,0,0-1.87.84,2.56,2.56,0,0,0-.9-1.94A2.44,2.44,0,0,0,39.75,20.09Zm-1.55,4.5a2.53,2.53,0,0,0,.66,1.69,2.59,2.59,0,0,0-1.57.71,2.59,2.59,0,0,0-.72-1.57A2.56,2.56,0,0,0,38.2,24.59Zm-4.55-5.37a2.59,2.59,0,0,0,1.78-.71,2.45,2.45,0,0,0,.82,1.8,2.55,2.55,0,0,0-1.84.83,2.6,2.6,0,0,0-1.05-1.94A2.5,2.5,0,0,0,33.65,19.22ZM33.73,23a2.56,2.56,0,0,0,.71,1.63,2.59,2.59,0,0,0-1.54.71,2.58,2.58,0,0,0-.69-1.52A2.6,2.6,0,0,0,33.73,23ZM29.81,34a2.76,2.76,0,0,0-.55-1.1,2.76,2.76,0,0,0,1.27-.65A2.62,2.62,0,0,0,31,33.4,2.75,2.75,0,0,0,29.81,34Zm.86-5.76a2.58,2.58,0,0,0,1.46-.7,2.58,2.58,0,0,0,.79,1.61,2.63,2.63,0,0,0-1.49.62A2.77,2.77,0,0,0,30.67,28.22Zm2,11.8a2.73,2.73,0,0,0-.55-1.18,2.75,2.75,0,0,0,1.1-.49,2.74,2.74,0,0,0,.51,1.09A2.78,2.78,0,0,0,32.65,40Zm1.62-4.49a2.76,2.76,0,0,0-.58-1.17,2.62,2.62,0,0,0,1.15-.58A2.69,2.69,0,0,0,35.4,35,2.76,2.76,0,0,0,34.27,35.54Zm1.47-4.22a2.65,2.65,0,0,0-.8-1.48,2.59,2.59,0,0,0,1.57-.71,2.58,2.58,0,0,0,.7,1.54A2.7,2.7,0,0,0,35.74,31.31Zm1.43,10.12a2.72,2.72,0,0,0-.48-1A2.73,2.73,0,0,0,37.6,40,2.75,2.75,0,0,0,38.13,41,2.85,2.85,0,0,0,37.18,41.43ZM38.06,36a2.7,2.7,0,0,0,1.25-.63,2.7,2.7,0,0,0,.51,1.19,2.75,2.75,0,0,0-1.21.54A2.75,2.75,0,0,0,38.06,36ZM40,47.5a3,3,0,0,0-.42-1,2.82,2.82,0,0,0,1-.57,2.71,2.71,0,0,0,.52,1A2.79,2.79,0,0,0,40,47.5ZM41,42a2.77,2.77,0,0,0,1.12-.57,2.74,2.74,0,0,0,.5,1.22,2.71,2.71,0,0,0-1,.53A2.83,2.83,0,0,0,41,42Zm1.94,11.28a2.89,2.89,0,0,0-.38-.82,2.82,2.82,0,0,0,.86-.42,2.85,2.85,0,0,0,.37.88A2.9,2.9,0,0,0,42.89,53.29Zm1.57-4.2a2.8,2.8,0,0,0-.58-1.14,2.69,2.69,0,0,0,1-.45,2.82,2.82,0,0,0,.52,1.15A2.84,2.84,0,0,0,44.47,49.09Zm1-5.38a2.76,2.76,0,0,0,1.14-.61,2.75,2.75,0,0,0,.55,1,2.84,2.84,0,0,0-1.25.56A2.72,2.72,0,0,0,45.49,43.71Zm1.78,11.36a3,3,0,0,0-.41-.93,2.86,2.86,0,0,0,.91-.41,2.86,2.86,0,0,0,.41.86A2.8,2.8,0,0,0,47.28,55.07Zm1.16-5.38a2.84,2.84,0,0,0,1.07-.56,2.79,2.79,0,0,0,.43,1,2.84,2.84,0,0,0-1.06.46A2.83,2.83,0,0,0,48.44,49.69Zm1.81,11.14a2.93,2.93,0,0,0-.34-.84,2.86,2.86,0,0,0,.71-.33,2.86,2.86,0,0,0,.37.83A2.9,2.9,0,0,0,50.25,60.83Zm1.53-4.34a2.84,2.84,0,0,0-.4-.85,2.86,2.86,0,0,0,.79-.38,2.86,2.86,0,0,0,.39.88A2.82,2.82,0,0,0,51.77,56.5Zm1.06-5.24a2.79,2.79,0,0,0,1.09-.51,2.76,2.76,0,0,0,.45,1,2.86,2.86,0,0,0-1.1.48A2.87,2.87,0,0,0,52.83,51.25ZM54.6,62.33a2.87,2.87,0,0,0-.35-.73,2.8,2.8,0,0,0,.83-.42,3,3,0,0,0,.33.74A2.91,2.91,0,0,0,54.6,62.33ZM56.09,58a2.77,2.77,0,0,0-.34-.75,2.87,2.87,0,0,0,.85-.4,2.89,2.89,0,0,0,.31.7A3,3,0,0,0,56.09,58Zm1.58-4.37a2.83,2.83,0,0,0-.46-.88,2.77,2.77,0,0,0,.94-.4,2.82,2.82,0,0,0,.38.85A2.91,2.91,0,0,0,57.68,53.66Zm4.56,1.59a2.92,2.92,0,0,0-.45-.95,2.8,2.8,0,0,0,.91-.52,2.8,2.8,0,0,0,.39,1.06A3,3,0,0,0,62.24,55.24Zm3-8.47a2.76,2.76,0,0,0-.68-1.37,2.6,2.6,0,0,0,1.36-.73,2.56,2.56,0,0,0,.6,1.48A2.67,2.67,0,0,0,65.24,46.77Zm2.93,5.73a2.83,2.83,0,0,0-.6-1,2.68,2.68,0,0,0,1.16-.57,2.78,2.78,0,0,0,.43,1.18A2.94,2.94,0,0,0,68.17,52.5Zm1.51-4.09A2.68,2.68,0,0,0,69,47a2.57,2.57,0,0,0,1.45-.89,2.57,2.57,0,0,0,.7,1.64A2.74,2.74,0,0,0,69.67,48.42Zm5.91-2.78a2.56,2.56,0,0,0-.85-1.57,2.65,2.65,0,0,0,1.66-.7A2.65,2.65,0,0,0,77,44.9,2.7,2.7,0,0,0,75.58,45.63Z"/><circle class="cls-3" cx="73.62" cy="16.21" r="2.22"/><circle class="cls-3" cx="69.17" cy="14.59" r="2.22"/><circle class="cls-3" cx="78.07" cy="17.79" r="2.22"/><path class="cls-3" d="M80.25,19.37a2.22,2.22,0,0,0,4.42.33,14.13,14.13,0,0,0-.77-2,2.21,2.21,0,0,0-3.65,1.69Z"/><circle class="cls-1" cx="33.41" cy="63.07" r="4.09"/><circle class="cls-4" cx="33.41" cy="63.05" r="2.84"/><path class="cls-2" d="M32.17,61.39H33.7a1.64,1.64,0,0,1,.62.1.74.74,0,0,1,.47.74.76.76,0,0,1-.13.46.85.85,0,0,1-.35.29.72.72,0,0,1,.3.19.7.7,0,0,1,.11.39l0,.42a1,1,0,0,0,0,.27.26.26,0,0,0,.15.19v.07h-.56a.41.41,0,0,1,0-.11s0-.12,0-.24l0-.52a.44.44,0,0,0-.24-.41,1,1,0,0,0-.4-.06h-1v1.34h-.46Zm1.48,1.43a.87.87,0,0,0,.49-.12.47.47,0,0,0,.18-.43.46.46,0,0,0-.25-.45.83.83,0,0,0-.36-.06H32.62v1.06Z"/></g></g></svg>